*
*
G04 PADS 9.5 Build Number: 522968 generated Gerber (RS-274-X) file*
G04 PC Version=2.1*
*
%IN "Arudino_VarioShield_UNO"*%
*
%MOIN*%
*
%FSLAX35Y35*%
*
*
*
*
G04 PC Standard Apertures*
*
*
G04 Thermal Relief Aperture macro.*
%AMTER*
1,1,$1,0,0*
1,0,$1-$2,0,0*
21,0,$3,$4,0,0,45*
21,0,$3,$4,0,0,135*
%
*
*
G04 Annular Aperture macro.*
%AMANN*
1,1,$1,0,0*
1,0,$2,0,0*
%
*
*
G04 Odd Aperture macro.*
%AMODD*
1,1,$1,0,0*
1,0,$1-0.005,0,0*
%
*
*
G04 PC Custom Aperture Macros*
*
*
*
*
*
*
G04 PC Aperture Table*
*
%ADD010C,0.001*%
%ADD011R,0.06X0.06*%
%ADD012C,0.06299*%
%ADD013C,0.11811*%
%ADD014R,0.06299X0.06299*%
%ADD015R,0.03937X0.11811*%
%ADD016C,0.02362*%
%ADD017O,0.025X0.065*%
%ADD018R,0.07087X0.01772*%
%ADD019R,0.08268X0.05709*%
%ADD020R,0.0748X0.09252*%
%ADD021R,0.0748X0.04626*%
%ADD022R,0.01772X0.05709*%
%ADD023O,0.04724X0.01969*%
%ADD024R,0.036X0.036*%
%ADD025R,0.05X0.036*%
%ADD026R,0.03543X0.03543*%
%ADD027C,0.03543*%
%ADD028R,0.04724X0.04724*%
%ADD029C,0.04724*%
%ADD030R,0.03X0.038*%
%ADD031R,0.038X0.03*%
%ADD032C,0.07087*%
%ADD033R,0.11811X0.06299*%
%ADD034R,0.06299X0.1378*%
%ADD035R,0.06299X0.07874*%
%ADD036C,0.00787*%
%ADD037C,0.006*%
%ADD038C,0.01575*%
%ADD039C,0.01969*%
%ADD040C,0.0315*%
%ADD041C,0.01*%
%ADD042C,0.01024*%
%ADD077C,0.12598*%
*
*
*
*
G04 PC Circuitry*
G04 Layer Name Arudino_VarioShield_UNO - circuitry*
%LPD*%
*
*
G04 PC Custom Flashes*
G04 Layer Name Arudino_VarioShield_UNO - flashes*
%LPD*%
*
*
G04 PC Circuitry*
G04 Layer Name Arudino_VarioShield_UNO - circuitry*
%LPD*%
*
G54D10*
G54D11*
G01X325533Y214173D03*
X339033D03*
X172498Y165354D03*
X158998D03*
X223171Y187402D03*
X236671D03*
X203486Y135039D03*
X216986D03*
X314904Y187402D03*
X328404D03*
X295219Y134646D03*
X308719D03*
G54D12*
X213110Y209902D03*
Y219902D03*
Y229902D03*
Y239902D03*
Y249902D03*
Y259902D03*
Y269902D03*
Y279902D03*
X220000Y110000D03*
X230000D03*
X240000D03*
X250000D03*
X260000D03*
X270000D03*
X280000D03*
X184016Y298819D03*
X194016D03*
X204016D03*
X214016D03*
X224016D03*
X234016D03*
X244016D03*
X254016D03*
X264016D03*
X290000D03*
X300000D03*
X310000D03*
X320000D03*
X330000D03*
X340000D03*
X350000D03*
X229016Y285827D03*
X310000Y110000D03*
X320000D03*
X330000D03*
X340000D03*
X350000D03*
X144094Y243307D03*
Y259055D03*
X129921Y275000D03*
Y292717D03*
X131496Y221654D03*
Y209843D03*
Y198031D03*
X351575Y269449D03*
Y279449D03*
G54D13*
X163110Y212402D03*
G54D14*
X210000Y110000D03*
X174016Y298819D03*
X280000D03*
X239016Y285827D03*
X300000Y110000D03*
X144094Y251181D03*
X351575Y259449D03*
G54D15*
X262126Y209843D03*
X272126D03*
X282126D03*
X292126D03*
Y275197D03*
X282126D03*
X272126D03*
X262126D03*
G54D16*
X313189Y227520D03*
Y232520D03*
Y237520D03*
Y242520D03*
Y247520D03*
Y252520D03*
Y257520D03*
G54D17*
X324783Y236220D03*
X329783D03*
X334783D03*
X339783D03*
Y259843D03*
X334783D03*
X329783D03*
X324783D03*
G54D18*
X121260Y138583D03*
Y136024D03*
Y133465D03*
Y130906D03*
Y128346D03*
G54D19*
X118268Y143110D03*
Y123819D03*
G54D20*
X109213Y144882D03*
Y122047D03*
G54D21*
Y130157D03*
Y136772D03*
G54D22*
X206398Y150787D03*
X208957D03*
X211516D03*
X214075D03*
Y168110D03*
X211516D03*
X208957D03*
X206398D03*
X298130Y150787D03*
X300689D03*
X303248D03*
X305807D03*
Y168110D03*
X303248D03*
X300689D03*
X298130D03*
G54D23*
X153937Y124606D03*
Y128346D03*
Y132087D03*
X142126D03*
Y124606D03*
G54D24*
X168861Y143100D03*
Y150600D03*
G54D25*
X160861Y146850D03*
G54D26*
X165354Y109843D03*
X352362Y220472D03*
Y182677D03*
G54D27*
X165354Y114764D03*
X352362Y225394D03*
Y187598D03*
Y192520D03*
Y197441D03*
Y202362D03*
Y207283D03*
G54D28*
X131496Y168898D03*
Y153937D03*
G54D29*
Y177559D03*
Y162598D03*
G54D30*
X340571Y276328D03*
Y270128D03*
X131890Y117766D03*
Y123966D03*
Y144832D03*
Y138632D03*
X190551Y154281D03*
Y148081D03*
X229921Y164617D03*
Y170817D03*
Y148081D03*
Y154281D03*
X282283D03*
Y148081D03*
X321654Y164617D03*
Y170817D03*
Y148081D03*
Y154281D03*
X190551Y164617D03*
Y170817D03*
X282283Y164617D03*
Y170817D03*
X323622Y276328D03*
Y270128D03*
G54D31*
X145226Y173228D03*
X139026D03*
Y157874D03*
X145226D03*
X303199Y122441D03*
X309399D03*
X326131D03*
X319931D03*
X329183Y225197D03*
X335383D03*
X150738Y146850D03*
X144538D03*
G54D32*
X139764Y270079D03*
Y297638D03*
G54D33*
X131496Y234646D03*
Y185039D03*
G54D34*
X251575Y170472D03*
Y150000D03*
X341732Y170079D03*
Y149606D03*
G54D35*
X281791Y187795D03*
X297736Y187992D03*
X190059Y187795D03*
X206004Y187992D03*
G54D36*
X125984Y104724D02*
X151575D01*
X153937Y107087*
Y124606*
X131890Y123966D02*
X136565D01*
X137205Y124606*
X142126*
X214075Y150787D02*
X219600D01*
X223094Y154281*
X229921*
X305807Y150787D02*
X311073D01*
X314567Y154281*
X321654*
X131496Y162598D02*
X144045D01*
X145226Y161417*
Y157874*
X190551Y164617D02*
Y154281D01*
X190895Y153937*
X195669*
X198819Y150787*
Y144833*
X200000Y143652*
X210285*
X211516Y144882*
Y150787*
X229921Y154281D02*
Y164617D01*
X282283Y154281D02*
X284596Y151969D01*
X291732*
X294636Y149065*
Y145423*
X295817Y144242*
X302215*
X303248Y145276*
Y150787*
X321654Y154281D02*
Y164617D01*
X131496Y168898D02*
X137451D01*
X139026Y170472*
Y173228*
X282283Y164617D02*
Y154281D01*
X333071Y203543D02*
X333299Y203315D01*
X340926*
X341879Y202362*
X352362*
X281496Y235039D02*
X305906D01*
X329783Y236220D02*
Y242913D01*
X331358Y244488*
X337795*
X339783Y236220D02*
Y232283D01*
X340965Y231102*
X350787*
X352362Y229528*
Y225394*
X301575Y255118D02*
X319291D01*
X320866Y253543*
X344882*
X346378Y255039*
Y268583*
X347244Y269449*
X351575*
X339783Y259843D02*
X340571Y270128D01*
X272047Y266535D02*
X273228Y265354D01*
X298425*
X272047Y266535D02*
Y275118D01*
X272126Y275197*
X323622Y270128D02*
Y265335D01*
X324783Y259843*
X256299Y285433D02*
X256349Y285383D01*
X293651*
X302706Y276328*
X323622*
X300394Y287008D02*
X306693D01*
X308268Y285433*
X350000*
X351575Y283858*
Y279449*
X174016Y298819D02*
Y287008D01*
X176772Y284252*
X192913*
X195669Y281496*
Y242264*
X198031Y239902*
X213110*
X184016Y298819D02*
Y290551D01*
X186614Y287953*
X195512*
X198819Y284646*
Y252657*
X201575Y249902*
X213110*
G54D37*
X309399Y122441D02*
X319931D01*
X320000Y116664*
Y110000*
X145226Y173228D02*
X150394D01*
X151969Y171654*
Y155512*
X154331Y153150*
X162992*
X165354Y150787*
Y146607*
X168861Y143100*
X251575Y170472D02*
X263780Y170866D01*
X181890Y200787D02*
X183858Y198819D01*
X248450*
X251206Y196063*
X287008*
X292126Y201181*
Y209843*
X160630Y225197D02*
X238976D01*
X243701Y220472*
X279370*
X282126Y217717*
Y209843*
X261811Y265354D02*
Y274882D01*
X262126Y275197*
X248031Y289370D02*
X293701D01*
X299606Y283465*
X338583*
X340551Y281496*
Y276348*
X340571Y276328*
G54D38*
X142126Y132087D02*
X147404D01*
X148782Y133465*
Y135433*
X150394Y137045*
X167323*
X168861Y138583*
Y143100*
X153937Y132087D02*
X158858D01*
X159055Y132283*
X173622Y124409D02*
Y120472D01*
X175984Y118110*
X237795*
X240000Y115906*
Y110000*
X121260Y138583D02*
X131840D01*
X131890Y138632*
X131939Y138583*
X135827*
X137795Y136614*
Y133268*
X138976Y132087*
X142126*
X159055Y142126D02*
X160861Y143931D01*
Y146850*
X168861Y143100D02*
X175984D01*
X178740Y145856*
Y163386*
X295219Y134646D02*
Y125078D01*
X297856Y122441*
X303199*
X150738Y146850D02*
X160861D01*
X182677Y148031D02*
X190502D01*
X190551Y148081*
Y137008*
X192520Y135039*
X203486*
X272441Y148031D02*
X282234D01*
X282283Y148081*
Y136614*
X284252Y134646*
X295219*
X158998Y165354D02*
Y159843D01*
X160985Y157856*
X167698*
X168861Y156693*
Y150600*
X172498Y165354D02*
X176772D01*
X178740Y163386*
X206398Y168110D02*
Y186853D01*
X206946Y187402*
X223171*
X208957Y150787D02*
Y168110D01*
X211516*
X208957D02*
Y173524D01*
X211023Y175590*
X217667*
X218898Y174360*
Y172047*
X220079Y170866*
X229872*
X229921Y170817*
Y175591*
X231102Y176772*
X235039*
X236614Y178346*
Y187344*
X236671Y187402*
X229921Y170817D02*
X263730D01*
X263780Y170866*
X282283Y170817D02*
X287795D01*
X290502Y168110*
X298130*
X300689Y150787D02*
Y168110D01*
X303248*
X300689D02*
Y173228D01*
X301894Y174434*
X313386*
X314567Y173253*
Y171654*
X315748Y170472*
X321309*
X321654Y170817*
Y175591*
X323622Y177559*
X327559*
X328740Y178740*
X321654Y170817D02*
X328346D01*
X329084Y170079*
X341732*
X182677Y187402D02*
X183071Y187795D01*
X190059*
X190945Y187894*
Y193406*
X193209Y195669*
X245669*
X253937Y187402*
X272441*
X272835Y187795*
X281791*
X298130Y187598D02*
Y168110D01*
X297736Y187992D02*
X314313D01*
X314904Y187402*
X328404D02*
X328740Y187065D01*
Y178740*
X131496Y198031D02*
X140541D01*
X142460Y196113*
Y187068*
X144882Y184646*
X157087*
X158998Y182734*
Y165354*
X131496Y209843D02*
X131588Y209827D01*
X145918*
X148264Y207480*
Y193307*
X150394Y191177*
X163230*
X166929Y187402*
X182677*
X213110Y209902D02*
X241280D01*
X250000Y209843*
X240157Y203543D02*
X252756D01*
X256299Y200000*
X270079*
X272126Y202047*
Y209843*
X329134Y208661D02*
X341339D01*
X342717Y207283*
X352362*
X272047Y216929D02*
Y209921D01*
X272126Y209843*
X325533Y214173D02*
Y200508D01*
X328346Y197695*
Y187459*
X328404Y187402*
X325533Y214173D02*
Y218110D01*
X328740Y221317*
Y224754*
X329183Y225197*
X250000Y229134D02*
X281496D01*
X272047Y223622D02*
X317717D01*
X324783Y236220D02*
Y231890D01*
X329134Y227539*
Y225246*
X329183Y225197*
X250000Y247244D02*
Y253150D01*
X253543Y256693*
X281496*
X264280Y110000D02*
X263150D01*
X260000Y114280D02*
Y113150D01*
X255720Y110000D02*
X256850D01*
X260000Y105720D02*
Y106850D01*
X274280Y110000D02*
X273150D01*
X270000Y114280D02*
Y113150D01*
X265720Y110000D02*
X266850D01*
X270000Y105720D02*
Y106850D01*
X224736Y285827D02*
X225866D01*
X229016Y281547D02*
Y282677D01*
X233295Y285827D02*
X232165D01*
X229016Y290106D02*
Y288976D01*
X208295Y298819D02*
X207165D01*
X204016Y303098D02*
Y301969D01*
X199736Y298819D02*
X200866D01*
X204016Y294539D02*
Y295669D01*
X208831Y229902D02*
X209961D01*
X217390D02*
X216260D01*
X213110Y234181D02*
Y233051D01*
X129921Y296996D02*
Y295866D01*
X125642Y292717D02*
X126772D01*
X129921Y288437D02*
Y289567D01*
X134201Y292717D02*
X133071D01*
X168256Y114764D02*
X167126D01*
X165354Y117665D02*
Y116535D01*
X162453Y114764D02*
X163583D01*
X349461Y182677D02*
X350591D01*
X352362Y179776D02*
Y180906D01*
X355264Y182677D02*
X354134D01*
G54D39*
X190551Y170817D02*
X195009D01*
X195262Y170564*
X197244Y168582*
X205926*
X206398Y168110*
G54D40*
X125984Y104724D03*
X260000Y120000D03*
X255000D03*
X265000D03*
X270000D03*
X340000D03*
X345000D03*
X350000D03*
X159055Y132283D03*
X165000Y125000D03*
X173622Y124409D03*
X180000Y125000D03*
Y130000D03*
X185000Y125000D03*
X190000D03*
Y130000D03*
X185000D03*
X195000Y125000D03*
Y130000D03*
X230000Y125000D03*
X225000D03*
X230000Y130000D03*
X225000D03*
X235000Y125000D03*
Y130000D03*
X255000Y125000D03*
X260000Y130000D03*
X255000D03*
X260000Y125000D03*
X270000D03*
X265000D03*
X340000D03*
X335000Y130000D03*
X340000D03*
X350000Y125000D03*
X345000D03*
Y130000D03*
X350000D03*
X159055Y142126D03*
X180000Y135000D03*
Y140000D03*
X185000Y135000D03*
Y140000D03*
X255000Y135000D03*
X260000D03*
X340000D03*
X335000D03*
X350000D03*
X345000D03*
X360000Y140000D03*
X365000D03*
X182677Y148031D03*
X272441D03*
X360000Y145000D03*
Y150000D03*
X365000Y145000D03*
Y150000D03*
X200000Y160000D03*
Y155000D03*
X205000Y160000D03*
X215000D03*
X220000D03*
Y155000D03*
X225000Y160000D03*
X290000D03*
Y155000D03*
X295000D03*
Y160000D03*
X310000Y155000D03*
Y160000D03*
X315000D03*
X360000Y155000D03*
Y160000D03*
X365000Y155000D03*
Y160000D03*
X200000Y165000D03*
X220000D03*
X225000D03*
X263780Y170866D03*
X290000Y165000D03*
X295000D03*
X310000D03*
Y170000D03*
X315000Y165000D03*
X360000D03*
Y170000D03*
X365000Y165000D03*
Y170000D03*
X105000Y185000D03*
Y190000D03*
X110000Y185000D03*
Y190000D03*
X182677Y187402D03*
X272441D03*
X105000Y200000D03*
Y195000D03*
X110000D03*
Y200000D03*
X181890Y200787D03*
X300000Y200000D03*
X310000D03*
Y195000D03*
X305000Y200000D03*
X315000D03*
X320000Y195000D03*
X315000D03*
X320000Y200000D03*
X105000Y210000D03*
Y205000D03*
X110000D03*
Y210000D03*
X240157Y203543D03*
X250000Y209843D03*
X300000Y210000D03*
Y205000D03*
X305000Y210000D03*
Y205000D03*
X329134Y208661D03*
X333071Y203543D03*
X272047Y216929D03*
X300000Y215000D03*
X305000D03*
X105000Y230000D03*
X110000D03*
X160630Y225197D03*
X220000Y230000D03*
X225000D03*
X230000D03*
X250000Y229134D03*
X272047Y223622D03*
X281496Y229134D03*
X317717Y223622D03*
X105000Y235000D03*
Y240000D03*
X110000Y235000D03*
Y240000D03*
X115000D03*
X120000D03*
X125000D03*
X220000Y235000D03*
Y240000D03*
X225000Y235000D03*
X230000D03*
Y240000D03*
X225000D03*
X281496Y235039D03*
X305906D03*
X105000Y245000D03*
Y250000D03*
X110000Y245000D03*
Y250000D03*
X115000Y245000D03*
X120000D03*
Y250000D03*
X115000D03*
X125000Y245000D03*
Y250000D03*
X220000Y245000D03*
Y250000D03*
X225000Y245000D03*
X230000D03*
Y250000D03*
X225000D03*
X250000Y247244D03*
X337795Y244488D03*
X105000Y255000D03*
Y260000D03*
X110000Y255000D03*
Y260000D03*
X115000Y255000D03*
X120000D03*
Y260000D03*
X115000D03*
X125000Y255000D03*
Y260000D03*
X220000Y255000D03*
Y260000D03*
X225000Y255000D03*
X230000D03*
Y260000D03*
X225000D03*
X281496Y256693D03*
X301575Y255118D03*
X105000Y265000D03*
Y270000D03*
X110000D03*
Y265000D03*
X245000Y270000D03*
X250000D03*
X255000D03*
X261811Y265354D03*
X298425D03*
X330000Y270000D03*
X335000D03*
X150000Y280000D03*
X160000D03*
X170000Y275000D03*
Y280000D03*
X180000Y275000D03*
Y280000D03*
X190000D03*
Y275000D03*
X250000D03*
X245000D03*
X255000D03*
X330000Y280000D03*
Y275000D03*
X335000Y280000D03*
Y275000D03*
X248031Y289370D03*
X256299Y285433D03*
X300394Y287008D03*
G54D41*
X354280Y110000D02*
G75*
G03X354280I-4280J0D01*
G01X367815Y130000D02*
G03X367815I-7579J0D01*
G01Y240000D02*
G03X367815I-7579J0D01*
G01X264280Y110000D02*
G03X264280I-4280J0D01*
G01X254280D02*
G03X254280I-4280J0D01*
G01X234280D02*
G03X234280I-4280J0D01*
G01X224280D02*
G03X224280I-4280J0D01*
G01X274280D02*
G03X274280I-4280J0D01*
G01X284280D02*
G03X284280I-4280J0D01*
G01X314280D02*
G03X314280I-4280J0D01*
G01X334280D02*
G03X334280I-4280J0D01*
G01X344280D02*
G03X344280I-4280J0D01*
G01X354280Y298819D02*
G03X354280I-4280J0D01*
G01X344280D02*
G03X344280I-4280J0D01*
G01X334280D02*
G03X334280I-4280J0D01*
G01X324280D02*
G03X324280I-4280J0D01*
G01X314280D02*
G03X314280I-4280J0D01*
G01X304280D02*
G03X304280I-4280J0D01*
G01X294280D02*
G03X294280I-4280J0D01*
G01X268295D02*
G03X268295I-4279J0D01*
G01X258295D02*
G03X258295I-4279J0D01*
G01X248295D02*
G03X248295I-4279J0D01*
G01X233295Y285827D02*
G03X233295I-4279J0D01*
G01X238295Y298819D02*
G03X238295I-4279J0D01*
G01X228295D02*
G03X228295I-4279J0D01*
G01X217390Y259902D02*
G03X217390I-4280J0D01*
G01Y269902D02*
G03X217390I-4280J0D01*
G01Y279902D02*
G03X217390I-4280J0D01*
G01X218295Y298819D02*
G03X218295I-4279J0D01*
G01X208295D02*
G03X208295I-4279J0D01*
G01X198295D02*
G03X198295I-4279J0D01*
G01X167579D02*
G03X167579I-7579J0D01*
G01X135776Y221654D02*
G03X135776I-4280J0D01*
G01X144437Y270079D02*
G03X144437I-4673J0D01*
G01Y297638D02*
G03X144437I-4673J0D01*
G01X134201Y275000D02*
G03X134201I-4280J0D01*
G01Y292717D02*
G03X134201I-4280J0D01*
G01X170146Y212402D02*
G03X170146I-7036J0D01*
G01X368949Y118785D02*
Y246569D01*
G03X368802Y246923I-500J-0*
G01X359044Y256681*
X358713Y257480D02*
G03X359044Y256681I1130J0D01*
G01X358713Y257480D02*
Y307031D01*
G03X358213Y307531I-500J0*
G01X101630*
G03X101130Y307031I-0J-500*
G01Y101630*
G03X101630Y101130I500J-0*
G01X125151*
G03X125281Y102113I-0J500*
G01X128082Y106432D02*
G03X125281Y102113I-2098J-1708D01*
G01X128082Y106432D02*
G03X128469Y106248I387J316D01*
G01X150737*
G03X151090Y106395I-0J500*
G01Y106394D02*
X152267Y107571D01*
G03X152413Y107925I-354J354*
G01Y122073*
G03X152037Y122558I-500J0*
G01X151082Y126119D02*
G03X152037Y122558I1477J-1513D01*
G01X151082Y126119D02*
G03Y126834I-350J357D01*
G01Y129859D02*
G03Y126834I1477J-1513D01*
G01Y129859D02*
G03Y130574I-350J358D01*
G01X150537Y131469D02*
G03X151082Y130574I2022J618D01*
G01X150537Y131469D02*
G03X149705Y131676I-478J-146D01*
G01X148760Y130731*
X147404Y130169D02*
G03X148760Y130731I-0J1918D01*
G01X147404Y130169D02*
X144499D01*
G03X144309Y130132I0J-500*
G01X143504Y129972D02*
G03X144309Y130132I-0J2115D01*
G01X143504Y129972D02*
X140748D01*
X139943Y130132D02*
G03X140748Y129972I805J1955D01*
G01X139943Y130132D02*
G03X139753Y130169I-190J-463D01*
G01X138976*
X137621Y130731D02*
G03X138976Y130169I1355J1356D01*
G01X137621Y130731D02*
X136440Y131912D01*
X135878Y133268D02*
G03X136440Y131912I1917J-0D01*
G01X135878Y133268D02*
Y135613D01*
G03X135731Y135966I-500J-0*
G01X135245Y136453*
G03X134431Y136293I-353J-354*
G01X133390Y135602D02*
G03X134431Y136293I-0J1130D01*
G01X133390Y135602D02*
X130390D01*
X129330Y136339D02*
G03X130390Y135602I1060J393D01*
G01X129330Y136339D02*
G03X128862Y136665I-468J-174D01*
G01X126433*
G03X125933Y136165I0J-500*
G01Y135138*
X125900Y134865D02*
G03X125933Y135138I-1097J273D01*
G01X125900Y134865D02*
G03Y134623I485J-121D01*
G01X125933Y134350D02*
G03X125900Y134623I-1130J0D01*
G01X125933Y134350D02*
Y132579D01*
X125900Y132306D02*
G03X125933Y132579I-1097J273D01*
G01X125900Y132306D02*
G03Y132064I485J-121D01*
G01X125933Y131791D02*
G03X125900Y132064I-1130J0D01*
G01X125933Y131791D02*
Y130020D01*
X125900Y129747D02*
G03X125933Y130020I-1097J273D01*
G01X125900Y129747D02*
G03Y129505I485J-121D01*
G01X125933Y129232D02*
G03X125900Y129505I-1130J0D01*
G01X125933Y129232D02*
Y127461D01*
X124803Y126331D02*
G03X125933Y127461I0J1130D01*
G01X124803Y126331D02*
X124032D01*
G03X123532Y125831I-0J-500*
G01Y120965*
X122402Y119835D02*
G03X123532Y120965I-0J1130D01*
G01X122402Y119835D02*
X114583D01*
G03X114083Y119335I-0J-500*
G01Y117421*
X112953Y116291D02*
G03X114083Y117421I-0J1130D01*
G01X112953Y116291D02*
X105472D01*
X104342Y117421D02*
G03X105472Y116291I1130J0D01*
G01X104342Y117421D02*
Y126673D01*
X104418Y127079D02*
G03X104342Y126673I1054J-406D01*
G01X104418Y127079D02*
G03Y127439I-467J180D01*
G01X104342Y127844D02*
G03X104418Y127439I1130J0D01*
G01X104342Y127844D02*
Y132470D01*
X104577Y133160D02*
G03X104342Y132470I895J-690D01*
G01X104577Y133160D02*
G03Y133770I-396J305D01*
G01X104342Y134459D02*
G03X104577Y133770I1130J-0D01*
G01X104342Y134459D02*
Y139085D01*
X104418Y139491D02*
G03X104342Y139085I1054J-406D01*
G01X104418Y139491D02*
G03Y139850I-467J179D01*
G01X104342Y140256D02*
G03X104418Y139850I1130J-0D01*
G01X104342Y140256D02*
Y149508D01*
X105472Y150638D02*
G03X104342Y149508I0J-1130D01*
G01X105472Y150638D02*
X112953D01*
X114083Y149508D02*
G03X112953Y150638I-1130J-0D01*
G01X114083Y149508D02*
Y147595D01*
G03X114583Y147095I500J-0*
G01X122402*
X123532Y145965D02*
G03X122402Y147095I-1130J-0D01*
G01X123532Y145965D02*
Y141098D01*
G03X124032Y140598I500J0*
G01X124803*
X125190Y140530D02*
G03X124803Y140598I-387J-1061D01*
G01X125190Y140530D02*
G03X125361Y140500I171J470D01*
G01X128828*
G03X129307Y140857I0J500*
G01X129625Y141364D02*
G03X129307Y140857I765J-832D01*
G01X129625Y141364D02*
G03Y142100I-338J368D01*
G01X129260Y142932D02*
G03X129625Y142100I1130J0D01*
G01X129260Y142932D02*
Y146732D01*
X130390Y147862D02*
G03X129260Y146732I-0J-1130D01*
G01X130390Y147862D02*
X133390D01*
X134520Y146732D02*
G03X133390Y147862I-1130J0D01*
G01X134520Y146732D02*
Y142932D01*
X134154Y142100D02*
G03X134520Y142932I-764J832D01*
G01X134154Y142100D02*
G03Y141364I339J-368D01*
G01X134472Y140857D02*
G03X134154Y141364I-1082J-325D01*
G01X134472Y140857D02*
G03X134951Y140500I479J143D01*
G01X135827*
X137183Y139938D02*
G03X135827Y140500I-1356J-1355D01*
G01X137183Y139938D02*
X139151Y137970D01*
X139713Y136614D02*
G03X139151Y137970I-1918J0D01*
G01X139713Y136614D02*
Y134645D01*
G03X140315Y134156I500J0*
G01X140748Y134201D02*
G03X140315Y134156I0J-2114D01*
G01X140748Y134201D02*
X143504D01*
X144309Y134042D02*
G03X143504Y134201I-805J-1955D01*
G01X144309Y134042D02*
G03X144499Y134004I190J462D01*
G01X146365*
G03X146865Y134504I-0J500*
G01Y135433*
X147426Y136789D02*
G03X146865Y135433I1356J-1356D01*
G01X147426Y136789D02*
X149038Y138401D01*
X150394Y138962D02*
G03X149038Y138401I-0J-1917D01*
G01X150394Y138962D02*
X157273D01*
G03X157551Y139878I0J500*
G01X157178Y144073D02*
G03X157551Y139878I1877J-1947D01*
G01X157178Y144073D02*
G03X156831Y144933I-347J360D01*
G01X153985*
G03X153572Y144714I0J-500*
G01X152638Y144220D02*
G03X153572Y144714I-0J1130D01*
G01X152638Y144220D02*
X148838D01*
X148006Y144586D02*
G03X148838Y144220I832J764D01*
G01X148006Y144586D02*
G03X147270I-368J-339D01*
G01X146438Y144220D02*
G03X147270Y144586I-0J1130D01*
G01X146438Y144220D02*
X142638D01*
X141508Y145350D02*
G03X142638Y144220I1130J0D01*
G01X141508Y145350D02*
Y148350D01*
X142638Y149480D02*
G03X141508Y148350I-0J-1130D01*
G01X142638Y149480D02*
X146438D01*
X147270Y149115D02*
G03X146438Y149480I-832J-765D01*
G01X147270Y149115D02*
G03X148006I368J338D01*
G01X148838Y149480D02*
G03X148006Y149115I-0J-1130D01*
G01X148838Y149480D02*
X152638D01*
X153572Y148986D02*
G03X152638Y149480I-934J-636D01*
G01X153572Y148986D02*
G03X153985Y148768I413J282D01*
G01X156852*
G03X157315Y149078I0J500*
G01X158361Y149780D02*
G03X157315Y149078I-0J-1130D01*
G01X158361Y149780D02*
X163132D01*
G03X163486Y150634I0J500*
G01X162546Y151573*
G03X162193Y151720I-353J-353*
G01X154331*
X153320Y152138D02*
G03X154331Y151720I1011J1012D01*
G01X153320Y152138D02*
X150957Y154501D01*
X150539Y155512D02*
G03X150957Y154501I1430J-0D01*
G01X150539Y155512D02*
Y170854D01*
G03X150392Y171208I-500J0*
G01X149948Y171652*
G03X149594Y171798I-354J-354*
G01X148698*
G03X148216Y171430I0J-500*
G01X147126Y170598D02*
G03X148216Y171430I-0J1130D01*
G01X147126Y170598D02*
X143326D01*
X142494Y170964D02*
G03X143326Y170598I832J764D01*
G01X142494Y170964D02*
G03X141758I-368J-339D01*
G01X140988Y170600D02*
G03X141758Y170964I-62J1128D01*
G01X140988Y170600D02*
G03X140524Y170193I27J-499D01*
G01X140103Y169395D02*
G03X140524Y170193I-1077J1077D01*
G01X140103Y169395D02*
X138529Y167820D01*
X137451Y167374D02*
G03X138529Y167820I0J1524D01*
G01X137451Y167374D02*
X135488D01*
G03X134988Y166874I0J-500*
G01Y166535*
X134382Y165534D02*
G03X134988Y166535I-524J1001D01*
G01X134382Y165534D02*
G03X134224Y164779I232J-443D01*
G01X134506Y164369D02*
G03X134224Y164779I-3010J-1771D01*
G01X134506Y164369D02*
G03X134937Y164122I431J253D01*
G01X144045*
X145122Y163676D02*
G03X144045Y164122I-1077J-1078D01*
G01X145122Y163676D02*
X146303Y162495D01*
X146750Y161417D02*
G03X146303Y162495I-1524J0D01*
G01X146750Y161417D02*
Y160999D01*
G03X147212Y160501I500J0*
G01X148256Y159374D02*
G03X147212Y160501I-1130J0D01*
G01X148256Y159374D02*
Y156374D01*
X147126Y155244D02*
G03X148256Y156374I-0J1130D01*
G01X147126Y155244D02*
X143326D01*
X142494Y155609D02*
G03X143326Y155244I832J765D01*
G01X142494Y155609D02*
G03X141758I-368J-338D01*
G01X140926Y155244D02*
G03X141758Y155609I-0J1130D01*
G01X140926Y155244D02*
X137126D01*
X135996Y156374D02*
G03X137126Y155244I1130J0D01*
G01X135996Y156374D02*
Y159374D01*
X136362Y160206D02*
G03X135996Y159374I764J-832D01*
G01X136362Y160206D02*
G03X136024Y161075I-338J369D01*
G01X134937*
G03X134506Y160828I0J-500*
G01X128768Y164779D02*
G03X134506Y160828I2728J-2181D01*
G01X128768Y164779D02*
G03X128610Y165534I-390J312D01*
G01X128004Y166535D02*
G03X128610Y165534I1130J0D01*
G01X128004Y166535D02*
Y171260D01*
X129134Y172390D02*
G03X128004Y171260I-0J-1130D01*
G01X129134Y172390D02*
X133858D01*
X134988Y171260D02*
G03X133858Y172390I-1130J-0D01*
G01X134988Y171260D02*
Y170921D01*
G03X135488Y170421I500J0*
G01X135710*
G03X136144Y171169I-0J500*
G01X135996Y171728D02*
G03X136144Y171169I1130J0D01*
G01X135996Y171728D02*
Y174728D01*
X137126Y175858D02*
G03X135996Y174728I-0J-1130D01*
G01X137126Y175858D02*
X140926D01*
X141758Y175493D02*
G03X140926Y175858I-832J-765D01*
G01X141758Y175493D02*
G03X142494I368J338D01*
G01X143326Y175858D02*
G03X142494Y175493I-0J-1130D01*
G01X143326Y175858D02*
X147126D01*
X148216Y175026D02*
G03X147126Y175858I-1090J-298D01*
G01X148216Y175026D02*
G03X148698Y174658I482J132D01*
G01X150394*
X151405Y174239D02*
G03X150394Y174658I-1011J-1011D01*
G01X151405Y174239D02*
X152980Y172665D01*
X153398Y171654D02*
G03X152980Y172665I-1429J-0D01*
G01X153398Y171654D02*
Y156311D01*
G03X153545Y155958I500J0*
G01X154777Y154726*
G03X155130Y154580I353J354*
G01X162992*
X164003Y154161D02*
G03X162992Y154580I-1011J-1011D01*
G01X164003Y154161D02*
X165298Y152866D01*
G03X166084Y152968I354J354*
G01X166633Y153446D02*
G03X166084Y152968I428J-1046D01*
G01X166633Y153446D02*
G03X166943Y153909I-190J463D01*
G01Y155438*
G03X166443Y155938I-500J0*
G01X160985*
X159629Y156500D02*
G03X160985Y155938I1356J1356D01*
G01X159629Y156500D02*
X157642Y158487D01*
X157081Y159843D02*
G03X157642Y158487I1917J-0D01*
G01X157081Y159843D02*
Y160724D01*
G03X156581Y161224I-500J0*
G01X155998*
X154868Y162354D02*
G03X155998Y161224I1130J0D01*
G01X154868Y162354D02*
Y168354D01*
X155998Y169484D02*
G03X154868Y168354I0J-1130D01*
G01X155998Y169484D02*
X156581D01*
G03X157081Y169984I-0J500*
G01Y181733*
G03X156934Y182087I-500J-0*
G01X156439Y182582*
G03X156085Y182728I-354J-354*
G01X144882*
X143526Y183290D02*
G03X144882Y182728I1356J1356D01*
G01X143526Y183290D02*
X141104Y185712D01*
X140542Y187068D02*
G03X141104Y185712I1918J0D01*
G01X140542Y187068D02*
Y195112D01*
G03X140396Y195465I-500J-0*
G01X139893Y195968*
G03X139540Y196114I-353J-354*
G01X135619*
G03X135188Y195867I0J-500*
G01Y200196D02*
G03Y195867I-3692J-2165D01*
G01Y200196D02*
G03X135619Y199949I431J253D01*
G01X140541*
X141897Y199387D02*
G03X140541Y199949I-1356J-1356D01*
G01X141897Y199387D02*
X143815Y197469D01*
X144377Y196113D02*
G03X143815Y197469I-1917J-0D01*
G01X144377Y196113D02*
Y188069D01*
G03X144523Y187716I500J0*
G01X145530Y186709*
G03X145883Y186563I353J354*
G01X157087*
X158442Y186001D02*
G03X157087Y186563I-1355J-1355D01*
G01X158442Y186001D02*
X160354Y184090D01*
X160915Y182734D02*
G03X160354Y184090I-1917J0D01*
G01X160915Y182734D02*
Y169984D01*
G03X161415Y169484I500J0*
G01X161998*
X163128Y168354D02*
G03X161998Y169484I-1130J0D01*
G01X163128Y168354D02*
Y162354D01*
X161998Y161224D02*
G03X163128Y162354I0J1130D01*
G01X161998Y161224D02*
X161535D01*
G03X161181Y160371I-0J-500*
G01X161633Y159919*
G03X161986Y159773I353J354*
G01X167698*
X169054Y159211D02*
G03X167698Y159773I-1356J-1355D01*
G01X169054Y159211D02*
X170216Y158049D01*
X170778Y156693D02*
G03X170216Y158049I-1917J-0D01*
G01X170778Y156693D02*
Y153909D01*
G03X171089Y153446I500J-0*
G01X171791Y152400D02*
G03X171089Y153446I-1130J0D01*
G01X171791Y152400D02*
Y148800D01*
X170661Y147670D02*
G03X171791Y148800I-0J1130D01*
G01X170661Y147670D02*
X167520D01*
G03X167166Y146817I-0J-500*
G01X167806Y146177*
G03X168160Y146030I354J353*
G01X170661*
X171706Y145328D02*
G03X170661Y146030I-1045J-428D01*
G01X171706Y145328D02*
G03X172169Y145018I463J190D01*
G01X174983*
G03X175337Y145164I-0J500*
G01X176676Y146504*
G03X176823Y146858I-353J354*
G01Y160948*
G03X176070Y161380I-500J0*
G01X175498Y161224D02*
G03X176070Y161380I0J1130D01*
G01X175498Y161224D02*
X169498D01*
X168368Y162354D02*
G03X169498Y161224I1130J0D01*
G01X168368Y162354D02*
Y168354D01*
X169498Y169484D02*
G03X168368Y168354I0J-1130D01*
G01X169498Y169484D02*
X175498D01*
X176628Y168354D02*
G03X175498Y169484I-1130J0D01*
G01X176628Y168354D02*
Y167745D01*
G03X177054Y167251I500J0*
G01X178127Y166710D02*
G03X177054Y167251I-1355J-1356D01*
G01X178127Y166710D02*
X180096Y164742D01*
X180657Y163386D02*
G03X180096Y164742I-1917J-0D01*
G01X180658Y163386D02*
Y150853D01*
X180658D02*
G03X181395Y150413I500J0D01*
G01X184453Y150072D02*
G03X181395Y150413I-1776J-2041D01*
G01X184453Y150072D02*
G03X184781Y149949I328J377D01*
G01X187490*
G03X187969Y150305I-0J500*
G01X188287Y150813D02*
G03X187969Y150305I764J-832D01*
G01X188287Y150813D02*
G03Y151549I-339J368D01*
G01X187921Y152381D02*
G03X188287Y151549I1130J0D01*
G01X187921Y152381D02*
Y156181D01*
X188688Y157251D02*
G03X187921Y156181I363J-1070D01*
G01X188688Y157251D02*
G03X189028Y157725I-160J474D01*
G01Y161173*
G03X188688Y161646I-500J-0*
G01X187921Y162717D02*
G03X188688Y161646I1130J-0D01*
G01X187921Y162717D02*
Y166517D01*
X188287Y167348D02*
G03X187921Y166517I764J-831D01*
G01X188287Y167348D02*
G03Y168085I-339J369D01*
G01X187921Y168917D02*
G03X188287Y168085I1130J-0D01*
G01X187921Y168917D02*
Y172717D01*
X189051Y173846D02*
G03X187921Y172717I0J-1129D01*
G01X189051Y173846D02*
X192051D01*
X193067Y173212D02*
G03X192051Y173846I-1016J-495D01*
G01X193067Y173212D02*
G03X193516Y172931I449J219D01*
G01X195009*
X196504Y172311D02*
G03X195009Y172931I-1495J-1494D01*
G01X196504Y172311D02*
X196757Y172059D01*
X197973Y170842*
G03X198327Y170696I354J354*
G01X203898*
G03X204393Y171125I0J500*
G01X204450Y171351D02*
G03X204393Y171125I1062J-386D01*
G01X204450Y171351D02*
G03X204480Y171522I-470J171D01*
G01Y182425*
G03X203980Y182925I-500J0*
G01X202854*
X201724Y184055D02*
G03X202854Y182925I1130J0D01*
G01X201724Y184055D02*
Y191929D01*
X202194Y192846D02*
G03X201724Y191929I660J-917D01*
G01X202194Y192846D02*
G03X201902Y193752I-292J406D01*
G01X194210*
G03X193856Y193605I-0J-500*
G01Y193606D02*
X193719Y193468D01*
G03X193808Y192690I354J-354*
G01X194339Y191732D02*
G03X193808Y192690I-1130J0D01*
G01X194339Y191732D02*
Y183858D01*
X193209Y182728D02*
G03X194339Y183858I-0J1130D01*
G01X193209Y182728D02*
X186909D01*
X185780Y183858D02*
G03X186909Y182728I1129J0D01*
G01X185780Y183858D02*
Y185378D01*
G03X185280Y185878I-500J-0*
G01X185162*
G03X184774Y185694I0J-500*
G01X180901Y185361D02*
G03X184774Y185694I1776J2041D01*
G01X180901Y185361D02*
G03X180573Y185484I-328J-377D01*
G01X166929*
X165560Y186060D02*
G03X166929Y185484I1369J1342D01*
G01X165560Y186060D02*
X162571Y189110D01*
G03X162214Y189260I-357J-350*
G01X150394*
X149038Y189822D02*
G03X150394Y189260I1356J1355D01*
G01X149038Y189822D02*
X146908Y191951D01*
X146347Y193307D02*
G03X146908Y191951I1917J0D01*
G01X146347Y193307D02*
Y206479D01*
G03X146200Y206833I-500J0*
G01X145270Y207763*
G03X144916Y207909I-354J-354*
G01X135610*
G03X135180Y207664I-0J-500*
G01X135196Y211993D02*
G03X135180Y207664I-3700J-2150D01*
G01X135196Y211993D02*
G03X135628Y211744I432J251D01*
G01X145918*
X147273Y211183D02*
G03X145918Y211744I-1355J-1356D01*
G01X147273Y211183D02*
X149620Y208836D01*
X150181Y207480D02*
G03X149620Y208836I-1917J0D01*
G01X150181Y207480D02*
Y194308D01*
G03X150328Y193955I500J0*
G01X151041Y193241*
G03X151395Y193095I354J354*
G01X163230*
X164599Y192519D02*
G03X163230Y193095I-1369J-1342D01*
G01X164599Y192519D02*
X167588Y189469D01*
G03X167945Y189319I357J350*
G01X180573*
G03X180901Y189442I0J500*
G01X183976Y189774D02*
G03X180901Y189442I-1299J-2372D01*
G01X183976Y189774D02*
G03X184216Y189713I240J439D01*
G01X185280*
G03X185780Y190213I-0J500*
G01Y191732*
X186909Y192862D02*
G03X185780Y191732I0J-1130D01*
G01X186909Y192862D02*
X188528D01*
G03X189028Y193362I-0J500*
G01Y193406*
X189589Y194761D02*
G03X189028Y193406I1356J-1355D01*
G01X189589Y194761D02*
X191363Y196535D01*
G03X191010Y197389I-353J354*
G01X183858*
X182847Y197808D02*
G03X183858Y197389I1011J1011D01*
G01X182847Y197808D02*
X182688Y197967D01*
G03X182265Y198109I-354J-353*
G01X184594Y200755D02*
G03X182265Y198109I-2704J32D01*
G01X184594Y200755D02*
G03X185094Y200249I500J-6D01*
G01X238589*
G03X238833Y201185I-0J500*
G01X241933Y205584D02*
G03X238833Y201185I-1776J-2041D01*
G01X241933Y205584D02*
G03X242261Y205461I328J377D01*
G01X252756*
X254112Y204899D02*
G03X252756Y205461I-1356J-1356D01*
G01X254112Y204899D02*
X256947Y202064D01*
G03X257301Y201917I354J353*
G01X259568*
G03X259749Y202884I0J500*
G01X259028Y203937D02*
G03X259749Y202884I1129J0D01*
G01X259028Y203937D02*
Y215748D01*
X260157Y216878D02*
G03X259028Y215748I0J-1130D01*
G01X260157Y216878D02*
X264094D01*
X265224Y215748D02*
G03X264094Y216878I-1130J0D01*
G01X265224Y215748D02*
Y203937D01*
X264503Y202884D02*
G03X265224Y203937I-409J1053D01*
G01X264503Y202884D02*
G03X264684Y201917I181J-467D01*
G01X269077*
G03X269431Y202064I0J500*
G01X269599Y202232*
G03X269526Y203000I-353J354*
G01X269028Y203937D02*
G03X269526Y203000I1129J0D01*
G01X269028Y203937D02*
Y215748D01*
X269251Y216422D02*
G03X269028Y215748I906J-674D01*
G01X269251Y216422D02*
G03X269348Y216753I-402J298D01*
G01X269710Y218291D02*
G03X269348Y216753I2337J-1362D01*
G01X269710Y218291D02*
G03X269278Y219042I-432J251D01*
G01X269278D02*
X243701D01*
X242690Y219461D02*
G03X243701Y219042I1011J1011D01*
G01X242690Y219461D02*
X238531Y223620D01*
G03X238177Y223767I-354J-353*
G01X216504*
G03X216149Y222915I0J-500*
G01X210071D02*
G03X216149I3039J-3013D01*
G01X210071D02*
G03X209716Y223767I-355J352D01*
G01X163188*
G03X162789Y223568I0J-500*
G01Y226826D02*
G03Y223568I-2159J-1629D01*
G01Y226826D02*
G03X163188Y226627I399J301D01*
G01X209219*
G03X209626Y227417I-0J500*
G01X216595D02*
G03X209626I-3485J2485D01*
G01X216595D02*
G03X217002Y226627I407J-290D01*
G01X238976*
X239987Y226208D02*
G03X238976Y226627I-1011J-1011D01*
G01X239987Y226208D02*
X244147Y222049D01*
G03X244500Y221902I353J353*
G01X269084*
G03X269546Y222593I-0J500*
G01X271344Y226234D02*
G03X269546Y222593I703J-2612D01*
G01X271344Y226234D02*
G03X271214Y227217I-130J483D01*
G01X252104*
G03X251776Y227094I0J-500*
G01Y231174D02*
G03Y227094I-1776J-2040D01*
G01Y231174D02*
G03X252104Y231051I328J377D01*
G01X279392*
G03X279720Y231174I0J500*
G01X280445Y231626D02*
G03X279720Y231174I1051J-2492D01*
G01X280445Y231626D02*
G03Y232547I-195J461D01*
G01X283593Y236747D02*
G03X280445Y232547I-2097J-1708D01*
G01X283593Y236747D02*
G03X283981Y236563I388J316D01*
G01X303421*
G03X303808Y236747I-0J500*
G01Y233331D02*
G03Y236747I2098J1708D01*
G01Y233331D02*
G03X303421Y233516I-387J-315D01*
G01X283981*
G03X283593Y233331I0J-500*
G01X282547Y232547D02*
G03X283593Y233331I-1051J2492D01*
G01X282547Y232547D02*
G03Y231626I195J-460D01*
G01X282199Y226522D02*
G03X282547Y231626I-703J2612D01*
G01X282199Y226522D02*
G03X282330Y225539I131J-483D01*
G01X310799*
G03X311224Y226303I0J500*
G01X312132Y229575D02*
G03X311224Y226303I1057J-2055D01*
G01X312132Y229575D02*
G03Y230464I-228J445D01*
G01Y234575D02*
G03Y230464I1057J-2055D01*
G01Y234575D02*
G03Y235464I-228J445D01*
G01Y239575D02*
G03Y235464I1057J-2055D01*
G01Y239575D02*
G03Y240464I-228J445D01*
G01Y244575D02*
G03Y240464I1057J-2055D01*
G01Y244575D02*
G03Y245464I-228J445D01*
G01Y249575D02*
G03Y245464I1057J-2055D01*
G01Y249575D02*
G03Y250464I-228J445D01*
G01X310927Y252992D02*
G03X312132Y250464I2262J-472D01*
G01X310927Y252992D02*
G03X310437Y253594I-490J102D01*
G01X304060*
G03X303672Y253410I-0J-500*
G01Y256826D02*
G03Y253410I-2097J-1708D01*
G01Y256826D02*
G03X304060Y256642I388J316D01*
G01X310403*
G03X310899Y257209I0J500*
G01X315479D02*
G03X310899I-2290J311D01*
G01X315479D02*
G03X315974Y256642I495J-67D01*
G01X315974D02*
X319291D01*
X320369Y256195D02*
G03X319291Y256642I-1078J-1077D01*
G01X320369Y256195D02*
X321351Y255213D01*
G03X321704Y255067I353J354*
G01X323018*
G03X323325Y255962I0J500*
G01X322404Y257843D02*
G03X323325Y255962I2379J-0D01*
G01X322404Y257843D02*
Y261843D01*
X322551Y262666D02*
G03X322404Y261843I2232J-823D01*
G01X322551Y262666D02*
G03X322571Y262942I-470J173D01*
G01X322131Y265019*
X322098Y265335D02*
G03X322131Y265019I1524J-0D01*
G01X322098Y265335D02*
Y266685D01*
G03X321759Y267158I-500J-0*
G01X320992Y268228D02*
G03X321759Y267158I1130J0D01*
G01X320992Y268228D02*
Y272028D01*
X321357Y272860D02*
G03X320992Y272028I765J-832D01*
G01X321357Y272860D02*
G03Y273596I-338J368D01*
G01X320995Y274343D02*
G03X321357Y273596I1127J85D01*
G01X320995Y274343D02*
G03X320497Y274805I-498J-38D01*
G01X302706*
X301629Y275251D02*
G03X302706Y274805I1077J1077D01*
G01X301629Y275251D02*
X296078Y280802D01*
G03X295224Y280448I-354J-354*
G01Y269291*
X294094Y268161D02*
G03X295224Y269291I0J1130D01*
G01X294094Y268161D02*
X290157D01*
X289028Y269291D02*
G03X290157Y268161I1129J0D01*
G01X289028Y269291D02*
Y281102D01*
X290157Y282232D02*
G03X289028Y281102I0J-1130D01*
G01X290157Y282232D02*
X293440D01*
G03X293794Y283086I0J500*
G01X293167Y283713*
G03X292813Y283860I-354J-353*
G01X258743*
G03X258362Y283683I-0J-500*
G01X254191Y287127D02*
G03X258362Y283683I2108J-1694D01*
G01X254191Y287127D02*
G03X253801Y287940I-390J313D01*
G01X250590*
G03X250191Y287741I-0J-500*
G01Y290999D02*
G03Y287741I-2160J-1629D01*
G01Y290999D02*
G03X250590Y290800I399J301D01*
G01X293701*
X294712Y290381D02*
G03X293701Y290800I-1011J-1011D01*
G01X294712Y290381D02*
X297120Y287974D01*
G03X297929Y288121I353J353*
G01X302491Y288716D02*
G03X297929Y288121I-2097J-1708D01*
G01X302491Y288716D02*
G03X302879Y288532I388J316D01*
G01X306693*
X307770Y288085D02*
G03X306693Y288532I-1077J-1077D01*
G01X307770Y288085D02*
X308752Y287103D01*
G03X309106Y286957I354J354*
G01X350000*
X351077Y286510D02*
G03X350000Y286957I-1077J-1077D01*
G01X351077Y286510D02*
X352652Y284936D01*
X353098Y283858D02*
G03X352652Y284936I-1523J0D01*
G01X353098Y283858D02*
Y283779D01*
G03X353387Y283326I500J-0*
G01X349179Y282995D02*
G03X353387Y283326I2396J-3546D01*
G01X349179Y282995D02*
G03X348899Y283909I-280J414D01*
G01X341367*
G03X341014Y283056I0J-500*
G01X341562Y282507*
X341981Y281496D02*
G03X341562Y282507I-1430J0D01*
G01X341981Y281496D02*
Y279806D01*
G03X342355Y279322I500J-0*
G01X343201Y278228D02*
G03X342355Y279322I-1130J0D01*
G01X343201Y278228D02*
Y274428D01*
X342836Y273596D02*
G03X343201Y274428I-765J832D01*
G01X342836Y273596D02*
G03Y272860I338J-368D01*
G01X343201Y272028D02*
G03X342836Y272860I-1130J0D01*
G01X343201Y272028D02*
Y268228D01*
X342252Y267113D02*
G03X343201Y268228I-181J1115D01*
G01X342252Y267113D02*
G03X341833Y266658I80J-494D01*
G01X341599Y263595*
G03X341696Y263259I498J-38*
G01X342163Y261843D02*
G03X341696Y263259I-2380J-0D01*
G01X342163Y261843D02*
Y257843D01*
X341242Y255962D02*
G03X342163Y257843I-1459J1881D01*
G01X341242Y255962D02*
G03X341549Y255067I307J-395D01*
G01X344044*
G03X344397Y255213I-0J500*
G01X344708Y255524*
G03X344854Y255878I-354J354*
G01Y268583*
X345301Y269660D02*
G03X344854Y268583I1077J-1077D01*
G01X345301Y269660D02*
X346167Y270526D01*
X347244Y270972D02*
G03X346167Y270526I0J-1523D01*
G01X347244Y270972D02*
X347245D01*
G03X347698Y271261I-0J500*
G01X348734Y266249D02*
G03X347698Y271261I2841J3200D01*
G01X348734Y266249D02*
G03X347902Y265875I-332J-374D01*
G01Y264228*
G03X348409Y263728I500J0*
G01X348425D02*
G03X348409I0J-1130D01*
G01X348425D02*
X354724D01*
X355854Y262598D02*
G03X354724Y263728I-1130J0D01*
G01X355854Y262598D02*
Y256299D01*
X354724Y255169D02*
G03X355854Y256299I0J1130D01*
G01X354724Y255169D02*
X348425D01*
X348385Y255170D02*
G03X348425Y255169I40J1129D01*
G01X348385Y255170D02*
G03X347876Y254761I-17J-500D01*
G01X347455Y253962D02*
G03X347876Y254761I-1077J1077D01*
G01X347455Y253962D02*
X345959Y252466D01*
X344882Y252020D02*
G03X345959Y252466I-0J1523D01*
G01X344882Y252020D02*
X320866D01*
X319789Y252466D02*
G03X320866Y252020I1077J1077D01*
G01X319789Y252466D02*
X318807Y253448D01*
G03X318453Y253594I-354J-354*
G01X315941*
G03X315451Y252992I-0J-500*
G01X314246Y250464D02*
G03X315451Y252992I-1057J2056D01*
G01X314246Y250464D02*
G03Y249575I228J-444D01*
G01Y245464D02*
G03Y249575I-1057J2056D01*
G01Y245464D02*
G03Y244575I228J-444D01*
G01Y240464D02*
G03Y244575I-1057J2056D01*
G01Y240464D02*
G03Y239575I228J-444D01*
G01Y235464D02*
G03Y239575I-1057J2056D01*
G01Y235464D02*
G03Y234575I228J-444D01*
G01Y230464D02*
G03Y234575I-1057J2056D01*
G01Y230464D02*
G03Y229575I228J-444D01*
G01X315154Y226303D02*
G03X314246Y229575I-1965J1217D01*
G01X315154Y226303D02*
G03X315579Y225539I425J-264D01*
G01X315613*
G03X315941Y225662I-0J500*
G01Y221582D02*
G03Y225662I1776J2040D01*
G01Y221582D02*
G03X315613Y221705I-328J-377D01*
G01X281367*
G03X281014Y220851I0J-500*
G01X283137Y218728*
X283556Y217717D02*
G03X283137Y218728I-1430J-0D01*
G01X283556Y217717D02*
Y217378D01*
G03X284056Y216878I500J-0*
G01X284094*
X285224Y215748D02*
G03X284094Y216878I-1130J0D01*
G01X285224Y215748D02*
Y203937D01*
X284094Y202807D02*
G03X285224Y203937I0J1130D01*
G01X284094Y202807D02*
X280157D01*
X279028Y203937D02*
G03X280157Y202807I1129J0D01*
G01X279028Y203937D02*
Y215748D01*
X279896Y216847D02*
G03X279028Y215748I261J-1099D01*
G01X279896Y216847D02*
G03X280133Y217687I-116J487D01*
G01X278924Y218896*
G03X278571Y219042I-353J-354*
G01X278571D02*
X274816D01*
X274816D02*
G03X274384Y218291I0J-500D01*
G01X274752Y216901D02*
G03X274384Y218291I-2705J28D01*
G01X274752Y216901D02*
G03X274897Y216544I500J-5D01*
G01X275224Y215748D02*
G03X274897Y216544I-1130J0D01*
G01X275224Y215748D02*
Y203937D01*
X274406Y202851D02*
G03X275224Y203937I-312J1086D01*
G01X274406Y202851D02*
G03X274043Y202370I137J-481D01*
G01Y202047*
X273482Y200691D02*
G03X274043Y202047I-1356J1356D01*
G01X273482Y200691D02*
X271435Y198644D01*
X271147Y198408D02*
G03X271435Y198644I-1068J1592D01*
G01X271147Y198408D02*
G03X271426Y197493I279J-415D01*
G01X286208*
G03X286562Y197639I0J500*
G01X290550Y201627*
G03X290696Y201981I-354J354*
G01Y202307*
G03X290196Y202807I-500J0*
G01X290157*
X289028Y203937D02*
G03X290157Y202807I1129J0D01*
G01X289028Y203937D02*
Y215748D01*
X290157Y216878D02*
G03X289028Y215748I0J-1130D01*
G01X290157Y216878D02*
X294094D01*
X295224Y215748D02*
G03X294094Y216878I-1130J0D01*
G01X295224Y215748D02*
Y203937D01*
X294094Y202807D02*
G03X295224Y203937I0J1130D01*
G01X294094Y202807D02*
X294056D01*
G03X293556Y202307I-0J-500*
G01Y201181*
X293137Y200170D02*
G03X293556Y201181I-1011J1011D01*
G01X293137Y200170D02*
X288019Y195052D01*
X287008Y194633D02*
G03X288019Y195052I-0J1430D01*
G01X287008Y194633D02*
X251206D01*
X250671Y194737D02*
G03X251206Y194633I535J1326D01*
G01X250671Y194737D02*
G03X250131Y193919I-187J-464D01*
G01X254585Y189465*
G03X254938Y189319I353J354*
G01X270337*
G03X270665Y189442I-0J500*
G01X273740Y189774D02*
G03X270665Y189442I-1299J-2372D01*
G01X273740Y189774D02*
G03X273980Y189713I240J439D01*
G01X277012*
G03X277512Y190213I-0J500*
G01Y191732*
X278642Y192862D02*
G03X277512Y191732I-0J-1130D01*
G01X278642Y192862D02*
X284941D01*
X286071Y191732D02*
G03X284941Y192862I-1130J0D01*
G01X286071Y191732D02*
Y183858D01*
X284941Y182728D02*
G03X286071Y183858I-0J1130D01*
G01X284941Y182728D02*
X278642D01*
X277512Y183858D02*
G03X278642Y182728I1130J0D01*
G01X277512Y183858D02*
Y185378D01*
G03X277012Y185878I-500J-0*
G01X274926*
G03X274538Y185694I-0J-500*
G01X270665Y185361D02*
G03X274538Y185694I1776J2041D01*
G01X270665Y185361D02*
G03X270337Y185484I-328J-377D01*
G01X253937*
X252581Y186046D02*
G03X253937Y185484I1356J1356D01*
G01X252581Y186046D02*
X245022Y193606D01*
Y193605D02*
G03X244668Y193752I-354J-353D01*
G01X210106*
G03X209814Y192846I-0J-500*
G01X210283Y191929D02*
G03X209814Y192846I-1129J0D01*
G01X210283Y191929D02*
Y189819D01*
G03X210783Y189319I500J-0*
G01X218541*
G03X219041Y189819I0J500*
G01Y190402*
X220171Y191532D02*
G03X219041Y190402I0J-1130D01*
G01X220171Y191532D02*
X226171D01*
X227301Y190402D02*
G03X226171Y191532I-1130J-0D01*
G01X227301Y190402D02*
Y184402D01*
X226171Y183272D02*
G03X227301Y184402I0J1130D01*
G01X226171Y183272D02*
X220171D01*
X219041Y184402D02*
G03X220171Y183272I1130J-0D01*
G01X219041Y184402D02*
Y184984D01*
G03X218541Y185484I-500J0*
G01X210783*
G03X210283Y184984I0J-500*
G01Y184055*
X209154Y182925D02*
G03X210283Y184055I-0J1130D01*
G01X209154Y182925D02*
X208815D01*
G03X208315Y182425I-0J-500*
G01Y176801*
G03X209169Y176447I500J-0*
G01X209668Y176946*
X211023Y177508D02*
G03X209668Y176946I0J-1918D01*
G01X211023Y177508D02*
X217667D01*
X219023Y176946D02*
G03X217667Y177508I-1356J-1356D01*
G01X219023Y176946D02*
X220253Y175716D01*
X220815Y174360D02*
G03X220253Y175716I-1917J-0D01*
G01X220815Y174360D02*
Y173283D01*
G03X221315Y172783I500J0*
G01X226893*
G03X227362Y173110I0J500*
G01X227785Y173651D02*
G03X227362Y173110I636J-934D01*
G01X227785Y173651D02*
G03X228004Y174064I-281J413D01*
G01Y175591*
X228565Y176946D02*
G03X228004Y175591I1356J-1355D01*
G01X228565Y176946D02*
X229747Y178127D01*
X231102Y178689D02*
G03X229747Y178127I0J-1917D01*
G01X231102Y178689D02*
X234038D01*
G03X234392Y178835I0J500*
G01X234550Y178994*
G03X234697Y179348I-353J354*
G01Y182772*
G03X234197Y183272I-500J-0*
G01X233671*
X232541Y184402D02*
G03X233671Y183272I1130J-0D01*
G01X232541Y184402D02*
Y190402D01*
X233671Y191532D02*
G03X232541Y190402I0J-1130D01*
G01X233671Y191532D02*
X239671D01*
X240801Y190402D02*
G03X239671Y191532I-1130J-0D01*
G01X240801Y190402D02*
Y184402D01*
X239671Y183272D02*
G03X240801Y184402I0J1130D01*
G01X239671Y183272D02*
X239032D01*
G03X238532Y182772I-0J-500*
G01Y178346*
X237970Y176991D02*
G03X238532Y178346I-1356J1355D01*
G01X237970Y176991D02*
X236395Y175416D01*
X235039Y174854D02*
G03X236395Y175416I0J1918D01*
G01X235039Y174854D02*
X232339D01*
G03X231839Y174354I-0J-500*
G01Y174064*
G03X232057Y173651I500J-0*
G01X232493Y173075D02*
G03X232057Y173651I-1072J-358D01*
G01X232493Y173075D02*
G03X232967Y172734I474J159D01*
G01X246795*
G03X247295Y173234I0J500*
G01Y177362*
X248425Y178492D02*
G03X247295Y177362I0J-1130D01*
G01X248425Y178492D02*
X254724D01*
X255854Y177362D02*
G03X254724Y178492I-1130J0D01*
G01X255854Y177362D02*
Y173234D01*
G03X256354Y172734I500J-0*
G01X261620*
G03X261957Y172864I-0J500*
G01X262053Y168784D02*
G03X261957Y172864I1727J2082D01*
G01X262053Y168784D02*
G03X261734Y168899I-319J-385D01*
G01X256354*
G03X255854Y168399I0J-500*
G01Y163583*
X254724Y162453D02*
G03X255854Y163583I0J1130D01*
G01X254724Y162453D02*
X248425D01*
X247295Y163583D02*
G03X248425Y162453I1130J-0D01*
G01X247295Y163583D02*
Y168399D01*
G03X246795Y168899I-500J0*
G01X232967*
G03X232493Y168558I-0J-500*
G01X232186Y168085D02*
G03X232493Y168558I-765J832D01*
G01X232186Y168085D02*
G03Y167348I338J-368D01*
G01X232551Y166517D02*
G03X232186Y167348I-1130J-0D01*
G01X232551Y166517D02*
Y162717D01*
X231784Y161646D02*
G03X232551Y162717I-363J1071D01*
G01X231784Y161646D02*
G03X231445Y161173I161J-473D01*
G01Y157725*
G03X231784Y157251I500J-0*
G01X232551Y156181D02*
G03X231784Y157251I-1130J0D01*
G01X232551Y156181D02*
Y152381D01*
X232186Y151549D02*
G03X232551Y152381I-765J832D01*
G01X232186Y151549D02*
G03Y150813I338J-368D01*
G01X232551Y149981D02*
G03X232186Y150813I-1130J0D01*
G01X232551Y149981D02*
Y146181D01*
X231421Y145051D02*
G03X232551Y146181I0J1130D01*
G01X231421Y145051D02*
X228421D01*
X227291Y146181D02*
G03X228421Y145051I1130J0D01*
G01X227291Y146181D02*
Y149981D01*
X227657Y150813D02*
G03X227291Y149981I764J-832D01*
G01X227657Y150813D02*
G03Y151549I-339J368D01*
G01X227295Y152295D02*
G03X227657Y151549I1126J86D01*
G01X227295Y152295D02*
G03X226796Y152757I-499J-38D01*
G01X223932*
G03X223579Y152611I0J-500*
G01X220678Y149710*
X219600Y149264D02*
G03X220678Y149710I0J1523D01*
G01X219600Y149264D02*
X216591D01*
G03X216091Y148764I-0J-500*
G01Y147933*
X214961Y146803D02*
G03X216091Y147933I-0J1130D01*
G01X214961Y146803D02*
X213539D01*
G03X213039Y146303I0J-500*
G01Y144882*
X212593Y143805D02*
G03X213039Y144882I-1077J1077D01*
G01X212593Y143805D02*
X211363Y142574D01*
X210285Y142128D02*
G03X211363Y142574I0J1524D01*
G01X210285Y142128D02*
X200000D01*
X198923Y142574D02*
G03X200000Y142128I1077J1078D01*
G01X198923Y142574D02*
X197742Y143755D01*
X197295Y144833D02*
G03X197742Y143755I1524J-0D01*
G01X197295Y144833D02*
Y149949D01*
G03X197149Y150303I-500J0*
G01X195185Y152267*
G03X194831Y152413I-354J-354*
G01X193613*
G03X193134Y152057I-0J-500*
G01X192816Y151549D02*
G03X193134Y152057I-765J832D01*
G01X192816Y151549D02*
G03Y150813I338J-368D01*
G01X193181Y149981D02*
G03X192816Y150813I-1130J0D01*
G01X193181Y149981D02*
Y146181D01*
X192687Y145247D02*
G03X193181Y146181I-636J934D01*
G01X192687Y145247D02*
G03X192469Y144834I282J-413D01*
G01Y138009*
G03X192615Y137656I500J0*
G01X193167Y137103*
G03X193521Y136957I354J354*
G01X198856*
G03X199356Y137457I0J500*
G01Y138039*
X200486Y139169D02*
G03X199356Y138039I0J-1130D01*
G01X200486Y139169D02*
X206486D01*
X207616Y138039D02*
G03X206486Y139169I-1130J0D01*
G01X207616Y138039D02*
Y132039D01*
X206486Y130909D02*
G03X207616Y132039I0J1130D01*
G01X206486Y130909D02*
X200486D01*
X199356Y132039D02*
G03X200486Y130909I1130J0D01*
G01X199356Y132039D02*
Y132622D01*
G03X198856Y133122I-500J0*
G01X192520*
X191164Y133684D02*
G03X192520Y133122I1356J1355D01*
G01X191164Y133684D02*
X189195Y135652D01*
X188634Y137008D02*
G03X189195Y135652I1917J-0D01*
G01X188634Y137008D02*
Y144834D01*
G03X188415Y145247I-500J-0*
G01X187992Y145788D02*
G03X188415Y145247I1059J393D01*
G01X187992Y145788D02*
G03X187523Y146114I-469J-174D01*
G01X184781*
G03X184453Y145991I0J-500*
G01X181330Y145686D02*
G03X184453Y145991I1347J2345D01*
G01X181330Y145686D02*
G03X180597Y145377I-249J-433D01*
G01X180096Y144501D02*
G03X180597Y145377I-1356J1355D01*
G01X180096Y144501D02*
X177340Y141745D01*
X175984Y141183D02*
G03X177340Y141745I0J1917D01*
G01X175984Y141183D02*
X172169D01*
G03X171706Y140872I0J-500*
G01X171089Y140255D02*
G03X171706Y140872I-428J1045D01*
G01X171089Y140255D02*
G03X170778Y139792I189J-463D01*
G01Y138583*
X170216Y137227D02*
G03X170778Y138583I-1355J1356D01*
G01X170216Y137227D02*
X168679Y135689D01*
X167323Y135128D02*
G03X168679Y135689I-0J1917D01*
G01X167323Y135128D02*
X161240D01*
G03X160900Y134262I0J-500*
G01X157929Y129824D02*
G03X160900Y134262I1126J2459D01*
G01X157929Y129824D02*
G03X157260Y129174I-208J-454D01*
G01X156792Y126834D02*
G03X157260Y129174I-1477J1512D01*
G01X156792Y126834D02*
G03Y126119I350J-358D01*
G01X155837Y122558D02*
G03X156792Y126119I-522J2048D01*
G01X155837Y122558D02*
G03X155461Y122073I124J-485D01*
G01Y107087*
X155014Y106009D02*
G03X155461Y107087I-1077J1078D01*
G01X155014Y106009D02*
X152652Y103647D01*
X151575Y103201D02*
G03X152652Y103647I-0J1523D01*
G01X151575Y103201D02*
X128469D01*
G03X128082Y103016I0J-500*
G01X126688Y102113D02*
G03X128082Y103016I-704J2611D01*
G01X126688Y102113D02*
G03X126818Y101130I130J-483D01*
G01X358213*
G03X358713Y101630I-0J500*
G01Y107874*
X359044Y108673D02*
G03X358713Y107874I799J-799D01*
G01X359044Y108673D02*
X368802Y118432D01*
G03X368949Y118785I-353J353*
G01X320130Y157725D02*
Y161173D01*
G03X319791Y161646I-500J-0*
G01X319024Y162717D02*
G03X319791Y161646I1130J-0D01*
G01X319024Y162717D02*
Y166517D01*
X319389Y167348D02*
G03X319024Y166517I765J-831D01*
G01X319389Y167348D02*
G03Y168085I-339J369D01*
G01X319194Y168319D02*
G03X319389Y168085I960J598D01*
G01X319194Y168319D02*
G03X318770Y168555I-424J-264D01*
G01X315748*
X314392Y169117D02*
G03X315748Y168555I1356J1355D01*
G01X314392Y169117D02*
X313211Y170298D01*
X312650Y171654D02*
G03X313211Y170298I1917J-0D01*
G01X312650Y171654D02*
Y172017D01*
G03X312150Y172517I-500J-0*
G01X307938*
G03X307556Y171694I-0J-500*
G01X307823Y170965D02*
G03X307556Y171694I-1130J-0D01*
G01X307823Y170965D02*
Y165256D01*
X306693Y164126D02*
G03X307823Y165256I-0J1130D01*
G01X306693Y164126D02*
X304921D01*
X304648Y164159D02*
G03X304921Y164126I273J1097D01*
G01X304648Y164159D02*
G03X304407I-120J-485D01*
G01X304134Y164126D02*
G03X304407Y164159I-0J1130D01*
G01X304134Y164126D02*
X303106D01*
G03X302606Y163626I0J-500*
G01Y155272*
G03X303106Y154772I500J-0*
G01X304134*
X304407Y154738D02*
G03X304134Y154772I-273J-1096D01*
G01X304407Y154738D02*
G03X304648I121J485D01*
G01X304921Y154772D02*
G03X304648Y154738I0J-1130D01*
G01X304921Y154772D02*
X306693D01*
X307823Y153642D02*
G03X306693Y154772I-1130J-0D01*
G01X307823Y153642D02*
Y152811D01*
G03X308323Y152311I500J0*
G01X310235*
G03X310589Y152457I0J500*
G01X313490Y155358*
X314567Y155805D02*
G03X313490Y155358I-0J-1524D01*
G01X314567Y155805D02*
X318528D01*
G03X319027Y156267I0J500*
G01X319791Y157251D02*
G03X319027Y156267I363J-1070D01*
G01X319791Y157251D02*
G03X320130Y157725I-161J474D01*
G01X298772Y155272D02*
Y163626D01*
G03X298272Y164126I-500J-0*
G01X297244*
X296114Y165256D02*
G03X297244Y164126I1130J-0D01*
G01X296114Y165256D02*
Y165693D01*
G03X295614Y166193I-500J-0*
G01X290502*
X289146Y166754D02*
G03X290502Y166193I1356J1356D01*
G01X289146Y166754D02*
X287148Y168753D01*
G03X286794Y168899I-354J-354*
G01X285329*
G03X284855Y168558I0J-500*
G01X284548Y168085D02*
G03X284855Y168558I-765J832D01*
G01X284548Y168085D02*
G03Y167348I339J-368D01*
G01X284913Y166517D02*
G03X284548Y167348I-1130J-0D01*
G01X284913Y166517D02*
Y162717D01*
X284146Y161646D02*
G03X284913Y162717I-363J1071D01*
G01X284146Y161646D02*
G03X283807Y161173I161J-473D01*
G01Y157725*
G03X284146Y157251I500J-0*
G01X284913Y156181D02*
G03X284146Y157251I-1130J0D01*
G01X284913Y156181D02*
Y154013D01*
G03X285060Y153659I500J0*
G01X285081Y153639*
G03X285434Y153492I353J353*
G01X291732*
X292810Y153046D02*
G03X291732Y153492I-1078J-1077D01*
G01X292810Y153046D02*
X295261Y150595D01*
G03X296114Y150948I353J353*
G01X296114D02*
Y153642D01*
X297244Y154772D02*
G03X296114Y153642I0J-1130D01*
G01X297244Y154772D02*
X298272D01*
G03X298772Y155272I-0J500*
G01X301724Y146266D02*
Y146303D01*
G03X301224Y146803I-500J0*
G01X299803*
X299530Y146837D02*
G03X299803Y146803I273J1096D01*
G01X299530Y146837D02*
G03X299289I-121J-486D01*
G01X299016Y146803D02*
G03X299289Y146837I-0J1130D01*
G01X299016Y146803D02*
X297244D01*
X296839Y146878D02*
G03X297244Y146803I405J1055D01*
G01X296839Y146878D02*
G03X296159Y146412I-180J-466D01*
G01Y146266*
G03X296659Y145766I500J-0*
G01X301224*
G03X301724Y146266I0J500*
G01X116620Y137182D02*
G03Y137424I-485J121D01*
G01X116587Y137697D02*
G03X116620Y137424I1130J-0D01*
G01X116587Y137697D02*
Y138626D01*
G03X116087Y139126I-500J-0*
G01X114583*
G03X114083Y138626I-0J-500*
G01Y134459*
X113848Y133770D02*
G03X114083Y134459I-895J689D01*
G01X113848Y133770D02*
G03Y133160I396J-305D01*
G01X114083Y132470D02*
G03X113848Y133160I-1130J0D01*
G01X114083Y132470D02*
Y128303D01*
G03X114583Y127803I500J0*
G01X116087*
G03X116587Y128303I-0J500*
G01Y129232*
X116620Y129505D02*
G03X116587Y129232I1097J-273D01*
G01X116620Y129505D02*
G03Y129747I-485J121D01*
G01X116587Y130020D02*
G03X116620Y129747I1130J-0D01*
G01X116587Y130020D02*
Y131791D01*
X116620Y132064D02*
G03X116587Y131791I1097J-273D01*
G01X116620Y132064D02*
G03Y132306I-485J121D01*
G01X116587Y132579D02*
G03X116620Y132306I1130J-0D01*
G01X116587Y132579D02*
Y134350D01*
X116620Y134623D02*
G03X116587Y134350I1097J-273D01*
G01X116620Y134623D02*
G03Y134865I-485J121D01*
G01X116587Y135138D02*
G03X116620Y134865I1130J-0D01*
G01X116587Y135138D02*
Y136909D01*
X116620Y137182D02*
G03X116587Y136909I1097J-273D01*
G01X209992Y145720D02*
Y146303D01*
G03X209492Y146803I-500J0*
G01X208071*
X207798Y146837D02*
G03X208071Y146803I273J1096D01*
G01X207798Y146837D02*
G03X207556I-121J-486D01*
G01X207283Y146803D02*
G03X207556Y146837I0J1130D01*
G01X207283Y146803D02*
X205512D01*
X204382Y147933D02*
G03X205512Y146803I1130J0D01*
G01X204382Y147933D02*
Y153642D01*
X205512Y154772D02*
G03X204382Y153642I-0J-1130D01*
G01X205512Y154772D02*
X206539D01*
G03X207039Y155272I0J500*
G01Y163626*
G03X206539Y164126I-500J-0*
G01X205512*
X204382Y165256D02*
G03X205512Y164126I1130J-0D01*
G01X204382Y165256D02*
Y165967D01*
G03X203882Y166467I-500J0*
G01X197244*
X195749Y167087D02*
G03X197244Y166467I1495J1495D01*
G01X195749Y167087D02*
X194280Y168556D01*
G03X193926Y168702I-354J-354*
G01X193516*
G03X193067Y168421I0J-500*
G01X192816Y168085D02*
G03X193067Y168421I-765J832D01*
G01X192816Y168085D02*
G03Y167348I338J-368D01*
G01X193181Y166517D02*
G03X192816Y167348I-1130J-0D01*
G01X193181Y166517D02*
Y162717D01*
X192414Y161646D02*
G03X193181Y162717I-363J1071D01*
G01X192414Y161646D02*
G03X192075Y161173I161J-473D01*
G01Y157725*
G03X192414Y157251I500J-0*
G01X193181Y156181D02*
G03X192414Y157251I-1130J0D01*
G01X193181Y156181D02*
Y155961D01*
G03X193681Y155461I500J-0*
G01X195669*
X196747Y155014D02*
G03X195669Y155461I-1078J-1077D01*
G01X196747Y155014D02*
X199896Y151865D01*
X200343Y150787D02*
G03X199896Y151865I-1524J0D01*
G01X200343Y150787D02*
Y145675D01*
G03X200843Y145175I500J0*
G01X209447*
G03X209801Y145322I0J500*
G01X209846Y145367*
G03X209992Y145720I-354J353*
G01X228398Y157725D02*
Y161173D01*
G03X228058Y161646I-500J-0*
G01X227291Y162717D02*
G03X228058Y161646I1130J-0D01*
G01X227291Y162717D02*
Y166517D01*
X227657Y167348D02*
G03X227291Y166517I764J-831D01*
G01X227657Y167348D02*
G03Y168085I-339J369D01*
G01X227339Y168592D02*
G03X227657Y168085I1082J325D01*
G01X227339Y168592D02*
G03X226860Y168949I-479J-143D01*
G01X220079*
X218723Y169510D02*
G03X220079Y168949I1356J1356D01*
G01X218723Y169510D02*
X217542Y170691D01*
X216980Y172047D02*
G03X217542Y170691I1918J0D01*
G01X216980Y172047D02*
Y173173D01*
G03X216480Y173673I-500J0*
G01X212025*
G03X211671Y173527I-0J-500*
G01X211093Y172948*
G03X211446Y172095I353J-353*
G01X212402*
X212675Y172061D02*
G03X212402Y172095I-273J-1096D01*
G01X212675Y172061D02*
G03X212916I120J485D01*
G01X213189Y172095D02*
G03X212916Y172061I-0J-1130D01*
G01X213189Y172095D02*
X214961D01*
X216091Y170965D02*
G03X214961Y172095I-1130J-0D01*
G01X216091Y170965D02*
Y165256D01*
X214961Y164126D02*
G03X216091Y165256I-0J1130D01*
G01X214961Y164126D02*
X213189D01*
X212916Y164159D02*
G03X213189Y164126I273J1097D01*
G01X212916Y164159D02*
G03X212675I-121J-485D01*
G01X212402Y164126D02*
G03X212675Y164159I-0J1130D01*
G01X212402Y164126D02*
X211374D01*
G03X210874Y163626I0J-500*
G01Y155272*
G03X211374Y154772I500J-0*
G01X212402*
X212675Y154738D02*
G03X212402Y154772I-273J-1096D01*
G01X212675Y154738D02*
G03X212916I120J485D01*
G01X213189Y154772D02*
G03X212916Y154738I-0J-1130D01*
G01X213189Y154772D02*
X214961D01*
X216091Y153642D02*
G03X214961Y154772I-1130J-0D01*
G01X216091Y153642D02*
Y152811D01*
G03X216591Y152311I500J0*
G01X218762*
G03X219116Y152457I0J500*
G01X222017Y155358*
X223094Y155805D02*
G03X222017Y155358I0J-1524D01*
G01X223094Y155805D02*
X226796D01*
G03X227295Y156267I0J500*
G01X228058Y157251D02*
G03X227295Y156267I363J-1070D01*
G01X228058Y157251D02*
G03X228398Y157725I-160J474D01*
G01X280663Y225539D02*
G03X280793Y226522I-0J500D01*
G01X279720Y227094D02*
G03X280793Y226522I1776J2040D01*
G01X279720Y227094D02*
G03X279392Y227217I-328J-377D01*
G01X272881*
G03X272751Y226234I-0J-500*
G01X273823Y225662D02*
G03X272751Y226234I-1776J-2040D01*
G01X273823Y225662D02*
G03X274151Y225539I328J377D01*
G01X280663*
X333018Y255067D02*
G03X333325Y255962I0J500D01*
G01X332718Y256661D02*
G03X333325Y255962I2065J1182D01*
G01X332717Y256661D02*
G03X331849I-434J-248D01*
G01X331242Y255962D02*
G03X331849Y256661I-1459J1881D01*
G01X331242Y255962D02*
G03X331549Y255067I307J-395D01*
G01X333018*
X328018D02*
G03X328325Y255962I0J500D01*
G01X327718Y256661D02*
G03X328325Y255962I2065J1182D01*
G01X327717Y256661D02*
G03X326849I-434J-248D01*
G01X326242Y255962D02*
G03X326849Y256661I-1459J1881D01*
G01X326242Y255962D02*
G03X326549Y255067I307J-395D01*
G01X328018*
X339121Y279795D02*
Y280697D01*
G03X338975Y281050I-500J-0*
G01X338137Y281888*
G03X337783Y282035I-354J-353*
G01X300362*
G03X300008Y281181I-0J-500*
G01X303191Y277998*
G03X303545Y277852I354J354*
G01X320497*
G03X320995Y278314I-0J500*
G01X322122Y279358D02*
G03X320995Y278314I0J-1130D01*
G01X322122Y279358D02*
X325122D01*
X326252Y278228D02*
G03X325122Y279358I-1130J0D01*
G01X326252Y278228D02*
Y274428D01*
X325887Y273596D02*
G03X326252Y274428I-765J832D01*
G01X325887Y273596D02*
G03Y272860I338J-368D01*
G01X326252Y272028D02*
G03X325887Y272860I-1130J0D01*
G01X326252Y272028D02*
Y268228D01*
X325485Y267158D02*
G03X326252Y268228I-363J1070D01*
G01X325485Y267158D02*
G03X325146Y266685I161J-473D01*
G01Y265546*
G03X325157Y265443I500J0*
G01X325375Y264408*
G03X325677Y264048I489J104*
G01X326849Y263024D02*
G03X325677Y264048I-2066J-1181D01*
G01X326849Y263024D02*
G03X327717I434J248D01*
G01X331849D02*
G03X327718I-2066J-1181D01*
G01X331849D02*
G03X332717I434J248D01*
G01X336849D02*
G03X332718I-2066J-1181D01*
G01X336849D02*
G03X337717I434J248D01*
G01X338380Y263765D02*
G03X337718Y263024I1403J-1922D01*
G01X338380Y263765D02*
G03X338584Y264130I-295J403D01*
G01X338785Y266761*
G03X338527Y267238I-499J39*
G01X337941Y268228D02*
G03X338527Y267238I1130J0D01*
G01X337941Y268228D02*
Y272028D01*
X338306Y272860D02*
G03X337941Y272028I765J-832D01*
G01X338306Y272860D02*
G03Y273596I-338J368D01*
G01X337941Y274428D02*
G03X338306Y273596I1130J0D01*
G01X337941Y274428D02*
Y278228D01*
X338759Y279314D02*
G03X337941Y278228I312J-1086D01*
G01X338759Y279314D02*
G03X339121Y279795I-138J481D01*
G01X354280Y110000D02*
G03X354280I-4280J0D01*
G01X367815Y130000D02*
G03X367815I-7579J0D01*
G01X354768Y223771D02*
G03X354088Y227726I-2406J1623D01*
G01X354768Y223771D02*
G03X354861Y223109I415J-279D01*
G01X355264Y222244D02*
G03X354861Y223109I-1130J0D01*
G01X355264Y222244D02*
Y218701D01*
X354134Y217571D02*
G03X355264Y218701I-0J1130D01*
G01X354134Y217571D02*
X350591D01*
X349461Y218701D02*
G03X350591Y217571I1130J-0D01*
G01X349461Y218701D02*
Y222244D01*
X349864Y223109D02*
G03X349461Y222244I727J-865D01*
G01X349864Y223109D02*
G03X349956Y223771I-322J383D01*
G01X350636Y227726D02*
G03X349956Y223771I1726J-2332D01*
G01X350636Y227726D02*
G03X350839Y228128I-297J402D01*
G01Y228689*
G03X350692Y229043I-500J0*
G01X350303Y229432*
G03X349949Y229579I-354J-353*
G01X340965*
X339887Y230025D02*
G03X340965Y229579I1078J1077D01*
G01X339887Y230025D02*
X338706Y231206D01*
X338262Y232197D02*
G03X338706Y231206I1521J86D01*
G01X338262Y232197D02*
G03X338114Y232524I-499J-29D01*
G01X337718Y233039D02*
G03X338114Y232524I2065J1181D01*
G01X337717Y233039D02*
G03X336849I-434J-248D01*
G01X332718D02*
G03X336849I2065J1181D01*
G01X332717D02*
G03X331849I-434J-248D01*
G01X328635Y232136D02*
G03X331849Y233039I1148J2084D01*
G01X328635Y232136D02*
G03X328040Y231344I-241J-438D01*
G01X330490Y228895*
X330957Y228134D02*
G03X330490Y228895I-1823J-595D01*
G01X330957Y228134D02*
G03X331325Y227801I475J155D01*
G01X331915Y227462D02*
G03X331325Y227801I-832J-765D01*
G01X331915Y227462D02*
G03X332652I368J338D01*
G01X333483Y227827D02*
G03X332652Y227462I0J-1130D01*
G01X333483Y227827D02*
X337283D01*
X338413Y226697D02*
G03X337283Y227827I-1130J-0D01*
G01X338413Y226697D02*
Y223697D01*
X337283Y222567D02*
G03X338413Y223697I0J1130D01*
G01X337283Y222567D02*
X333483D01*
X332652Y222932D02*
G03X333483Y222567I831J765D01*
G01X332652Y222932D02*
G03X331915I-369J-338D01*
G01X331135Y222568D02*
G03X331915Y222932I-52J1129D01*
G01X331135Y222568D02*
G03X330658Y222069I23J-499D01*
G01X330658D02*
Y221317D01*
X330096Y219961D02*
G03X330658Y221317I-1356J1356D01*
G01X330096Y219961D02*
X329044Y218909D01*
G03X329132Y218131I353J-354*
G01X329663Y217173D02*
G03X329132Y218131I-1130J0D01*
G01X329663Y217173D02*
Y211696D01*
G03X330003Y211223I500J0*
G01X330910Y210702D02*
G03X330003Y211223I-1776J-2041D01*
G01X330910Y210702D02*
G03X331238Y210579I328J377D01*
G01X334406*
G03X334905Y211108I0J500*
G01X334904Y211173D02*
G03X334905Y211108I1129J0D01*
G01X334904Y211173D02*
Y217173D01*
X336033Y218303D02*
G03X334904Y217173I0J-1130D01*
G01X336033Y218303D02*
X342033D01*
X343163Y217173D02*
G03X342033Y218303I-1130J0D01*
G01X343163Y217173D02*
Y211173D01*
X342903Y210451D02*
G03X343163Y211173I-870J722D01*
G01X342903Y210451D02*
G03X342934Y209778I384J-319D01*
G01X343364Y209347*
G03X343718Y209201I354J354*
G01X349969*
G03X350321Y209345I0J500*
G01X354366Y205185D02*
G03X350321Y209345I-2004J2098D01*
G01X354366Y205185D02*
G03Y204461I345J-362D01*
G01Y200263D02*
G03Y204461I-2004J2099D01*
G01Y200263D02*
G03Y199540I345J-361D01*
G01Y195342D02*
G03Y199540I-2004J2099D01*
G01Y195342D02*
G03Y194619I345J-362D01*
G01Y190421D02*
G03Y194619I-2004J2099D01*
G01Y190421D02*
G03Y189697I345J-362D01*
G01X354768Y185976D02*
G03X354366Y189697I-2406J1622D01*
G01X354768Y185976D02*
G03X354861Y185314I415J-279D01*
G01X355264Y184449D02*
G03X354861Y185314I-1130J-0D01*
G01X355264Y184449D02*
Y180906D01*
X354134Y179776D02*
G03X355264Y180906I-0J1130D01*
G01X354134Y179776D02*
X350591D01*
X349461Y180906D02*
G03X350591Y179776I1130J-0D01*
G01X349461Y180906D02*
Y184449D01*
X349864Y185314D02*
G03X349461Y184449I727J-865D01*
G01X349864Y185314D02*
G03X349956Y185976I-322J383D01*
G01X350359Y189697D02*
G03X349956Y185976I2003J-2099D01*
G01X350359Y189697D02*
G03Y190421I-345J362D01*
G01Y194619D02*
G03Y190421I2003J-2099D01*
G01Y194619D02*
G03Y195342I-345J361D01*
G01Y199540D02*
G03Y195342I2003J-2099D01*
G01Y199540D02*
G03Y200263I-345J362D01*
G01X350030Y200636D02*
G03X350359Y200263I2332J1726D01*
G01X350030Y200636D02*
G03X349628Y200839I-402J-297D01*
G01X341879*
X340802Y201285D02*
G03X341879Y200839I1077J1077D01*
G01X340802Y201285D02*
X340441Y201645D01*
G03X340088Y201792I-353J-353*
G01X335351*
G03X334995Y201643I0J-500*
G01X331615Y205823D02*
G03X334995Y201643I1456J-2280D01*
G01X331615Y205823D02*
G03X331346Y206744I-269J421D01*
G01X331238*
G03X330910Y206621I-0J-500*
G01X328135Y206148D02*
G03X330910Y206621I999J2513D01*
G01X328135Y206148D02*
G03X327451Y205683I-184J-465D01*
G01Y201509*
G03X327597Y201156I500J0*
G01X329702Y199051*
X330264Y197695D02*
G03X329702Y199051I-1918J-0D01*
G01X330264Y197695D02*
Y192032D01*
G03X330764Y191532I500J-0*
G01X331404*
X332533Y190402D02*
G03X331404Y191532I-1129J-0D01*
G01X332533Y190402D02*
Y184402D01*
X331404Y183272D02*
G03X332533Y184402I-0J1130D01*
G01X331404Y183272D02*
X331158D01*
X331158D02*
G03X330658Y182772I-0J-500D01*
G01X330658D02*
Y178740D01*
X330096Y177384D02*
G03X330658Y178740I-1356J1356D01*
G01X330096Y177384D02*
X328915Y176203D01*
X327559Y175642D02*
G03X328915Y176203I0J1917D01*
G01X327559Y175642D02*
X324623D01*
G03X324270Y175495I0J-500*
G01X323717Y174943*
G03X323571Y174589I354J-354*
G01Y174064*
G03X323789Y173651I500J-0*
G01X324225Y173075D02*
G03X323789Y173651I-1071J-358D01*
G01X324225Y173075D02*
G03X324699Y172734I474J159D01*
G01X328346*
X329702Y172172D02*
G03X328346Y172734I-1356J-1355D01*
G01X329702Y172172D02*
X329732Y172143D01*
G03X330086Y171996I354J353*
G01X336953*
G03X337453Y172496I-0J500*
G01Y176969*
X338583Y178098D02*
G03X337453Y176969I-0J-1129D01*
G01X338583Y178098D02*
X344882D01*
X346012Y176969D02*
G03X344882Y178098I-1130J-0D01*
G01X346012Y176969D02*
Y163189D01*
X344882Y162059D02*
G03X346012Y163189I-0J1130D01*
G01X344882Y162059D02*
X338583D01*
X337453Y163189D02*
G03X338583Y162059I1130J-0D01*
G01X337453Y163189D02*
Y167661D01*
G03X336953Y168161I-500J0*
G01X329084*
X327728Y168723D02*
G03X329084Y168161I1356J1356D01*
G01X327728Y168723D02*
X327699Y168753D01*
G03X327345Y168899I-354J-354*
G01X324699*
G03X324225Y168558I0J-500*
G01X323918Y168085D02*
G03X324225Y168558I-764J832D01*
G01X323918Y168085D02*
G03Y167348I339J-368D01*
G01X324283Y166517D02*
G03X323918Y167348I-1129J-0D01*
G01X324283Y166517D02*
Y162717D01*
X323517Y161646D02*
G03X324283Y162717I-363J1071D01*
G01X323517Y161646D02*
G03X323177Y161173I160J-473D01*
G01Y157725*
G03X323517Y157251I500J-0*
G01X324283Y156181D02*
G03X323517Y157251I-1129J0D01*
G01X324283Y156181D02*
Y152381D01*
X323918Y151549D02*
G03X324283Y152381I-764J832D01*
G01X323918Y151549D02*
G03Y150813I339J-368D01*
G01X324283Y149981D02*
G03X323918Y150813I-1129J0D01*
G01X324283Y149981D02*
Y146181D01*
X323154Y145051D02*
G03X324283Y146181I-0J1130D01*
G01X323154Y145051D02*
X320154D01*
X319024Y146181D02*
G03X320154Y145051I1130J0D01*
G01X319024Y146181D02*
Y149981D01*
X319389Y150813D02*
G03X319024Y149981I765J-832D01*
G01X319389Y150813D02*
G03Y151549I-339J368D01*
G01X319027Y152295D02*
G03X319389Y151549I1127J86D01*
G01X319027Y152295D02*
G03X318528Y152757I-499J-38D01*
G01X315405*
G03X315052Y152611I0J-500*
G01X312151Y149710*
X311073Y149264D02*
G03X312151Y149710I0J1523D01*
G01X311073Y149264D02*
X308323D01*
G03X307823Y148764I-0J-500*
G01Y147933*
X306693Y146803D02*
G03X307823Y147933I-0J1130D01*
G01X306693Y146803D02*
X305272D01*
G03X304772Y146303I-0J-500*
G01Y145276*
X304325Y144198D02*
G03X304772Y145276I-1077J1078D01*
G01X304325Y144198D02*
X303292Y143165D01*
X302215Y142718D02*
G03X303292Y143165I-0J1524D01*
G01X302215Y142718D02*
X295817D01*
X294740Y143165D02*
G03X295817Y142718I1077J1077D01*
G01X294740Y143165D02*
X293558Y144346D01*
X293112Y145423D02*
G03X293558Y144346I1524J0D01*
G01X293112Y145423D02*
Y148227D01*
G03X292966Y148580I-500J-0*
G01X291248Y150298*
G03X290894Y150445I-354J-353*
G01X285413*
G03X284913Y149945I0J-500*
G01Y146181*
X284419Y145247D02*
G03X284913Y146181I-636J934D01*
G01X284419Y145247D02*
G03X284201Y144834I282J-413D01*
G01Y137615*
G03X284347Y137262I500J0*
G01X284900Y136709*
G03X285253Y136563I353J354*
G01X290589*
G03X291089Y137063I-0J500*
G01Y137646*
X292219Y138776D02*
G03X291089Y137646I-0J-1130D01*
G01X292219Y138776D02*
X298219D01*
X299348Y137646D02*
G03X298219Y138776I-1129J-0D01*
G01X299348Y137646D02*
Y131646D01*
X298219Y130516D02*
G03X299348Y131646I-0J1130D01*
G01X298219Y130516D02*
X297636D01*
G03X297136Y130016I-0J-500*
G01Y126080*
G03X297282Y125726I500J-0*
G01X298504Y124505*
G03X298857Y124358I353J353*
G01X299952*
G03X300365Y124577I-0J500*
G01X301299Y125071D02*
G03X300365Y124577I0J-1130D01*
G01X301299Y125071D02*
X305099D01*
X305931Y124706D02*
G03X305099Y125071I-832J-765D01*
G01X305931Y124706D02*
G03X306667I368J338D01*
G01X307499Y125071D02*
G03X306667Y124706I0J-1130D01*
G01X307499Y125071D02*
X311299D01*
X312389Y124239D02*
G03X311299Y125071I-1090J-298D01*
G01X312389Y124239D02*
G03X312871Y123871I482J132D01*
G01X316459*
G03X316942Y124239I0J500*
G01X318031Y125071D02*
G03X316942Y124239I0J-1130D01*
G01X318031Y125071D02*
X321831D01*
X322663Y124706D02*
G03X321831Y125071I-832J-765D01*
G01X322663Y124706D02*
G03X323400I368J338D01*
G01X324231Y125071D02*
G03X323400Y124706I0J-1130D01*
G01X324231Y125071D02*
X328031D01*
X329161Y123941D02*
G03X328031Y125071I-1130J-0D01*
G01X329161Y123941D02*
Y120941D01*
X328031Y119811D02*
G03X329161Y120941I0J1130D01*
G01X328031Y119811D02*
X324231D01*
X323400Y120176D02*
G03X324231Y119811I831J765D01*
G01X323400Y120176D02*
G03X322663I-369J-338D01*
G01X321878Y119812D02*
G03X322663Y120176I-47J1129D01*
G01X321878Y119812D02*
G03X321399Y119306I21J-500D01*
G01X321430Y116681*
Y116664D02*
G03Y116681I-1430J-0D01*
G01Y116664D02*
Y114373D01*
G03X321728Y113915I500J-0*
G01X318272D02*
G03X321728I1728J-3915D01*
G01X318272D02*
G03X318570Y114373I-202J458D01*
G01Y116652*
G03Y116658I-500J0*
G01X318538Y119317*
G03X318039Y119811I-499J-6*
G01X318031*
X316942Y120643D02*
G03X318031Y119811I1089J298D01*
G01X316942Y120643D02*
G03X316459Y121011I-483J-132D01*
G01X312871*
G03X312389Y120643I0J-500*
G01X311299Y119811D02*
G03X312389Y120643I0J1130D01*
G01X311299Y119811D02*
X307499D01*
X306667Y120176D02*
G03X307499Y119811I832J765D01*
G01X306667Y120176D02*
G03X305931I-368J-338D01*
G01X305099Y119811D02*
G03X305931Y120176I0J1130D01*
G01X305099Y119811D02*
X301299D01*
X300365Y120305D02*
G03X301299Y119811I934J636D01*
G01X300365Y120305D02*
G03X299952Y120524I-413J-281D01*
G01X297856*
X296500Y121085D02*
G03X297856Y120524I1356J1356D01*
G01X296500Y121085D02*
X293863Y123722D01*
X293301Y125078D02*
G03X293863Y123722I1918J0D01*
G01X293301Y125078D02*
Y130016D01*
G03X292801Y130516I-500J-0*
G01X292219*
X291089Y131646D02*
G03X292219Y130516I1130J-0D01*
G01X291089Y131646D02*
Y132228D01*
G03X290589Y132728I-500J0*
G01X284252*
X282896Y133290D02*
G03X284252Y132728I1356J1356D01*
G01X282896Y133290D02*
X280928Y135258D01*
X280366Y136614D02*
G03X280928Y135258I1917J0D01*
G01X280366Y136614D02*
Y144834D01*
G03X280148Y145247I-500J-0*
G01X279724Y145788D02*
G03X280148Y145247I1059J393D01*
G01X279724Y145788D02*
G03X279255Y146114I-469J-174D01*
G01X274545*
G03X274217Y145991I-0J-500*
G01Y150072D02*
G03Y145991I-1776J-2041D01*
G01Y150072D02*
G03X274545Y149949I328J377D01*
G01X279222*
G03X279701Y150305I0J500*
G01X280019Y150813D02*
G03X279701Y150305I764J-832D01*
G01X280019Y150813D02*
G03Y151549I-339J368D01*
G01X279654Y152381D02*
G03X280019Y151549I1129J0D01*
G01X279654Y152381D02*
Y156181D01*
X280420Y157251D02*
G03X279654Y156181I363J-1070D01*
G01X280420Y157251D02*
G03X280760Y157725I-160J474D01*
G01Y161173*
G03X280420Y161646I-500J-0*
G01X279654Y162717D02*
G03X280420Y161646I1129J-0D01*
G01X279654Y162717D02*
Y166517D01*
X280019Y167348D02*
G03X279654Y166517I764J-831D01*
G01X280019Y167348D02*
G03Y168085I-339J369D01*
G01X279654Y168917D02*
G03X280019Y168085I1129J-0D01*
G01X279654Y168917D02*
Y172717D01*
X280783Y173846D02*
G03X279654Y172717I0J-1129D01*
G01X280783Y173846D02*
X283783D01*
X284855Y173075D02*
G03X283783Y173846I-1072J-358D01*
G01X284855Y173075D02*
G03X285329Y172734I474J159D01*
G01X287795*
X289151Y172172D02*
G03X287795Y172734I-1356J-1355D01*
G01X289151Y172172D02*
X291149Y170174D01*
G03X291503Y170028I354J354*
G01X295614*
G03X296114Y170528I0J500*
G01Y170965*
X296182Y171351D02*
G03X296114Y170965I1062J-386D01*
G01X296182Y171351D02*
G03X296213Y171522I-469J171D01*
G01Y182425*
G03X295713Y182925I-500J0*
G01X294587*
X293457Y184055D02*
G03X294587Y182925I1130J0D01*
G01X293457Y184055D02*
Y191929D01*
X294587Y193059D02*
G03X293457Y191929I-0J-1130D01*
G01X294587Y193059D02*
X300886D01*
X302016Y191929D02*
G03X300886Y193059I-1130J0D01*
G01X302016Y191929D02*
Y190409D01*
G03X302516Y189909I500J0*
G01X310274*
G03X310774Y190407I-0J500*
G01X311904Y191532D02*
G03X310774Y190407I-0J-1130D01*
G01X311904Y191532D02*
X317904D01*
X319033Y190402D02*
G03X317904Y191532I-1129J-0D01*
G01X319033Y190402D02*
Y184402D01*
X317904Y183272D02*
G03X319033Y184402I-0J1130D01*
G01X317904Y183272D02*
X311904D01*
X310774Y184402D02*
G03X311904Y183272I1130J-0D01*
G01X310774Y184402D02*
Y185575D01*
G03X310274Y186075I-500J-0*
G01X302516*
G03X302016Y185575I-0J-500*
G01Y184055*
X300886Y182925D02*
G03X302016Y184055I-0J1130D01*
G01X300886Y182925D02*
X300547D01*
G03X300047Y182425I0J-500*
G01Y176441*
G03X300826Y176026I500J-0*
G01X301894Y176351D02*
G03X300826Y176026I0J-1917D01*
G01X301894Y176351D02*
X313386D01*
X314742Y175790D02*
G03X313386Y176351I-1356J-1356D01*
G01X314742Y175790D02*
X315923Y174609D01*
X316484Y173253D02*
G03X315923Y174609I-1917J-0D01*
G01X316484Y173253D02*
Y172890D01*
G03X316984Y172390I500J-0*
G01X318533*
G03X319030Y172837I-0J500*
G01X319518Y173651D02*
G03X319030Y172837I636J-934D01*
G01X319518Y173651D02*
G03X319736Y174064I-282J413D01*
G01Y175591*
X320298Y176946D02*
G03X319736Y175591I1356J-1355D01*
G01X320298Y176946D02*
X322266Y178915D01*
X323622Y179476D02*
G03X322266Y178915I0J-1917D01*
G01X323622Y179476D02*
X326323D01*
G03X326823Y179976I-0J500*
G01Y182772*
G03X326323Y183272I-500J-0*
G01X325404*
X324274Y184402D02*
G03X325404Y183272I1130J-0D01*
G01X324274Y184402D02*
Y190402D01*
X325404Y191532D02*
G03X324274Y190402I-0J-1130D01*
G01X325404Y191532D02*
X325929D01*
G03X326429Y192032I0J500*
G01Y196694*
G03X326283Y197047I-500J-0*
G01X324178Y199152*
X323616Y200508D02*
G03X324178Y199152I1917J-0D01*
G01X323616Y200508D02*
Y209543D01*
G03X323116Y210043I-500J0*
G01X322533*
X321404Y211173D02*
G03X322533Y210043I1129J0D01*
G01X321404Y211173D02*
Y217173D01*
X322533Y218303D02*
G03X321404Y217173I0J-1130D01*
G01X322533Y218303D02*
X323218D01*
G03X323697Y218660I-0J500*
G01X324178Y219466D02*
G03X323697Y218660I1355J-1356D01*
G01X324178Y219466D02*
X326676Y221965D01*
G03X326823Y222318I-353J353*
G01Y222380*
G03X326618Y222784I-500J0*
G01X326154Y223697D02*
G03X326618Y222784I1129J-0D01*
G01X326154Y223697D02*
Y226697D01*
X326274Y227204D02*
G03X326154Y226697I1009J-507D01*
G01X326274Y227204D02*
G03X326180Y227781I-447J224D01*
G01X323428Y230534*
X322866Y231890D02*
G03X323428Y230534I1917J-0D01*
G01X322866Y231890D02*
Y232655D01*
G03X322786Y232927I-500J0*
G01X322404Y234220D02*
G03X322786Y232927I2379J0D01*
G01X322404Y234220D02*
Y238220D01*
X326849Y239402D02*
G03X322404Y238220I-2066J-1182D01*
G01X326849Y239402D02*
G03X327717I434J248D01*
G01X328111Y239914D02*
G03X327718Y239402I1672J-1694D01*
G01X328111Y239914D02*
G03X328260Y240270I-351J356D01*
G01Y242913*
X328706Y243991D02*
G03X328260Y242913I1077J-1078D01*
G01X328706Y243991D02*
X330281Y245566D01*
X331358Y246012D02*
G03X330281Y245566I0J-1524D01*
G01X331358Y246012D02*
X335310D01*
G03X335698Y246196I0J500*
G01Y242780D02*
G03Y246196I2097J1708D01*
G01Y242780D02*
G03X335310Y242965I-388J-315D01*
G01X332196*
G03X331843Y242818I0J-500*
G01X331454Y242429*
G03X331307Y242075I353J-354*
G01Y240270*
G03X331456Y239914I500J-0*
G01X331849Y239402D02*
G03X331456Y239914I-2066J-1182D01*
G01X331849Y239402D02*
G03X332717I434J248D01*
G01X336849D02*
G03X332718I-2066J-1182D01*
G01X336849D02*
G03X337717I434J248D01*
G01X342163Y238220D02*
G03X337718Y239402I-2380J0D01*
G01X342163Y238220D02*
Y234220D01*
X341985Y233316D02*
G03X342163Y234220I-2202J904D01*
G01X341985Y233316D02*
G03X342447Y232626I462J-190D01*
G01X350787*
X351865Y232180D02*
G03X350787Y232626I-1078J-1078D01*
G01X351865Y232180D02*
X353440Y230605D01*
X353886Y229528D02*
G03X353440Y230605I-1524J-0D01*
G01X353886Y229528D02*
Y228128D01*
G03X354088Y227726I500J-0*
G01X367815Y240000D02*
G03X367815I-7579J0D01*
G01X264280Y110000D02*
G03X264280I-4280J0D01*
G01X254280D02*
G03X254280I-4280J0D01*
G01X255854Y156890D02*
Y143110D01*
X254724Y141980D02*
G03X255854Y143110I0J1130D01*
G01X254724Y141980D02*
X248425D01*
X247295Y143110D02*
G03X248425Y141980I1130J0D01*
G01X247295Y143110D02*
Y156890D01*
X248425Y158020D02*
G03X247295Y156890I0J-1130D01*
G01X248425Y158020D02*
X254724D01*
X255854Y156890D02*
G03X254724Y158020I-1130J-0D01*
G01X237836Y113692D02*
G03X242164I2164J-3692D01*
G01X237836D02*
G03X238083Y114123I-253J431D01*
G01Y114904*
G03X237936Y115258I-500J0*
G01X237148Y116046*
G03X236794Y116193I-354J-353*
G01X175984*
X174628Y116754D02*
G03X175984Y116193I1356J1356D01*
G01X174628Y116754D02*
X172266Y119117D01*
X171705Y120472D02*
G03X172266Y119117I1917J0D01*
G01X171705Y120472D02*
Y122305D01*
G03X171582Y122634I-500J0*
G01X175662D02*
G03X171582I-2040J1775D01*
G01X175662D02*
G03X175539Y122305I377J-329D01*
G01Y121474*
G03X175686Y121120I500J-0*
G01X176632Y120174*
G03X176986Y120028I354J354*
G01X237795*
X239151Y119466D02*
G03X237795Y120028I-1356J-1356D01*
G01X239151Y119466D02*
X241356Y117261D01*
X241917Y115906D02*
G03X241356Y117261I-1917J-0D01*
G01X241917Y115906D02*
Y114123D01*
G03X242164Y113692I500J0*
G01X221116Y138039D02*
Y132039D01*
X219986Y130909D02*
G03X221116Y132039I0J1130D01*
G01X219986Y130909D02*
X213986D01*
X212856Y132039D02*
G03X213986Y130909I1130J0D01*
G01X212856Y132039D02*
Y138039D01*
X213986Y139169D02*
G03X212856Y138039I0J-1130D01*
G01X213986Y139169D02*
X219986D01*
X221116Y138039D02*
G03X219986Y139169I-1130J0D01*
G01X167760Y113142D02*
G03X162949I-2406J1622D01*
G01X167760D02*
G03X167853Y112479I415J-280D01*
G01X168256Y111614D02*
G03X167853Y112479I-1130J0D01*
G01X168256Y111614D02*
Y108071D01*
X167126Y106941D02*
G03X168256Y108071I-0J1130D01*
G01X167126Y106941D02*
X163583D01*
X162453Y108071D02*
G03X163583Y106941I1130J-0D01*
G01X162453Y108071D02*
Y111614D01*
X162856Y112479D02*
G03X162453Y111614I727J-865D01*
G01X162856Y112479D02*
G03X162949Y113142I-322J383D01*
G01X234280Y110000D02*
G03X234280I-4280J0D01*
G01X224280D02*
G03X224280I-4280J0D01*
G01X214280Y113150D02*
Y106850D01*
X213150Y105720D02*
G03X214280Y106850I-0J1130D01*
G01X213150Y105720D02*
X206850D01*
X205720Y106850D02*
G03X206850Y105720I1130J0D01*
G01X205720Y106850D02*
Y113150D01*
X206850Y114280D02*
G03X205720Y113150I0J-1130D01*
G01X206850Y114280D02*
X213150D01*
X214280Y113150D02*
G03X213150Y114280I-1130J-0D01*
G01X274280Y110000D02*
G03X274280I-4280J0D01*
G01X284280D02*
G03X284280I-4280J0D01*
G01X314280D02*
G03X314280I-4280J0D01*
G01X304280Y113150D02*
Y106850D01*
X303150Y105720D02*
G03X304280Y106850I-0J1130D01*
G01X303150Y105720D02*
X296850D01*
X295720Y106850D02*
G03X296850Y105720I1130J0D01*
G01X295720Y106850D02*
Y113150D01*
X296850Y114280D02*
G03X295720Y113150I0J-1130D01*
G01X296850Y114280D02*
X303150D01*
X304280Y113150D02*
G03X303150Y114280I-1130J-0D01*
G01X334280Y110000D02*
G03X334280I-4280J0D01*
G01X312848Y137646D02*
Y131646D01*
X311719Y130516D02*
G03X312848Y131646I-0J1130D01*
G01X311719Y130516D02*
X305719D01*
X304589Y131646D02*
G03X305719Y130516I1130J-0D01*
G01X304589Y131646D02*
Y137646D01*
X305719Y138776D02*
G03X304589Y137646I-0J-1130D01*
G01X305719Y138776D02*
X311719D01*
X312848Y137646D02*
G03X311719Y138776I-1129J-0D01*
G01X344280Y110000D02*
G03X344280I-4280J0D01*
G01X346012Y156496D02*
Y142717D01*
X344882Y141587D02*
G03X346012Y142717I-0J1130D01*
G01X344882Y141587D02*
X338583D01*
X337453Y142717D02*
G03X338583Y141587I1130J-0D01*
G01X337453Y142717D02*
Y156496D01*
X338583Y157626D02*
G03X337453Y156496I-0J-1130D01*
G01X338583Y157626D02*
X344882D01*
X346012Y156496D02*
G03X344882Y157626I-1130J0D01*
G01X354280Y298819D02*
G03X354280I-4280J0D01*
G01X344280D02*
G03X344280I-4280J0D01*
G01X334280D02*
G03X334280I-4280J0D01*
G01X324280D02*
G03X324280I-4280J0D01*
G01X314280D02*
G03X314280I-4280J0D01*
G01X304280D02*
G03X304280I-4280J0D01*
G01X294280D02*
G03X294280I-4280J0D01*
G01X284280Y301969D02*
Y295669D01*
X283150Y294539D02*
G03X284280Y295669I-0J1130D01*
G01X283150Y294539D02*
X276850D01*
X275720Y295669D02*
G03X276850Y294539I1130J0D01*
G01X275720Y295669D02*
Y301969D01*
X276850Y303098D02*
G03X275720Y301969I0J-1129D01*
G01X276850Y303098D02*
X283150D01*
X284280Y301969D02*
G03X283150Y303098I-1130J-0D01*
G01X268295Y298819D02*
G03X268295I-4279J0D01*
G01X258295D02*
G03X258295I-4279J0D01*
G01X243295Y288976D02*
Y282677D01*
X242165Y281547D02*
G03X243295Y282677I0J1130D01*
G01X242165Y281547D02*
X235866D01*
X234736Y282677D02*
G03X235866Y281547I1130J0D01*
G01X234736Y282677D02*
Y288976D01*
X235866Y290106D02*
G03X234736Y288976I0J-1130D01*
G01X235866Y290106D02*
X242165D01*
X243295Y288976D02*
G03X242165Y290106I-1130J0D01*
G01X248295Y298819D02*
G03X248295I-4279J0D01*
G01X233295Y285827D02*
G03X233295I-4279J0D01*
G01X238295Y298819D02*
G03X238295I-4279J0D01*
G01X228295D02*
G03X228295I-4279J0D01*
G01X209233Y248090D02*
G03Y251714I3877J1812D01*
G01Y248090D02*
G03X208780Y248378I-453J-212D01*
G01X201575*
X200497Y248824D02*
G03X201575Y248378I1078J1078D01*
G01X200497Y248824D02*
X198046Y251275D01*
G03X197193Y250922I-353J-353*
G01Y243102*
G03X197339Y242748I500J0*
G01X198516Y241572*
G03X198870Y241425I354J353*
G01X208780*
G03X209233Y241714I0J500*
G01Y238090D02*
G03Y241714I3877J1812D01*
G01Y238090D02*
G03X208780Y238378I-453J-212D01*
G01X198031*
X196954Y238824D02*
G03X198031Y238378I1077J1078D01*
G01X196954Y238824D02*
X194592Y241186D01*
X194146Y242264D02*
G03X194592Y241186I1523J-0D01*
G01X194146Y242264D02*
Y280658D01*
G03X193999Y281011I-500J-0*
G01X192429Y282582*
G03X192075Y282728I-354J-354*
G01X176772*
X175694Y283175D02*
G03X176772Y282728I1078J1077D01*
G01X175694Y283175D02*
X172938Y285930D01*
X172492Y287008D02*
G03X172938Y285930I1524J-0D01*
G01X172492Y287008D02*
Y294039D01*
G03X171992Y294539I-500J0*
G01X170866*
X169736Y295669D02*
G03X170866Y294539I1130J0D01*
G01X169736Y295669D02*
Y301969D01*
X170866Y303098D02*
G03X169736Y301969I0J-1129D01*
G01X170866Y303098D02*
X177165D01*
X178295Y301969D02*
G03X177165Y303098I-1130J-0D01*
G01X178295Y301969D02*
Y295669D01*
X177165Y294539D02*
G03X178295Y295669I0J1130D01*
G01X177165Y294539D02*
X176039D01*
G03X175539Y294039I0J-500*
G01Y287846*
G03X175686Y287493I500J0*
G01X177256Y285922*
G03X177610Y285776I354J354*
G01X185482*
G03X185762Y286690I-0J500*
G01X185537Y286875D02*
G03X185762Y286690I1077J1078D01*
G01X185537Y286875D02*
X182938Y289474D01*
X182492Y290551D02*
G03X182938Y289474I1524J0D01*
G01X182492Y290551D02*
Y294489D01*
G03X182204Y294942I-500J-0*
G01X185828D02*
G03X182204I-1812J3877D01*
G01X185828D02*
G03X185539Y294489I211J-453D01*
G01Y291389*
G03X185686Y291036I500J0*
G01X187099Y289623*
G03X187452Y289476I353J353*
G01X195512*
X196589Y289030D02*
G03X195512Y289476I-1077J-1077D01*
G01X196589Y289030D02*
X199896Y285723D01*
X200343Y284646D02*
G03X199896Y285723I-1524J-0D01*
G01X200343Y284646D02*
Y253496D01*
G03X200489Y253142I500J-0*
G01X202059Y251572*
G03X202413Y251425I354J353*
G01X208780*
G03X209233Y251714I0J500*
G01X217390Y259902D02*
G03X217390I-4280J0D01*
G01Y269902D02*
G03X217390I-4280J0D01*
G01Y279902D02*
G03X217390I-4280J0D01*
G01X218295Y298819D02*
G03X218295I-4279J0D01*
G01X208295D02*
G03X208295I-4279J0D01*
G01X198295D02*
G03X198295I-4279J0D01*
G01X167579D02*
G03X167579I-7579J0D01*
G01X147309Y256230D02*
G03X140880I-3215J2825D01*
G01X147309D02*
G03X147550Y255419I376J-330D01*
G01X148374Y254331D02*
G03X147549Y255419I-1130J-0D01*
G01X148374Y254331D02*
Y248031D01*
X147550Y246944D02*
G03X148374Y248031I-306J1087D01*
G01X147550Y246944D02*
G03X147309Y246132I135J-482D01*
G01X140880D02*
G03X147309I3214J-2825D01*
G01X140880D02*
G03X140639Y246944I-376J330D01*
G01X139815Y248031D02*
G03X140639Y246944I1130J0D01*
G01X139815Y248031D02*
Y254331D01*
X140639Y255419D02*
G03X139815Y254331I306J-1088D01*
G01X140639Y255419D02*
G03X140880Y256230I-135J481D01*
G01X135776Y221654D02*
G03X135776I-4280J0D01*
G01X138532Y237795D02*
Y231496D01*
X137402Y230366D02*
G03X138532Y231496I-0J1130D01*
G01X137402Y230366D02*
X125591D01*
X124461Y231496D02*
G03X125591Y230366I1130J0D01*
G01X124461Y231496D02*
Y237795D01*
X125591Y238925D02*
G03X124461Y237795I-0J-1130D01*
G01X125591Y238925D02*
X137402D01*
X138532Y237795D02*
G03X137402Y238925I-1130J0D01*
G01X144437Y270079D02*
G03X144437I-4673J0D01*
G01Y297638D02*
G03X144437I-4673J0D01*
G01X134201Y275000D02*
G03X134201I-4280J0D01*
G01Y292717D02*
G03X134201I-4280J0D01*
G01X134988Y156299D02*
Y151575D01*
X133858Y150445D02*
G03X134988Y151575I0J1130D01*
G01X133858Y150445D02*
X129134D01*
X128004Y151575D02*
G03X129134Y150445I1130J-0D01*
G01X128004Y151575D02*
Y156299D01*
X129134Y157429D02*
G03X128004Y156299I-0J-1130D01*
G01X129134Y157429D02*
X133858D01*
X134988Y156299D02*
G03X133858Y157429I-1130J0D01*
G01X138532Y188189D02*
Y181890D01*
X137402Y180760D02*
G03X138532Y181890I-0J1130D01*
G01X137402Y180760D02*
X134436D01*
G03X134068Y179922I-0J-500*
G01X128924D02*
G03X134068I2572J-2363D01*
G01X128924D02*
G03X128556Y180760I-368J338D01*
G01X125591*
X124461Y181890D02*
G03X125591Y180760I1130J-0D01*
G01X124461Y181890D02*
Y188189D01*
X125591Y189319D02*
G03X124461Y188189I-0J-1130D01*
G01X125591Y189319D02*
X137402D01*
X138532Y188189D02*
G03X137402Y189319I-1130J-0D01*
G01X143504Y122492D02*
G03Y126720I-0J2114D01*
G01Y122492D02*
X140748D01*
X139410Y122970D02*
G03X140748Y122492I1338J1636D01*
G01X139410Y122970D02*
G03X139093Y123083I-317J-387D01*
G01X138043*
G03X137689Y122936I-0J-500*
G01X137642Y122889*
X136565Y122443D02*
G03X137642Y122889I-0J1523D01*
G01X136565Y122442D02*
X135015D01*
X135015D02*
G03X134516Y121980I0J-500D01*
G01X134154Y121234D02*
G03X134516Y121980I-764J832D01*
G01X134154Y121234D02*
G03Y120498I339J-368D01*
G01X134520Y119666D02*
G03X134154Y120498I-1130J0D01*
G01X134520Y119666D02*
Y115866D01*
X133390Y114736D02*
G03X134520Y115866I-0J1130D01*
G01X133390Y114736D02*
X130390D01*
X129260Y115866D02*
G03X130390Y114736I1130J0D01*
G01X129260Y115866D02*
Y119666D01*
X129625Y120498D02*
G03X129260Y119666I765J-832D01*
G01X129625Y120498D02*
G03Y121234I-338J368D01*
G01X129260Y122066D02*
G03X129625Y121234I1130J0D01*
G01X129260Y122066D02*
Y125866D01*
X130390Y126996D02*
G03X129260Y125866I-0J-1130D01*
G01X130390Y126996D02*
X133390D01*
X134516Y125952D02*
G03X133390Y126996I-1126J-86D01*
G01X134516Y125952D02*
G03X135015Y125490I499J38D01*
G01X135726*
G03X136080Y125636I0J500*
G01X136127Y125684*
X137205Y126130D02*
G03X136127Y125684I-0J-1524D01*
G01X137205Y126130D02*
X139093D01*
G03X139410Y126243I0J500*
G01X140748Y126720D02*
G03X139410Y126243I0J-2114D01*
G01X140748Y126720D02*
X143504D01*
X170146Y212402D02*
G03X170146I-7036J0D01*
G01X285224Y281102D02*
Y269291D01*
X284094Y268161D02*
G03X285224Y269291I0J1130D01*
G01X284094Y268161D02*
X280157D01*
X279028Y269291D02*
G03X280157Y268161I1129J0D01*
G01X279028Y269291D02*
Y281102D01*
X280157Y282232D02*
G03X279028Y281102I0J-1130D01*
G01X280157Y282232D02*
X284094D01*
X285224Y281102D02*
G03X284094Y282232I-1130J0D01*
G01X265224Y281102D02*
Y269291D01*
X264094Y268161D02*
G03X265224Y269291I0J1130D01*
G01X264094Y268161D02*
X264035D01*
G03X263688Y267301I0J-500*
G01X260002Y267365D02*
G03X263688Y267301I1809J-2011D01*
G01X260002Y267365D02*
G03X259818Y268214I-334J372D01*
G01X259028Y269291D02*
G03X259818Y268214I1129J0D01*
G01X259028Y269291D02*
Y281102D01*
X260157Y282232D02*
G03X259028Y281102I0J-1130D01*
G01X260157Y282232D02*
X264094D01*
X265224Y281102D02*
G03X264094Y282232I-1130J0D01*
G01X248210Y207814D02*
G03X248238Y211895I1790J2029D01*
G01X248210Y207814D02*
G03X247883Y207939I-330J-375D01*
G01X241275Y207984*
X241271*
X217233*
G03X216802Y207737I0J-500*
G01Y212066D02*
G03Y207737I-3692J-2164D01*
G01Y212066D02*
G03X217233Y211819I431J253D01*
G01X241280*
X241293D02*
G03X241280I-13J-1917D01*
G01X241293D02*
X247909Y211774D01*
G03X248238Y211895I3J500*
G01X279720Y254653D02*
G03Y258733I1776J2040D01*
G01Y254653D02*
G03X279392Y254776I-328J-377D01*
G01X254545*
G03X254191Y254629I-0J-500*
G01X252064Y252502*
G03X251917Y252148I353J-354*
G01Y249348*
G03X252040Y249020I500J0*
G01X247960D02*
G03X252040I2040J-1776D01*
G01X247960D02*
G03X248083Y249348I-377J328D01*
G01Y253150*
X248644Y254505D02*
G03X248083Y253150I1356J-1355D01*
G01X248644Y254505D02*
X252188Y258049D01*
X253543Y258610D02*
G03X252188Y258049I0J-1917D01*
G01X253543Y258610D02*
X279392D01*
G03X279720Y258733I0J500*
G01X296328Y263646D02*
G03Y267062I2097J1708D01*
G01Y263646D02*
G03X295940Y263831I-388J-315D01*
G01X273228*
X272151Y264277D02*
G03X273228Y263831I1077J1077D01*
G01X272151Y264277D02*
X270970Y265458D01*
X270524Y266535D02*
G03X270970Y265458I1523J0D01*
G01X270524Y266535D02*
Y267667D01*
G03X270065Y268165I-500J-0*
G01X269028Y269291D02*
G03X270065Y268165I1129J0D01*
G01X269028Y269291D02*
Y281102D01*
X270157Y282232D02*
G03X269028Y281102I0J-1130D01*
G01X270157Y282232D02*
X274094D01*
X275224Y281102D02*
G03X274094Y282232I-1130J0D01*
G01X275224Y281102D02*
Y269291D01*
X274094Y268161D02*
G03X275224Y269291I0J1130D01*
G01X274094Y268161D02*
X274071D01*
G03X273571Y267661I-0J-500*
G01Y267378*
G03X274071Y266878I500J-0*
G01X295940*
G03X296328Y267062I0J500*
G01X300691Y280499D02*
X339121D01*
X301591Y279599D02*
X339081D01*
X325256Y266999D02*
X338745D01*
X325146Y266099D02*
X338734D01*
X325208Y265199D02*
X338665D01*
X299881Y281399D02*
X338626D01*
X325412Y264299D02*
X338596D01*
X325730Y273299D02*
X338463D01*
X326149Y278699D02*
X338043D01*
X326190Y272399D02*
X338003D01*
X326203Y267899D02*
X337990D01*
X336584Y263399D02*
X337983D01*
X326228Y274199D02*
X337965D01*
X326252Y277799D02*
X337941D01*
X326252Y276899D02*
X337941D01*
X326252Y275999D02*
X337941D01*
X326252Y275099D02*
X337941D01*
X326252Y271499D02*
X337941D01*
X326252Y270599D02*
X337941D01*
X326252Y269699D02*
X337941D01*
X326252Y268799D02*
X337941D01*
X331584Y263399D02*
X332983D01*
X326584D02*
X327983D01*
X302491Y278699D02*
X321095D01*
X326127Y255299D02*
X328440D01*
X326504Y256199D02*
X328062D01*
X331127Y255299D02*
X333440D01*
X331504Y256199D02*
X333062D01*
X273915Y225599D02*
X280899D01*
X272431Y226499D02*
X280860D01*
X210874Y160799D02*
X228398D01*
X210874Y159899D02*
X228398D01*
X210874Y158999D02*
X228398D01*
X210874Y158099D02*
X228398D01*
X210874Y161699D02*
X227931D01*
X210874Y157199D02*
X227930D01*
X216091Y167999D02*
X227731D01*
X216091Y167099D02*
X227453D01*
X210874Y162599D02*
X227297D01*
X210874Y156299D02*
X227297D01*
X216091Y166199D02*
X227291D01*
X216091Y165299D02*
X227291D01*
X215697Y164399D02*
X227291D01*
X210874Y163499D02*
X227291D01*
X216091Y168899D02*
X227078D01*
X210874Y155399D02*
X222058D01*
X215697Y154499D02*
X221157D01*
X216091Y153599D02*
X220257D01*
X216103Y152699D02*
X219357D01*
X216091Y169799D02*
X218435D01*
X216091Y170699D02*
X217535D01*
X215896Y171599D02*
X217034D01*
X210955Y172499D02*
X216980D01*
X211543Y173399D02*
X216926D01*
X200343Y146399D02*
X209983D01*
X200375Y145499D02*
X209940D01*
X193181Y163499D02*
X207039D01*
X193175Y162599D02*
X207039D01*
X192542Y161699D02*
X207039D01*
X192075Y160799D02*
X207039D01*
X192075Y159899D02*
X207039D01*
X192075Y158999D02*
X207039D01*
X192075Y158099D02*
X207039D01*
X192542Y157199D02*
X207039D01*
X193175Y156299D02*
X207039D01*
X196099Y155399D02*
X207039D01*
X193181Y164399D02*
X204776D01*
X197262Y154499D02*
X204775D01*
X200343Y147299D02*
X204577D01*
X193181Y165299D02*
X204382D01*
X198162Y153599D02*
X204382D01*
X199062Y152699D02*
X204382D01*
X199959Y151799D02*
X204382D01*
X200338Y150899D02*
X204382D01*
X200343Y149999D02*
X204382D01*
X200343Y149099D02*
X204382D01*
X200343Y148199D02*
X204382D01*
X193181Y166199D02*
X204325D01*
X193020Y167099D02*
X195737D01*
X192741Y167999D02*
X194837D01*
X114083Y134699D02*
X116633D01*
X114083Y137399D02*
X116626D01*
X114083Y131999D02*
X116606D01*
X114083Y129299D02*
X116589D01*
X114083Y138299D02*
X116587D01*
X114083Y136499D02*
X116587D01*
X114083Y135599D02*
X116587D01*
X113870Y133799D02*
X116587D01*
X113998Y132899D02*
X116587D01*
X114083Y131099D02*
X116587D01*
X114083Y130199D02*
X116587D01*
X114083Y128399D02*
X116587D01*
X296159Y146399D02*
X301715D01*
X284913Y163499D02*
X298772D01*
X284907Y162599D02*
X298772D01*
X284274Y161699D02*
X298772D01*
X283807Y160799D02*
X298772D01*
X283807Y159899D02*
X298772D01*
X283807Y158999D02*
X298772D01*
X283807Y158099D02*
X298772D01*
X284275Y157199D02*
X298772D01*
X284907Y156299D02*
X298772D01*
X284913Y155399D02*
X298772D01*
X284913Y164399D02*
X296508D01*
X284913Y154499D02*
X296508D01*
X284913Y165299D02*
X296114D01*
X285126Y153599D02*
X296114D01*
X293157Y152699D02*
X296114D01*
X294057Y151799D02*
X296114D01*
X294957Y150899D02*
X296112D01*
X284913Y166199D02*
X290353D01*
X284752Y167099D02*
X288802D01*
X284474Y167999D02*
X287902D01*
X285307Y168899D02*
X286816D01*
X302606Y160799D02*
X320130D01*
X302606Y159899D02*
X320130D01*
X302606Y158999D02*
X320130D01*
X302606Y158099D02*
X320130D01*
X302606Y161699D02*
X319663D01*
X302606Y157199D02*
X319662D01*
X307823Y167999D02*
X319463D01*
X307823Y167099D02*
X319185D01*
X302606Y162599D02*
X319030D01*
X302606Y156299D02*
X319030D01*
X307823Y166199D02*
X319024D01*
X307823Y165299D02*
X319024D01*
X307429Y164399D02*
X319024D01*
X302606Y163499D02*
X319024D01*
X307823Y168899D02*
X314653D01*
X307823Y169799D02*
X313710D01*
X302606Y155399D02*
X313531D01*
X307823Y170699D02*
X312904D01*
X307628Y171599D02*
X312650D01*
X307429Y154499D02*
X312630D01*
X307806Y172499D02*
X312282D01*
X307823Y153599D02*
X311730D01*
X307836Y152699D02*
X310830D01*
X364452Y246299D02*
X368949D01*
X365556Y245399D02*
X368949D01*
X366336Y244499D02*
X368949D01*
X366907Y243599D02*
X368949D01*
X367319Y242699D02*
X368949D01*
X367599Y241799D02*
X368949D01*
X367762Y240899D02*
X368949D01*
X367815Y239999D02*
X368949D01*
X367762Y239099D02*
X368949D01*
X367598Y238199D02*
X368949D01*
X367318Y237299D02*
X368949D01*
X366905Y236399D02*
X368949D01*
X366334Y235499D02*
X368949D01*
X365553Y234599D02*
X368949D01*
X364448Y233699D02*
X368949D01*
X362599Y232799D02*
X368949D01*
X352146Y231899D02*
X368949D01*
X353046Y230999D02*
X368949D01*
X353775Y230099D02*
X368949D01*
X353886Y229199D02*
X368949D01*
X353886Y228299D02*
X368949D01*
X354460Y227399D02*
X368949D01*
X355045Y226499D02*
X368949D01*
X355257Y225599D02*
X368949D01*
X355179Y224699D02*
X368949D01*
X354786Y223799D02*
X368949D01*
X355055Y222899D02*
X368949D01*
X355264Y221999D02*
X368949D01*
X355264Y221099D02*
X368949D01*
X355264Y220199D02*
X368949D01*
X355264Y219299D02*
X368949D01*
X355223Y218399D02*
X368949D01*
X343116Y217499D02*
X368949D01*
X343163Y216599D02*
X368949D01*
X343163Y215699D02*
X368949D01*
X343163Y214799D02*
X368949D01*
X343163Y213899D02*
X368949D01*
X343163Y212999D02*
X368949D01*
X343163Y212099D02*
X368949D01*
X343163Y211199D02*
X368949D01*
X342816Y210299D02*
X368949D01*
X354348Y209399D02*
X368949D01*
X354997Y208499D02*
X368949D01*
X355247Y207599D02*
X368949D01*
X355204Y206699D02*
X368949D01*
X354855Y205799D02*
X368949D01*
X354217Y204899D02*
X368949D01*
X354758Y203999D02*
X368949D01*
X355169Y203099D02*
X368949D01*
X355259Y202199D02*
X368949D01*
X355062Y201299D02*
X368949D01*
X354499Y200399D02*
X368949D01*
X354408Y199499D02*
X368949D01*
X355023Y198599D02*
X368949D01*
X355252Y197699D02*
X368949D01*
X355192Y196799D02*
X368949D01*
X354820Y195899D02*
X368949D01*
X354211Y194999D02*
X368949D01*
X354797Y194099D02*
X368949D01*
X355183Y193199D02*
X368949D01*
X355255Y192299D02*
X368949D01*
X355039Y191399D02*
X368949D01*
X354444Y190499D02*
X368949D01*
X354464Y189599D02*
X368949D01*
X355047Y188699D02*
X368949D01*
X355257Y187799D02*
X368949D01*
X355178Y186899D02*
X368949D01*
X354783Y185999D02*
X368949D01*
X355058Y185099D02*
X368949D01*
X355264Y184199D02*
X368949D01*
X355264Y183299D02*
X368949D01*
X355264Y182399D02*
X368949D01*
X355264Y181499D02*
X368949D01*
X355221Y180599D02*
X368949D01*
X330658Y179699D02*
X368949D01*
X330658Y178799D02*
X368949D01*
X345523Y177899D02*
X368949D01*
X346011Y176999D02*
X368949D01*
X346012Y176099D02*
X368949D01*
X346012Y175199D02*
X368949D01*
X346012Y174299D02*
X368949D01*
X346012Y173399D02*
X368949D01*
X346012Y172499D02*
X368949D01*
X346012Y171599D02*
X368949D01*
X346012Y170699D02*
X368949D01*
X346012Y169799D02*
X368949D01*
X346012Y168899D02*
X368949D01*
X346012Y167999D02*
X368949D01*
X346012Y167099D02*
X368949D01*
X346012Y166199D02*
X368949D01*
X346012Y165299D02*
X368949D01*
X346012Y164399D02*
X368949D01*
X346012Y163499D02*
X368949D01*
X345845Y162599D02*
X368949D01*
X323644Y161699D02*
X368949D01*
X323177Y160799D02*
X368949D01*
X323177Y159899D02*
X368949D01*
X323177Y158999D02*
X368949D01*
X323177Y158099D02*
X368949D01*
X345767Y157199D02*
X368949D01*
X346012Y156299D02*
X368949D01*
X346012Y155399D02*
X368949D01*
X346012Y154499D02*
X368949D01*
X346012Y153599D02*
X368949D01*
X346012Y152699D02*
X368949D01*
X346012Y151799D02*
X368949D01*
X346012Y150899D02*
X368949D01*
X346012Y149999D02*
X368949D01*
X346012Y149099D02*
X368949D01*
X346012Y148199D02*
X368949D01*
X346012Y147299D02*
X368949D01*
X346012Y146399D02*
X368949D01*
X346012Y145499D02*
X368949D01*
X346012Y144599D02*
X368949D01*
X346012Y143699D02*
X368949D01*
X346012Y142799D02*
X368949D01*
X345662Y141899D02*
X368949D01*
X284201Y140999D02*
X368949D01*
X284201Y140099D02*
X368949D01*
X284201Y139199D02*
X368949D01*
X312641Y138299D02*
X368949D01*
X361880Y137399D02*
X368949D01*
X364136Y136499D02*
X368949D01*
X365345Y135599D02*
X368949D01*
X366183Y134699D02*
X368949D01*
X366795Y133799D02*
X368949D01*
X367239Y132899D02*
X368949D01*
X367547Y131999D02*
X368949D01*
X367735Y131099D02*
X368949D01*
X367813Y130199D02*
X368949D01*
X367783Y129299D02*
X368949D01*
X367644Y128399D02*
X368949D01*
X367391Y127499D02*
X368949D01*
X367009Y126599D02*
X368949D01*
X366477Y125699D02*
X368949D01*
X365749Y124799D02*
X368949D01*
X364733Y123899D02*
X368949D01*
X363139Y122999D02*
X368949D01*
X329161Y122099D02*
X368949D01*
X329161Y121199D02*
X368949D01*
X328961Y120299D02*
X368949D01*
X321406Y119399D02*
X368949D01*
X321408Y118499D02*
X368858D01*
X362607Y247199D02*
X368526D01*
X321419Y117599D02*
X367969D01*
X315426Y248099D02*
X367626D01*
X321430Y116699D02*
X367069D01*
X314965Y248999D02*
X366726D01*
X321430Y115799D02*
X366169D01*
X313989Y249899D02*
X365826D01*
X321430Y114899D02*
X365269D01*
X314731Y250799D02*
X364926D01*
X351525Y113999D02*
X364369D01*
X315349Y251699D02*
X364026D01*
X352952Y113099D02*
X363469D01*
X346092Y252599D02*
X363126D01*
X353672Y112199D02*
X362569D01*
X346992Y253499D02*
X362226D01*
X354078Y111299D02*
X361669D01*
X347760Y254399D02*
X361326D01*
X354261Y110399D02*
X360769D01*
X355249Y255299D02*
X360426D01*
X354250Y109499D02*
X359869D01*
X355850Y256199D02*
X359526D01*
X354044Y108599D02*
X358976D01*
X355854Y257099D02*
X358779D01*
X101130Y306599D02*
X358713D01*
X163180Y305699D02*
X358713D01*
X164657Y304799D02*
X358713D01*
X165625Y303899D02*
X358713D01*
X350919Y302999D02*
X358713D01*
X352749Y302099D02*
X358713D01*
X353557Y301199D02*
X358713D01*
X354016Y300299D02*
X358713D01*
X354240Y299399D02*
X358713D01*
X354268Y298499D02*
X358713D01*
X354102Y297599D02*
X358713D01*
X353717Y296699D02*
X358713D01*
X353032Y295799D02*
X358713D01*
X351717Y294899D02*
X358713D01*
X185539Y293999D02*
X358713D01*
X185539Y293099D02*
X358713D01*
X185539Y292199D02*
X358713D01*
X249928Y291299D02*
X358713D01*
X294694Y290399D02*
X358713D01*
X301448Y289499D02*
X358713D01*
X302628Y288599D02*
X358713D01*
X308157Y287699D02*
X358713D01*
X350676Y286799D02*
X358713D01*
X351689Y285899D02*
X358713D01*
X352589Y284999D02*
X358713D01*
X353079Y284099D02*
X358713D01*
X353637Y283199D02*
X358713D01*
X354767Y282299D02*
X358713D01*
X355384Y281399D02*
X358713D01*
X355724Y280499D02*
X358713D01*
X355852Y279599D02*
X358713D01*
X355788Y278699D02*
X358713D01*
X355523Y277799D02*
X358713D01*
X355012Y276899D02*
X358713D01*
X354107Y275999D02*
X358713D01*
X343201Y275099D02*
X358713D01*
X343177Y274199D02*
X358713D01*
X353444Y273299D02*
X358713D01*
X354675Y272399D02*
X358713D01*
X355331Y271499D02*
X358713D01*
X355697Y270599D02*
X358713D01*
X355847Y269699D02*
X358713D01*
X355805Y268799D02*
X358713D01*
X355564Y267899D02*
X358713D01*
X355084Y266999D02*
X358713D01*
X354238Y266099D02*
X358713D01*
X352076Y265199D02*
X358713D01*
X347902Y264299D02*
X358713D01*
X355522Y263399D02*
X358713D01*
X355854Y262499D02*
X358713D01*
X355854Y261599D02*
X358713D01*
X355854Y260699D02*
X358713D01*
X355854Y259799D02*
X358713D01*
X355854Y258899D02*
X358713D01*
X355854Y257999D02*
X358713D01*
X353608Y107699D02*
X358713D01*
X352840Y106799D02*
X358713D01*
X351222Y105899D02*
X358713D01*
X154004Y104999D02*
X358713D01*
X153104Y104099D02*
X358713D01*
X128424Y103199D02*
X358713D01*
X127181Y102299D02*
X358713D01*
X126374Y101399D02*
X358656D01*
X312848Y137399D02*
X358592D01*
X101452Y307499D02*
X358391D01*
X342069Y232799D02*
X357873D01*
X315478Y247199D02*
X357865D01*
X329161Y122999D02*
X357334D01*
X312848Y136499D02*
X356336D01*
X342106Y233699D02*
X356025D01*
X339805Y246299D02*
X356021D01*
X329161Y123899D02*
X355740D01*
X312848Y135599D02*
X355128D01*
X342163Y234599D02*
X354919D01*
X340342Y245399D02*
X354917D01*
X328767Y124799D02*
X354724D01*
X312848Y134699D02*
X354289D01*
X342163Y235499D02*
X354139D01*
X340500Y244499D02*
X354137D01*
X297310Y125699D02*
X353996D01*
X312848Y133799D02*
X353678D01*
X342163Y236399D02*
X353567D01*
X340350Y243599D02*
X353566D01*
X297136Y126599D02*
X353463D01*
X312848Y132899D02*
X353233D01*
X342163Y237299D02*
X353155D01*
X339823Y242699D02*
X353154D01*
X297136Y127499D02*
X353082D01*
X312848Y131999D02*
X352925D01*
X342163Y238199D02*
X352874D01*
X338082Y241799D02*
X352874D01*
X297136Y128399D02*
X352828D01*
X312707Y131099D02*
X352737D01*
X341995Y239099D02*
X352711D01*
X331307Y240899D02*
X352711D01*
X297136Y129299D02*
X352690D01*
X297171Y130199D02*
X352660D01*
X341365Y239999D02*
X352657D01*
X347902Y265199D02*
X351074D01*
X330894Y228299D02*
X350839D01*
X330186Y229199D02*
X350536D01*
X330264Y194999D02*
X350513D01*
X343313Y209399D02*
X350376D01*
X329254Y199499D02*
X350316D01*
X332529Y190499D02*
X350280D01*
X338169Y227399D02*
X350265D01*
X332533Y189599D02*
X350260D01*
X328354Y200399D02*
X350226D01*
X332533Y185999D02*
X349941D01*
X338413Y223799D02*
X349938D01*
X330264Y194099D02*
X349928D01*
X330264Y195899D02*
X349904D01*
X342679Y273299D02*
X349706D01*
X330037Y198599D02*
X349702D01*
X331935Y191399D02*
X349686D01*
X338413Y226499D02*
X349679D01*
X332533Y188699D02*
X349677D01*
X338083Y222899D02*
X349670D01*
X332533Y185099D02*
X349666D01*
X332533Y186899D02*
X349546D01*
X338413Y224699D02*
X349545D01*
X330264Y193199D02*
X349541D01*
X330264Y196799D02*
X349533D01*
X330658Y180599D02*
X349503D01*
X328923Y218399D02*
X349502D01*
X330264Y197699D02*
X349472D01*
X330264Y192299D02*
X349469D01*
X338413Y225599D02*
X349468D01*
X332533Y187799D02*
X349468D01*
X330658Y221999D02*
X349461D01*
X330645Y221099D02*
X349461D01*
X330298Y220199D02*
X349461D01*
X329433Y219299D02*
X349461D01*
X332515Y184199D02*
X349461D01*
X331649Y183299D02*
X349461D01*
X330658Y182399D02*
X349461D01*
X330658Y181499D02*
X349461D01*
X340914Y283199D02*
X349353D01*
X340919Y302999D02*
X349081D01*
X343201Y275999D02*
X349043D01*
X347955Y266099D02*
X348912D01*
X341222Y105899D02*
X348778D01*
X341525Y113999D02*
X348475D01*
X343138Y272399D02*
X348474D01*
X341735Y282299D02*
X348382D01*
X341717Y294899D02*
X348283D01*
X343201Y276899D02*
X348138D01*
X343201Y271499D02*
X347818D01*
X341981Y281399D02*
X347765D01*
X343201Y277799D02*
X347626D01*
X341981Y280499D02*
X347426D01*
X343098Y278699D02*
X347362D01*
X342026Y279599D02*
X347298D01*
X342749Y302099D02*
X347251D01*
X342840Y106799D02*
X347160D01*
X342952Y113099D02*
X347048D01*
X343032Y295799D02*
X346968D01*
X343557Y301199D02*
X346443D01*
X343608Y107699D02*
X346392D01*
X343672Y112199D02*
X346328D01*
X343717Y296699D02*
X346283D01*
X343201Y270599D02*
X346244D01*
X344016Y300299D02*
X345984D01*
X344044Y108599D02*
X345956D01*
X344078Y111299D02*
X345922D01*
X344102Y297599D02*
X345898D01*
X344240Y299399D02*
X345760D01*
X344250Y109499D02*
X345750D01*
X344261Y110399D02*
X345739D01*
X344268Y298499D02*
X345732D01*
X343201Y269699D02*
X345339D01*
X343201Y268799D02*
X344870D01*
X343152Y267899D02*
X344854D01*
X342006Y266999D02*
X344854D01*
X341790Y266099D02*
X344854D01*
X341722Y265199D02*
X344854D01*
X341653Y264299D02*
X344854D01*
X341623Y263399D02*
X344854D01*
X342071Y262499D02*
X344854D01*
X342163Y261599D02*
X344854D01*
X342163Y260699D02*
X344854D01*
X342163Y259799D02*
X344854D01*
X342163Y258899D02*
X344854D01*
X342163Y257999D02*
X344854D01*
X342044Y257099D02*
X344854D01*
X341504Y256199D02*
X344854D01*
X341127Y255299D02*
X344483D01*
X334580Y201299D02*
X340788D01*
X329286Y230099D02*
X339813D01*
X330919Y302999D02*
X339081D01*
X328386Y230999D02*
X338913D01*
X331222Y105899D02*
X338778D01*
X331525Y113999D02*
X338475D01*
X335306Y231899D02*
X338309D01*
X331717Y294899D02*
X338283D01*
X336365Y239999D02*
X338202D01*
X330463Y177899D02*
X337941D01*
X336692Y232799D02*
X337875D01*
X284201Y141899D02*
X337803D01*
X323645Y157199D02*
X337698D01*
X324277Y162599D02*
X337619D01*
X331307Y241799D02*
X337509D01*
X329710Y176999D02*
X337453D01*
X328801Y176099D02*
X337453D01*
X323973Y175199D02*
X337453D01*
X323571Y174299D02*
X337453D01*
X324054Y173399D02*
X337453D01*
X329267Y172499D02*
X337453D01*
X324122Y167099D02*
X337453D01*
X324283Y166199D02*
X337453D01*
X324283Y165299D02*
X337453D01*
X324283Y164399D02*
X337453D01*
X324283Y163499D02*
X337453D01*
X324277Y156299D02*
X337453D01*
X324283Y155399D02*
X337453D01*
X324283Y154499D02*
X337453D01*
X324283Y153599D02*
X337453D01*
X324283Y152699D02*
X337453D01*
X324122Y151799D02*
X337453D01*
X323844Y150899D02*
X337453D01*
X324283Y149999D02*
X337453D01*
X324283Y149099D02*
X337453D01*
X324283Y148199D02*
X337453D01*
X324283Y147299D02*
X337453D01*
X324283Y146399D02*
X337453D01*
X324054Y145499D02*
X337453D01*
X304613Y144599D02*
X337453D01*
X303826Y143699D02*
X337453D01*
X302702Y142799D02*
X337453D01*
X323844Y167999D02*
X337322D01*
X332749Y302099D02*
X337251D01*
X332840Y106799D02*
X337160D01*
X332952Y113099D02*
X337048D01*
X333032Y295799D02*
X336968D01*
X333557Y301199D02*
X336443D01*
X333608Y107699D02*
X336392D01*
X333672Y112199D02*
X336328D01*
X333717Y296699D02*
X336283D01*
X334016Y300299D02*
X335984D01*
X334044Y108599D02*
X335956D01*
X334078Y111299D02*
X335922D01*
X334102Y297599D02*
X335898D01*
X315151Y246299D02*
X335786D01*
X331724Y242699D02*
X335767D01*
X334240Y299399D02*
X335760D01*
X334250Y109499D02*
X335750D01*
X334261Y110399D02*
X335739D01*
X334268Y298499D02*
X335732D01*
X329616Y217499D02*
X334951D01*
X329663Y216599D02*
X334904D01*
X329663Y215699D02*
X334904D01*
X329663Y214799D02*
X334904D01*
X329663Y213899D02*
X334904D01*
X329663Y212999D02*
X334904D01*
X329663Y212099D02*
X334904D01*
X330071Y211199D02*
X334904D01*
X330306Y231899D02*
X334261D01*
X331387Y239999D02*
X333202D01*
X331692Y232799D02*
X332875D01*
X331883Y222899D02*
X332684D01*
X331985Y227399D02*
X332582D01*
X327464Y205799D02*
X331578D01*
X327497Y201299D02*
X331562D01*
X331030Y206699D02*
X331554D01*
X327451Y204899D02*
X330730D01*
X327451Y202199D02*
X330724D01*
X327451Y203999D02*
X330405D01*
X327451Y203099D02*
X330403D01*
X314148Y245399D02*
X330114D01*
X327936Y231899D02*
X329261D01*
X314382Y244499D02*
X329214D01*
X320919Y302999D02*
X329081D01*
X321222Y105899D02*
X328778D01*
X321598Y113999D02*
X328475D01*
X315233Y243599D02*
X328423D01*
X321717Y294899D02*
X328283D01*
X315493Y242699D02*
X328260D01*
X315385Y241799D02*
X328260D01*
X314836Y240899D02*
X328260D01*
X326365Y239999D02*
X328180D01*
X324677Y168899D02*
X327368D01*
X322749Y302099D02*
X327251D01*
X322840Y106799D02*
X327160D01*
X322952Y113099D02*
X327048D01*
X323032Y295799D02*
X326968D01*
X300047Y182399D02*
X326823D01*
X300047Y181499D02*
X326823D01*
X300047Y180599D02*
X326823D01*
X300047Y179699D02*
X326739D01*
X319880Y221999D02*
X326707D01*
X320323Y222899D02*
X326484D01*
X323557Y301199D02*
X326443D01*
X288866Y195899D02*
X326429D01*
X287963Y194999D02*
X326429D01*
X250016Y194099D02*
X326429D01*
X250851Y193199D02*
X326429D01*
X301954Y192299D02*
X326429D01*
X289766Y196799D02*
X326418D01*
X323608Y107699D02*
X326392D01*
X323672Y112199D02*
X326328D01*
X315497Y227399D02*
X326326D01*
X323717Y296699D02*
X326283D01*
X315262Y226499D02*
X326154D01*
X319563Y225599D02*
X326154D01*
X320198Y224699D02*
X326154D01*
X320416Y223799D02*
X326154D01*
X324016Y300299D02*
X325984D01*
X324044Y108599D02*
X325956D01*
X324078Y111299D02*
X325922D01*
X324102Y297599D02*
X325898D01*
X318690Y221099D02*
X325810D01*
X324240Y299399D02*
X325760D01*
X324250Y109499D02*
X325750D01*
X324261Y110399D02*
X325739D01*
X324268Y298499D02*
X325732D01*
X315365Y228299D02*
X325663D01*
X290666Y197699D02*
X325631D01*
X318149Y183299D02*
X325158D01*
X281666Y220199D02*
X324910D01*
X318435Y191399D02*
X324872D01*
X314777Y229199D02*
X324763D01*
X291566Y198599D02*
X324731D01*
X319015Y184199D02*
X324292D01*
X319029Y190499D02*
X324278D01*
X319033Y189599D02*
X324274D01*
X319033Y188699D02*
X324274D01*
X319033Y187799D02*
X324274D01*
X319033Y186899D02*
X324274D01*
X319033Y185999D02*
X324274D01*
X319033Y185099D02*
X324274D01*
X282566Y219299D02*
X324029D01*
X292466Y199499D02*
X323903D01*
X313981Y230099D02*
X323863D01*
X293323Y200399D02*
X323619D01*
X295224Y209399D02*
X323616D01*
X295224Y208499D02*
X323616D01*
X295224Y207599D02*
X323616D01*
X295224Y206699D02*
X323616D01*
X295224Y205799D02*
X323616D01*
X295224Y204899D02*
X323616D01*
X295224Y203999D02*
X323616D01*
X294852Y203099D02*
X323616D01*
X293556Y202199D02*
X323616D01*
X293556Y201299D02*
X323616D01*
X283383Y218399D02*
X323511D01*
X322567Y124799D02*
X323496D01*
X321266Y255299D02*
X323440D01*
X322837Y120299D02*
X323226D01*
X313975Y239999D02*
X323202D01*
X314929Y230999D02*
X323086D01*
X320366Y256199D02*
X323062D01*
X315415Y231899D02*
X322866D01*
X315483Y232799D02*
X322845D01*
X314876Y239099D02*
X322571D01*
X315476Y257099D02*
X322523D01*
X216512Y262499D02*
X322496D01*
X300294Y263399D02*
X322474D01*
X315177Y233699D02*
X322461D01*
X217039Y261599D02*
X322404D01*
X217315Y260699D02*
X322404D01*
X313572Y259799D02*
X322404D01*
X315044Y258899D02*
X322404D01*
X315450Y257999D02*
X322404D01*
X315398Y238199D02*
X322404D01*
X315489Y237299D02*
X322404D01*
X315210Y236399D02*
X322404D01*
X314310Y235499D02*
X322404D01*
X314205Y234599D02*
X322404D01*
X300915Y264299D02*
X322284D01*
X300047Y178799D02*
X322150D01*
X301125Y265199D02*
X322104D01*
X301026Y266099D02*
X322098D01*
X300573Y266999D02*
X321988D01*
X295224Y210299D02*
X321818D01*
X295224Y273299D02*
X321514D01*
X283556Y217499D02*
X321451D01*
X294838Y216599D02*
X321404D01*
X295224Y215699D02*
X321404D01*
X295224Y214799D02*
X321404D01*
X295224Y213899D02*
X321404D01*
X295224Y212999D02*
X321404D01*
X295224Y212099D02*
X321404D01*
X295224Y211199D02*
X321404D01*
X300047Y177899D02*
X321250D01*
X295224Y272399D02*
X321055D01*
X299343Y267899D02*
X321041D01*
X295224Y274199D02*
X321016D01*
X295224Y271499D02*
X320992D01*
X295224Y270599D02*
X320992D01*
X295224Y269699D02*
X320992D01*
X295111Y268799D02*
X320992D01*
X300047Y176999D02*
X320350D01*
X314337Y176099D02*
X319805D01*
X315333Y175199D02*
X319736D01*
X316174Y174299D02*
X319736D01*
X315499Y252599D02*
X319656D01*
X313339Y150899D02*
X319463D01*
X304772Y145499D02*
X319253D01*
X316479Y173399D02*
X319253D01*
X314239Y151799D02*
X319185D01*
X310919Y302999D02*
X319081D01*
X312439Y149999D02*
X319024D01*
X307952Y149099D02*
X319024D01*
X307823Y148199D02*
X319024D01*
X307628Y147299D02*
X319024D01*
X304781Y146399D02*
X319024D01*
X316673Y172499D02*
X318844D01*
X311222Y105899D02*
X318778D01*
X315170Y152699D02*
X318763D01*
X315646Y253499D02*
X318747D01*
X241917Y115799D02*
X318570D01*
X241917Y114899D02*
X318570D01*
X241746Y116699D02*
X318570D01*
X241018Y117599D02*
X318559D01*
X240118Y118499D02*
X318548D01*
X239218Y119399D02*
X318531D01*
X311525Y113999D02*
X318402D01*
X311717Y294899D02*
X318283D01*
X312035Y124799D02*
X317296D01*
X312749Y302099D02*
X317251D01*
X312840Y106799D02*
X317160D01*
X312229Y120299D02*
X317102D01*
X312952Y113099D02*
X317048D01*
X313032Y295799D02*
X316968D01*
X280879Y221099D02*
X316743D01*
X312707Y123899D02*
X316624D01*
X313557Y301199D02*
X316443D01*
X313608Y107699D02*
X316392D01*
X313672Y112199D02*
X316328D01*
X313717Y296699D02*
X316283D01*
X314016Y300299D02*
X315984D01*
X314044Y108599D02*
X315956D01*
X314078Y111299D02*
X315922D01*
X314102Y297599D02*
X315898D01*
X315343Y225599D02*
X315849D01*
X314240Y299399D02*
X315760D01*
X314250Y109499D02*
X315750D01*
X314261Y110399D02*
X315739D01*
X314268Y298499D02*
X315732D01*
X217389Y259799D02*
X312805D01*
X217389Y239999D02*
X312403D01*
X284023Y230099D02*
X312397D01*
X251917Y249899D02*
X312389D01*
X251977Y245399D02*
X312230D01*
X308574Y234599D02*
X312173D01*
X308571Y235499D02*
X312068D01*
X197193Y244499D02*
X311995D01*
X301725Y183299D02*
X311658D01*
X251917Y250799D02*
X311647D01*
X284200Y229199D02*
X311601D01*
X217272Y240899D02*
X311542D01*
X217314Y239099D02*
X311501D01*
X283455Y230999D02*
X311449D01*
X252058Y248999D02*
X311413D01*
X302016Y191399D02*
X311372D01*
X283061Y258899D02*
X311334D01*
X252534Y246299D02*
X311227D01*
X308255Y233699D02*
X311201D01*
X308244Y236399D02*
X311168D01*
X215266Y243599D02*
X311145D01*
X282132Y226499D02*
X311116D01*
X282093Y225599D02*
X311035D01*
X251917Y251699D02*
X311029D01*
X284069Y228299D02*
X311013D01*
X216946Y241799D02*
X310993D01*
X217036Y238199D02*
X310980D01*
X282278Y231899D02*
X310963D01*
X252566Y248099D02*
X310952D01*
X283865Y257999D02*
X310928D01*
X303417Y257099D02*
X310902D01*
X252704Y247199D02*
X310900D01*
X307420Y232799D02*
X310895D01*
X307392Y237299D02*
X310889D01*
X216349Y242699D02*
X310885D01*
X283571Y227399D02*
X310881D01*
X302559Y252599D02*
X310879D01*
X302016Y184199D02*
X310792D01*
X302016Y190499D02*
X310778D01*
X302016Y185099D02*
X310774D01*
X303766Y253499D02*
X310732D01*
X302251Y185999D02*
X310539D01*
X300919Y302999D02*
X309081D01*
X303759Y105899D02*
X308778D01*
X303895Y113999D02*
X308475D01*
X301717Y294899D02*
X308283D01*
X302749Y302099D02*
X307251D01*
X304278Y106799D02*
X307160D01*
X304280Y113099D02*
X307048D01*
X303032Y295799D02*
X306968D01*
X305835Y124799D02*
X306764D01*
X306105Y120299D02*
X306493D01*
X303557Y301199D02*
X306443D01*
X304280Y107699D02*
X306392D01*
X304280Y112199D02*
X306328D01*
X303717Y296699D02*
X306283D01*
X304016Y300299D02*
X305984D01*
X304280Y108599D02*
X305956D01*
X304280Y111299D02*
X305922D01*
X304102Y297599D02*
X305898D01*
X304240Y299399D02*
X305760D01*
X304280Y109499D02*
X305750D01*
X304280Y110399D02*
X305739D01*
X304268Y298499D02*
X305732D01*
X299141Y138299D02*
X304796D01*
X299207Y131099D02*
X304730D01*
X299348Y137399D02*
X304589D01*
X299348Y136499D02*
X304589D01*
X299348Y135599D02*
X304589D01*
X299348Y134699D02*
X304589D01*
X299348Y133799D02*
X304589D01*
X299348Y132899D02*
X304589D01*
X299348Y131999D02*
X304589D01*
X282983Y237299D02*
X304419D01*
X283011Y232799D02*
X304391D01*
X295224Y275099D02*
X301807D01*
X300183Y176099D02*
X300943D01*
X295224Y275999D02*
X300881D01*
X252161Y252599D02*
X300591D01*
X298210Y124799D02*
X300564D01*
X176507Y120299D02*
X300370D01*
X295224Y276899D02*
X299981D01*
X284170Y257099D02*
X299733D01*
X253061Y253499D02*
X299408D01*
X295594Y289499D02*
X299339D01*
X284155Y256199D02*
X299095D01*
X290919Y302999D02*
X299081D01*
X295224Y277799D02*
X299081D01*
X282929Y254399D02*
X298967D01*
X283814Y255299D02*
X298876D01*
X291717Y294899D02*
X298283D01*
X296494Y288599D02*
X298206D01*
X295224Y278699D02*
X298181D01*
X273631Y267899D02*
X297508D01*
X295224Y279599D02*
X297281D01*
X292749Y302099D02*
X297251D01*
X293032Y295799D02*
X296968D01*
X263679Y263399D02*
X296557D01*
X293557Y301199D02*
X296443D01*
X175622Y121199D02*
X296387D01*
X295227Y280499D02*
X296381D01*
X293717Y296699D02*
X296283D01*
X273745Y266999D02*
X296266D01*
X281222Y105899D02*
X296241D01*
X238532Y182399D02*
X296213D01*
X238532Y181499D02*
X296213D01*
X238532Y180599D02*
X296213D01*
X238532Y179699D02*
X296213D01*
X238532Y178799D02*
X296213D01*
X255719Y177899D02*
X296213D01*
X255854Y176999D02*
X296213D01*
X255854Y176099D02*
X296213D01*
X255854Y175199D02*
X296213D01*
X255854Y174299D02*
X296213D01*
X284684Y173399D02*
X296213D01*
X288715Y172499D02*
X296213D01*
X289725Y171599D02*
X296213D01*
X290625Y170699D02*
X296114D01*
X281525Y113999D02*
X296105D01*
X294016Y300299D02*
X295984D01*
X294102Y297599D02*
X295898D01*
X294240Y299399D02*
X295760D01*
X294268Y298499D02*
X295732D01*
X282840Y106799D02*
X295722D01*
X282952Y113099D02*
X295720D01*
X283672Y112199D02*
X295720D01*
X284078Y111299D02*
X295720D01*
X284261Y110399D02*
X295720D01*
X284250Y109499D02*
X295720D01*
X284044Y108599D02*
X295720D01*
X283608Y107699D02*
X295720D01*
X175539Y122099D02*
X295487D01*
X284201Y142799D02*
X295329D01*
X175930Y122999D02*
X294587D01*
X284201Y143699D02*
X294206D01*
X285923Y183299D02*
X293747D01*
X176278Y123899D02*
X293707D01*
X243230Y282299D02*
X293689D01*
X257823Y283199D02*
X293681D01*
X285919Y192299D02*
X293519D01*
X286071Y191399D02*
X293457D01*
X286071Y190499D02*
X293457D01*
X286071Y189599D02*
X293457D01*
X286071Y188699D02*
X293457D01*
X286071Y187799D02*
X293457D01*
X286071Y186899D02*
X293457D01*
X286071Y185999D02*
X293457D01*
X286071Y185099D02*
X293457D01*
X286071Y184199D02*
X293457D01*
X284201Y144599D02*
X293355D01*
X176299Y124799D02*
X293322D01*
X157226Y129299D02*
X293301D01*
X157429Y128399D02*
X293301D01*
X157252Y127499D02*
X293301D01*
X175210Y126599D02*
X293301D01*
X176000Y125699D02*
X293301D01*
X160778Y130199D02*
X293266D01*
X284913Y148199D02*
X293112D01*
X284913Y147299D02*
X293112D01*
X284913Y146399D02*
X293112D01*
X284684Y145499D02*
X293112D01*
X284913Y149099D02*
X292447D01*
X284916Y149999D02*
X291547D01*
X284201Y138299D02*
X291296D01*
X220612Y131099D02*
X291230D01*
X284250Y137399D02*
X291089D01*
X221115Y131999D02*
X291089D01*
X274043Y202199D02*
X290696D01*
X273891Y201299D02*
X290221D01*
X284838Y216599D02*
X289414D01*
X284852Y203099D02*
X289400D01*
X273189Y200399D02*
X289321D01*
X285111Y268799D02*
X289141D01*
X283614Y302999D02*
X289081D01*
X285185Y281399D02*
X289067D01*
X285224Y280499D02*
X289028D01*
X285224Y279599D02*
X289028D01*
X285224Y278699D02*
X289028D01*
X285224Y277799D02*
X289028D01*
X285224Y276899D02*
X289028D01*
X285224Y275999D02*
X289028D01*
X285224Y275099D02*
X289028D01*
X285224Y274199D02*
X289028D01*
X285224Y273299D02*
X289028D01*
X285224Y272399D02*
X289028D01*
X285224Y271499D02*
X289028D01*
X285224Y270599D02*
X289028D01*
X285224Y269699D02*
X289028D01*
X285224Y215699D02*
X289028D01*
X285224Y214799D02*
X289028D01*
X285224Y213899D02*
X289028D01*
X285224Y212999D02*
X289028D01*
X285224Y212099D02*
X289028D01*
X285224Y211199D02*
X289028D01*
X285224Y210299D02*
X289028D01*
X285224Y209399D02*
X289028D01*
X285224Y208499D02*
X289028D01*
X285224Y207599D02*
X289028D01*
X285224Y206699D02*
X289028D01*
X285224Y205799D02*
X289028D01*
X285224Y204899D02*
X289028D01*
X285224Y203999D02*
X289028D01*
X272289Y199499D02*
X288421D01*
X283976Y294899D02*
X288283D01*
X271387Y198599D02*
X287521D01*
X284272Y302099D02*
X287251D01*
X284280Y295799D02*
X286968D01*
X271022Y197699D02*
X286621D01*
X284280Y301199D02*
X286443D01*
X284280Y296699D02*
X286283D01*
X284280Y300299D02*
X285984D01*
X284280Y297599D02*
X285898D01*
X284280Y299399D02*
X285760D01*
X284280Y298499D02*
X285732D01*
X221116Y132899D02*
X283462D01*
X221116Y133799D02*
X282387D01*
X221116Y134699D02*
X281487D01*
X231445Y160799D02*
X280760D01*
X231445Y159899D02*
X280760D01*
X231445Y158999D02*
X280760D01*
X231445Y158099D02*
X280760D01*
X216895Y231899D02*
X280714D01*
X221116Y135599D02*
X280657D01*
X221116Y136499D02*
X280370D01*
X255854Y144599D02*
X280366D01*
X255854Y143699D02*
X280366D01*
X255811Y142799D02*
X280366D01*
X192469Y141899D02*
X280366D01*
X192469Y140999D02*
X280366D01*
X192469Y140099D02*
X280366D01*
X192469Y139199D02*
X280366D01*
X221086Y138299D02*
X280366D01*
X221116Y137399D02*
X280366D01*
X231912Y161699D02*
X280293D01*
X255811Y157199D02*
X280292D01*
X274691Y217499D02*
X280252D01*
X255854Y167999D02*
X280093D01*
X255854Y150899D02*
X280093D01*
X253961Y254399D02*
X280064D01*
X216507Y237299D02*
X280009D01*
X216260Y232799D02*
X279981D01*
X217271Y258899D02*
X279931D01*
X273390Y145499D02*
X279883D01*
X264729Y173399D02*
X279883D01*
X255854Y151799D02*
X279815D01*
X255854Y167099D02*
X279815D01*
X255280Y162599D02*
X279660D01*
X255854Y156299D02*
X279660D01*
X265636Y168899D02*
X279654D01*
X265936Y172499D02*
X279654D01*
X266383Y171599D02*
X279654D01*
X266479Y170699D02*
X279654D01*
X266265Y169799D02*
X279654D01*
X255854Y166199D02*
X279654D01*
X255854Y165299D02*
X279654D01*
X255854Y164399D02*
X279654D01*
X255851Y163499D02*
X279654D01*
X255854Y155399D02*
X279654D01*
X255854Y154499D02*
X279654D01*
X255854Y153599D02*
X279654D01*
X255854Y152699D02*
X279654D01*
X274327Y149999D02*
X279440D01*
X274337Y218399D02*
X279422D01*
X274850Y216599D02*
X279414D01*
X274852Y203099D02*
X279400D01*
X215569Y236399D02*
X279158D01*
X215084Y233699D02*
X279147D01*
X275111Y268799D02*
X279141D01*
X275185Y281399D02*
X279067D01*
X275224Y280499D02*
X279028D01*
X275224Y279599D02*
X279028D01*
X275224Y278699D02*
X279028D01*
X275224Y277799D02*
X279028D01*
X275224Y276899D02*
X279028D01*
X275224Y275999D02*
X279028D01*
X275224Y275099D02*
X279028D01*
X275224Y274199D02*
X279028D01*
X275224Y273299D02*
X279028D01*
X275224Y272399D02*
X279028D01*
X275224Y271499D02*
X279028D01*
X275224Y270599D02*
X279028D01*
X275224Y269699D02*
X279028D01*
X275224Y215699D02*
X279028D01*
X275224Y214799D02*
X279028D01*
X275224Y213899D02*
X279028D01*
X275224Y212999D02*
X279028D01*
X275224Y212099D02*
X279028D01*
X275224Y211199D02*
X279028D01*
X275224Y210299D02*
X279028D01*
X275224Y209399D02*
X279028D01*
X275224Y208499D02*
X279028D01*
X275224Y207599D02*
X279028D01*
X275224Y206699D02*
X279028D01*
X275224Y205799D02*
X279028D01*
X275224Y204899D02*
X279028D01*
X275224Y203999D02*
X279028D01*
X138532Y235499D02*
X278831D01*
X138532Y234599D02*
X278827D01*
X271222Y105899D02*
X278778D01*
X271525Y113999D02*
X278475D01*
X251751Y192299D02*
X277664D01*
X239917Y183299D02*
X277660D01*
X252651Y191399D02*
X277512D01*
X253551Y190499D02*
X277512D01*
X273860Y185099D02*
X277512D01*
X240783Y184199D02*
X277512D01*
X272840Y106799D02*
X277160D01*
X272952Y113099D02*
X277048D01*
X273608Y107699D02*
X276392D01*
X264934Y302999D02*
X276386D01*
X273672Y112199D02*
X276328D01*
X265732Y294899D02*
X276024D01*
X274044Y108599D02*
X275956D01*
X274078Y111299D02*
X275922D01*
X274250Y109499D02*
X275750D01*
X274261Y110399D02*
X275739D01*
X266765Y302099D02*
X275728D01*
X267573Y301199D02*
X275720D01*
X268031Y300299D02*
X275720D01*
X268256Y299399D02*
X275720D01*
X268283Y298499D02*
X275720D01*
X268118Y297599D02*
X275720D01*
X267733Y296699D02*
X275720D01*
X267048Y295799D02*
X275720D01*
X264301Y264299D02*
X272129D01*
X250610Y226499D02*
X271664D01*
X255854Y145499D02*
X271492D01*
X264511Y265199D02*
X271229D01*
X240801Y185099D02*
X271022D01*
X254451Y189599D02*
X270863D01*
X264411Y266099D02*
X270588D01*
X255854Y149999D02*
X270585D01*
X263959Y266999D02*
X270524D01*
X263595Y267899D02*
X270467D01*
X255854Y146399D02*
X270285D01*
X240597Y225599D02*
X270201D01*
X255854Y149099D02*
X269956D01*
X255854Y147299D02*
X269837D01*
X217117Y218399D02*
X269757D01*
X255854Y148199D02*
X269741D01*
X241497Y224699D02*
X269566D01*
X264234Y202199D02*
X269566D01*
X243297Y222899D02*
X269441D01*
X216652Y217499D02*
X269403D01*
X264852Y203099D02*
X269400D01*
X244205Y221999D02*
X269379D01*
X242397Y223799D02*
X269348D01*
X264838Y216599D02*
X269334D01*
X265111Y268799D02*
X269141D01*
X265185Y281399D02*
X269067D01*
X265224Y280499D02*
X269028D01*
X265224Y279599D02*
X269028D01*
X265224Y278699D02*
X269028D01*
X265224Y277799D02*
X269028D01*
X265224Y276899D02*
X269028D01*
X265224Y275999D02*
X269028D01*
X265224Y275099D02*
X269028D01*
X265224Y274199D02*
X269028D01*
X265224Y273299D02*
X269028D01*
X265224Y272399D02*
X269028D01*
X265224Y271499D02*
X269028D01*
X265224Y270599D02*
X269028D01*
X265224Y269699D02*
X269028D01*
X265224Y215699D02*
X269028D01*
X265224Y214799D02*
X269028D01*
X265224Y213899D02*
X269028D01*
X265224Y212999D02*
X269028D01*
X265224Y212099D02*
X269028D01*
X265224Y211199D02*
X269028D01*
X265224Y210299D02*
X269028D01*
X265224Y209399D02*
X269028D01*
X265224Y208499D02*
X269028D01*
X265224Y207599D02*
X269028D01*
X265224Y206699D02*
X269028D01*
X265224Y205799D02*
X269028D01*
X265224Y204899D02*
X269028D01*
X265224Y203999D02*
X269028D01*
X261222Y105899D02*
X268778D01*
X261525Y113999D02*
X268475D01*
X262840Y106799D02*
X267160D01*
X262952Y113099D02*
X267048D01*
X263608Y107699D02*
X266392D01*
X263672Y112199D02*
X266328D01*
X264044Y108599D02*
X265956D01*
X264078Y111299D02*
X265922D01*
X264250Y109499D02*
X265750D01*
X264261Y110399D02*
X265739D01*
X254934Y302999D02*
X263097D01*
X255854Y173399D02*
X262830D01*
X255732Y294899D02*
X262299D01*
X256332Y168899D02*
X261756D01*
X256765Y302099D02*
X261267D01*
X257048Y295799D02*
X260984D01*
X257573Y301199D02*
X260459D01*
X257733Y296699D02*
X260298D01*
X216892Y267899D02*
X260141D01*
X256812Y202199D02*
X260018D01*
X258031Y300299D02*
X260000D01*
X215577Y263399D02*
X259943D01*
X258118Y297599D02*
X259914D01*
X258256Y299399D02*
X259776D01*
X258283Y298499D02*
X259748D01*
X216255Y266999D02*
X259664D01*
X215832Y216599D02*
X259414D01*
X255912Y203099D02*
X259400D01*
X200343Y264299D02*
X259321D01*
X215073Y266099D02*
X259211D01*
X217245Y268799D02*
X259141D01*
X200343Y265199D02*
X259111D01*
X217119Y281399D02*
X259067D01*
X217348Y280499D02*
X259028D01*
X217379Y279599D02*
X259028D01*
X217217Y278699D02*
X259028D01*
X216837Y277799D02*
X259028D01*
X216159Y276899D02*
X259028D01*
X214866Y275999D02*
X259028D01*
X200343Y275099D02*
X259028D01*
X200343Y274199D02*
X259028D01*
X215713Y273299D02*
X259028D01*
X216586Y272399D02*
X259028D01*
X217081Y271499D02*
X259028D01*
X217333Y270599D02*
X259028D01*
X217385Y269699D02*
X259028D01*
X213917Y215699D02*
X259028D01*
X169725Y214799D02*
X259028D01*
X214639Y213899D02*
X259028D01*
X216064Y212999D02*
X259028D01*
X251492Y212099D02*
X259028D01*
X252340Y211199D02*
X259028D01*
X252666Y210299D02*
X259028D01*
X252668Y209399D02*
X259028D01*
X252347Y208499D02*
X259028D01*
X251510Y207599D02*
X259028D01*
X215949Y206699D02*
X259028D01*
X241650Y205799D02*
X259028D01*
X254112Y204899D02*
X259028D01*
X255012Y203999D02*
X259028D01*
X251222Y105899D02*
X258778D01*
X251525Y113999D02*
X258475D01*
X252840Y106799D02*
X257160D01*
X252952Y113099D02*
X257048D01*
X253608Y107699D02*
X256392D01*
X253672Y112199D02*
X256328D01*
X254044Y108599D02*
X255956D01*
X254078Y111299D02*
X255922D01*
X254250Y109499D02*
X255750D01*
X254261Y110399D02*
X255739D01*
X243295Y283199D02*
X254775D01*
X250158Y287699D02*
X254229D01*
X248870Y286799D02*
X253965D01*
X243295Y284099D02*
X253947D01*
X243295Y285899D02*
X253635D01*
X243295Y284999D02*
X253630D01*
X244934Y302999D02*
X253097D01*
X240801Y185999D02*
X252630D01*
X245732Y294899D02*
X252299D01*
X216943Y257999D02*
X252138D01*
X240801Y186899D02*
X251728D01*
X246765Y302099D02*
X251267D01*
X216344Y257099D02*
X251238D01*
X247048Y295799D02*
X250984D01*
X240801Y187799D02*
X250828D01*
X247573Y301199D02*
X250459D01*
X215256Y256199D02*
X250338D01*
X247733Y296699D02*
X250298D01*
X248031Y300299D02*
X250000D01*
X240801Y188699D02*
X249928D01*
X248118Y297599D02*
X249914D01*
X248256Y299399D02*
X249776D01*
X248283Y298499D02*
X249748D01*
X200343Y255299D02*
X249438D01*
X239568Y226499D02*
X249390D01*
X240801Y189599D02*
X249028D01*
X241222Y105899D02*
X248778D01*
X200343Y254399D02*
X248545D01*
X216783Y212099D02*
X248508D01*
X216717Y207599D02*
X248490D01*
X241933Y113999D02*
X248475D01*
X240797Y190499D02*
X248128D01*
X215429Y253499D02*
X248115D01*
X216433Y252599D02*
X248083D01*
X216994Y251699D02*
X248083D01*
X217295Y250799D02*
X248083D01*
X217390Y249899D02*
X248083D01*
X217247Y230999D02*
X248041D01*
X197193Y245399D02*
X248023D01*
X217293Y248999D02*
X247942D01*
X216582Y227399D02*
X247925D01*
X232545Y162599D02*
X247870D01*
X217385Y230099D02*
X247473D01*
X215420Y246299D02*
X247466D01*
X216991Y248099D02*
X247434D01*
X238478Y177899D02*
X247431D01*
X217078Y228299D02*
X247427D01*
X211587Y142799D02*
X247339D01*
X231912Y157199D02*
X247338D01*
X232551Y163499D02*
X247298D01*
X217332Y229199D02*
X247296D01*
X216428Y247199D02*
X247296D01*
X237978Y176999D02*
X247295D01*
X237078Y176099D02*
X247295D01*
X236136Y175199D02*
X247295D01*
X231839Y174299D02*
X247295D01*
X232322Y173399D02*
X247295D01*
X232112Y167999D02*
X247295D01*
X232390Y167099D02*
X247295D01*
X232551Y166199D02*
X247295D01*
X232551Y165299D02*
X247295D01*
X232551Y164399D02*
X247295D01*
X232545Y156299D02*
X247295D01*
X232551Y155399D02*
X247295D01*
X232551Y154499D02*
X247295D01*
X232551Y153599D02*
X247295D01*
X232551Y152699D02*
X247295D01*
X232390Y151799D02*
X247295D01*
X232112Y150899D02*
X247295D01*
X232551Y149999D02*
X247295D01*
X232551Y149099D02*
X247295D01*
X232551Y148199D02*
X247295D01*
X232551Y147299D02*
X247295D01*
X232551Y146399D02*
X247295D01*
X232322Y145499D02*
X247295D01*
X213013Y144599D02*
X247295D01*
X212487Y143699D02*
X247295D01*
X240203Y191399D02*
X247228D01*
X243295Y286799D02*
X247193D01*
X242840Y106799D02*
X247160D01*
X242952Y113099D02*
X247048D01*
X232944Y168899D02*
X246818D01*
X243608Y107699D02*
X246392D01*
X243672Y112199D02*
X246328D01*
X210221Y192299D02*
X246328D01*
X185548Y291299D02*
X246135D01*
X244044Y108599D02*
X245956D01*
X244078Y111299D02*
X245922D01*
X243295Y287699D02*
X245905D01*
X244250Y109499D02*
X245750D01*
X244261Y110399D02*
X245739D01*
X186323Y290399D02*
X245530D01*
X243295Y288599D02*
X245439D01*
X209609Y193199D02*
X245428D01*
X243167Y289499D02*
X245330D01*
X234934Y302999D02*
X243097D01*
X217347Y219299D02*
X242884D01*
X235732Y294899D02*
X242299D01*
X217379Y220199D02*
X241952D01*
X236765Y302099D02*
X241267D01*
X217219Y221099D02*
X241052D01*
X237048Y295799D02*
X240984D01*
X237573Y301199D02*
X240459D01*
X237733Y296699D02*
X240298D01*
X216841Y221999D02*
X240152D01*
X238031Y300299D02*
X240000D01*
X238118Y297599D02*
X239914D01*
X238256Y299399D02*
X239776D01*
X238283Y298499D02*
X239748D01*
X216165Y222899D02*
X239252D01*
X184737Y200399D02*
X238946D01*
X231222Y105899D02*
X238778D01*
X214327Y205799D02*
X238665D01*
X184546Y201299D02*
X238648D01*
X168253Y114899D02*
X238083D01*
X231525Y113999D02*
X238067D01*
X150181Y204899D02*
X237817D01*
X184197Y202199D02*
X237811D01*
X150181Y203999D02*
X237491D01*
X183295Y203099D02*
X237490D01*
X168065Y115799D02*
X237395D01*
X232840Y106799D02*
X237160D01*
X232952Y113099D02*
X237048D01*
X233608Y107699D02*
X236392D01*
X233672Y112199D02*
X236328D01*
X234044Y108599D02*
X235956D01*
X234078Y111299D02*
X235922D01*
X234250Y109499D02*
X235750D01*
X234261Y110399D02*
X235739D01*
X231214Y289499D02*
X234864D01*
X231438Y282299D02*
X234801D01*
X232276Y288599D02*
X234736D01*
X232864Y287699D02*
X234736D01*
X233183Y286799D02*
X234736D01*
X233295Y285899D02*
X234736D01*
X233214Y284999D02*
X234736D01*
X232931Y284099D02*
X234736D01*
X232393Y283199D02*
X234736D01*
X208315Y182399D02*
X234697D01*
X208315Y181499D02*
X234697D01*
X208315Y180599D02*
X234697D01*
X208315Y179699D02*
X234697D01*
X208315Y178799D02*
X234351D01*
X226417Y183299D02*
X233425D01*
X226703Y191399D02*
X233140D01*
X224934Y302999D02*
X233097D01*
X227283Y184199D02*
X232560D01*
X227297Y190499D02*
X232545D01*
X227301Y189599D02*
X232541D01*
X227301Y188699D02*
X232541D01*
X227301Y187799D02*
X232541D01*
X227301Y186899D02*
X232541D01*
X227301Y185999D02*
X232541D01*
X227301Y185099D02*
X232541D01*
X225732Y294899D02*
X232299D01*
X226765Y302099D02*
X231267D01*
X227048Y295799D02*
X230984D01*
X227573Y301199D02*
X230459D01*
X227733Y296699D02*
X230298D01*
X228031Y300299D02*
X230000D01*
X228118Y297599D02*
X229914D01*
X228256Y299399D02*
X229776D01*
X228283Y298499D02*
X229748D01*
X208315Y177899D02*
X229518D01*
X221222Y105899D02*
X228778D01*
X218968Y176999D02*
X228618D01*
X221525Y113999D02*
X228475D01*
X219870Y176099D02*
X228072D01*
X220622Y175199D02*
X228004D01*
X220815Y174299D02*
X228004D01*
X221866Y150899D02*
X227731D01*
X213039Y145499D02*
X227521D01*
X220815Y173399D02*
X227520D01*
X222766Y151799D02*
X227453D01*
X220966Y149999D02*
X227291D01*
X216219Y149099D02*
X227291D01*
X216091Y148199D02*
X227291D01*
X215896Y147299D02*
X227291D01*
X213049Y146399D02*
X227291D01*
X222840Y106799D02*
X227160D01*
X222952Y113099D02*
X227048D01*
X223697Y152699D02*
X227031D01*
X187305Y289499D02*
X226818D01*
X216655Y282299D02*
X226594D01*
X223608Y107699D02*
X226392D01*
X223672Y112199D02*
X226328D01*
X224044Y108599D02*
X225956D01*
X224078Y111299D02*
X225922D01*
X197021Y288599D02*
X225755D01*
X224250Y109499D02*
X225750D01*
X224261Y110399D02*
X225739D01*
X215839Y283199D02*
X225638D01*
X197921Y287699D02*
X225167D01*
X213946Y284099D02*
X225101D01*
X198821Y286799D02*
X224848D01*
X200301Y284999D02*
X224817D01*
X199721Y285899D02*
X224737D01*
X214934Y302999D02*
X223097D01*
X215732Y294899D02*
X222299D01*
X216765Y302099D02*
X221267D01*
X217048Y295799D02*
X220984D01*
X217573Y301199D02*
X220459D01*
X217733Y296699D02*
X220298D01*
X218031Y300299D02*
X220000D01*
X209993Y183299D02*
X219925D01*
X218118Y297599D02*
X219914D01*
X218256Y299399D02*
X219776D01*
X218283Y298499D02*
X219748D01*
X210283Y191399D02*
X219640D01*
X210283Y184199D02*
X219060D01*
X210283Y190499D02*
X219045D01*
X210297Y185099D02*
X219028D01*
X210335Y189599D02*
X218990D01*
X213759Y105899D02*
X218778D01*
X213895Y113999D02*
X218475D01*
X214278Y106799D02*
X217160D01*
X214280Y113099D02*
X217048D01*
X214280Y107699D02*
X216392D01*
X214280Y112199D02*
X216328D01*
X214280Y108599D02*
X215956D01*
X214280Y111299D02*
X215922D01*
X214280Y109499D02*
X215750D01*
X214280Y110399D02*
X215739D01*
X207112Y131099D02*
X213360D01*
X204934Y302999D02*
X213097D01*
X207586Y138299D02*
X212886D01*
X207615Y131999D02*
X212857D01*
X207616Y137399D02*
X212856D01*
X207616Y136499D02*
X212856D01*
X207616Y135599D02*
X212856D01*
X207616Y134699D02*
X212856D01*
X207616Y133799D02*
X212856D01*
X207616Y132899D02*
X212856D01*
X169325Y215699D02*
X212304D01*
X205732Y294899D02*
X212299D01*
X200343Y284099D02*
X212274D01*
X165539Y205799D02*
X211893D01*
X169985Y213899D02*
X211581D01*
X200343Y275999D02*
X211355D01*
X206765Y302099D02*
X211267D01*
X200343Y266099D02*
X211147D01*
X138532Y233699D02*
X211136D01*
X207048Y295799D02*
X210984D01*
X200343Y256199D02*
X210965D01*
X197193Y243599D02*
X210955D01*
X197193Y246299D02*
X210801D01*
X200343Y253499D02*
X210792D01*
X138532Y236399D02*
X210652D01*
X200343Y263399D02*
X210644D01*
X200343Y273299D02*
X210508D01*
X207573Y301199D02*
X210459D01*
X168757Y216599D02*
X210389D01*
X200343Y283199D02*
X210382D01*
X207733Y296699D02*
X210298D01*
X167230Y206699D02*
X210272D01*
X170120Y212999D02*
X210157D01*
X200343Y276899D02*
X210061D01*
X162056Y222899D02*
X210055D01*
X208031Y300299D02*
X210000D01*
X200343Y266999D02*
X209966D01*
X138532Y232799D02*
X209960D01*
X208118Y297599D02*
X209914D01*
X200343Y257099D02*
X209876D01*
X197389Y242699D02*
X209871D01*
X197193Y247199D02*
X209792D01*
X201032Y252599D02*
X209788D01*
X208256Y299399D02*
X209776D01*
X208283Y298499D02*
X209748D01*
X208315Y176999D02*
X209722D01*
X138532Y237299D02*
X209713D01*
X200343Y262499D02*
X209709D01*
X162201Y227399D02*
X209638D01*
X200343Y272399D02*
X209635D01*
X167960Y217499D02*
X209569D01*
X200343Y282299D02*
X209565D01*
X168251Y207599D02*
X209503D01*
X170139Y212099D02*
X209438D01*
X200343Y277799D02*
X209383D01*
X135762Y221999D02*
X209380D01*
X200343Y267899D02*
X209328D01*
X138532Y231899D02*
X209325D01*
X200343Y257999D02*
X209277D01*
X198289Y241799D02*
X209274D01*
X197193Y248099D02*
X209229D01*
X201932Y251699D02*
X209226D01*
X200343Y261599D02*
X209182D01*
X138457Y238199D02*
X209164D01*
X101130Y228299D02*
X209142D01*
X200343Y271499D02*
X209140D01*
X166789Y218399D02*
X209103D01*
X200343Y281399D02*
X209101D01*
X168964Y208499D02*
X209067D01*
X170042Y211199D02*
X209032D01*
X200343Y278699D02*
X209003D01*
X135739Y221099D02*
X209002D01*
X200343Y268799D02*
X208975D01*
X138416Y230999D02*
X208974D01*
X200343Y258899D02*
X208950D01*
X200343Y260699D02*
X208906D01*
X101130Y229199D02*
X208889D01*
X200343Y270599D02*
X208888D01*
X164499Y219299D02*
X208873D01*
X200343Y280499D02*
X208873D01*
X169473Y209399D02*
X208860D01*
X169824Y210299D02*
X208849D01*
X200343Y279599D02*
X208841D01*
X135521Y220199D02*
X208841D01*
X200343Y269699D02*
X208835D01*
X101130Y230099D02*
X208835D01*
X200343Y259799D02*
X208832D01*
X154904Y105899D02*
X206241D01*
X168153Y113999D02*
X206105D01*
X155433Y106799D02*
X205722D01*
X167734Y113099D02*
X205720D01*
X168093Y112199D02*
X205720D01*
X168256Y111299D02*
X205720D01*
X168256Y110399D02*
X205720D01*
X168256Y109499D02*
X205720D01*
X168256Y108599D02*
X205720D01*
X168193Y107699D02*
X205720D01*
X160915Y182399D02*
X204480D01*
X160915Y181499D02*
X204480D01*
X160915Y180599D02*
X204480D01*
X160915Y179699D02*
X204480D01*
X160915Y178799D02*
X204480D01*
X160915Y177899D02*
X204480D01*
X160915Y176999D02*
X204480D01*
X160915Y176099D02*
X204480D01*
X160915Y175199D02*
X204480D01*
X160915Y174299D02*
X204480D01*
X192952Y173399D02*
X204480D01*
X196290Y172499D02*
X204480D01*
X197217Y171599D02*
X204480D01*
X198272Y170699D02*
X203953D01*
X194934Y302999D02*
X203097D01*
X193580Y193199D02*
X202399D01*
X195732Y294899D02*
X202299D01*
X194190Y183299D02*
X202015D01*
X194186Y192299D02*
X201787D01*
X194339Y191399D02*
X201724D01*
X194339Y190499D02*
X201724D01*
X194339Y189599D02*
X201724D01*
X194339Y188699D02*
X201724D01*
X194339Y187799D02*
X201724D01*
X194339Y186899D02*
X201724D01*
X194339Y185999D02*
X201724D01*
X194339Y185099D02*
X201724D01*
X194339Y184199D02*
X201724D01*
X196765Y302099D02*
X201267D01*
X197048Y295799D02*
X200984D01*
X197573Y301199D02*
X200459D01*
X197193Y248999D02*
X200323D01*
X197733Y296699D02*
X200298D01*
X198031Y300299D02*
X200000D01*
X198118Y297599D02*
X199914D01*
X161487Y131099D02*
X199860D01*
X198256Y299399D02*
X199776D01*
X198283Y298499D02*
X199748D01*
X197193Y249899D02*
X199423D01*
X192469Y138299D02*
X199386D01*
X161745Y131999D02*
X199357D01*
X192872Y137399D02*
X199353D01*
X161689Y132899D02*
X199273D01*
X192469Y142799D02*
X198698D01*
X197193Y250799D02*
X198523D01*
X192469Y143699D02*
X197798D01*
X192469Y144599D02*
X197313D01*
X193181Y149099D02*
X197295D01*
X193181Y148199D02*
X197295D01*
X193181Y147299D02*
X197295D01*
X193181Y146399D02*
X197295D01*
X192952Y145499D02*
X197295D01*
X193181Y149999D02*
X197293D01*
X144872Y239099D02*
X196680D01*
X192742Y150899D02*
X196553D01*
X146809Y239999D02*
X195780D01*
X193019Y151799D02*
X195653D01*
X147632Y240899D02*
X194880D01*
X148099Y241799D02*
X194218D01*
X101130Y280499D02*
X194146D01*
X101130Y279599D02*
X194146D01*
X132074Y278699D02*
X194146D01*
X133159Y277799D02*
X194146D01*
X133757Y276899D02*
X194146D01*
X134083Y275999D02*
X194146D01*
X134200Y275099D02*
X194146D01*
X141970Y274199D02*
X194146D01*
X143151Y273299D02*
X194146D01*
X143821Y272399D02*
X194146D01*
X144216Y271499D02*
X194146D01*
X144408Y270599D02*
X194146D01*
X144422Y269699D02*
X194146D01*
X144258Y268799D02*
X194146D01*
X143897Y267899D02*
X194146D01*
X143278Y266999D02*
X194146D01*
X142213Y266099D02*
X194146D01*
X101130Y265199D02*
X194146D01*
X101130Y264299D02*
X194146D01*
X101130Y263399D02*
X194146D01*
X146635Y262499D02*
X194146D01*
X147536Y261599D02*
X194146D01*
X148046Y260699D02*
X194146D01*
X148309Y259799D02*
X194146D01*
X148371Y258899D02*
X194146D01*
X148242Y257999D02*
X194146D01*
X147901Y257099D02*
X194146D01*
X147284Y256199D02*
X194146D01*
X147827Y255299D02*
X194146D01*
X148372Y254399D02*
X194146D01*
X148374Y253499D02*
X194146D01*
X148374Y252599D02*
X194146D01*
X148374Y251699D02*
X194146D01*
X148374Y250799D02*
X194146D01*
X148374Y249899D02*
X194146D01*
X148374Y248999D02*
X194146D01*
X148374Y248099D02*
X194146D01*
X148008Y247199D02*
X194146D01*
X147212Y246299D02*
X194146D01*
X147828Y245399D02*
X194146D01*
X148205Y244499D02*
X194146D01*
X148364Y243599D02*
X194146D01*
X148331Y242699D02*
X194146D01*
X101130Y281399D02*
X193612D01*
X184934Y302999D02*
X193097D01*
X101130Y282299D02*
X192712D01*
X185753Y294899D02*
X192299D01*
X150181Y196799D02*
X191501D01*
X186765Y302099D02*
X191267D01*
X161296Y133799D02*
X191049D01*
X187048Y295799D02*
X190984D01*
X150181Y195899D02*
X190727D01*
X187573Y301199D02*
X190459D01*
X187733Y296699D02*
X190298D01*
X160746Y134699D02*
X190149D01*
X188031Y300299D02*
X190000D01*
X188118Y297599D02*
X189914D01*
X150181Y194999D02*
X189827D01*
X188256Y299399D02*
X189776D01*
X188283Y298499D02*
X189748D01*
X168582Y135599D02*
X189249D01*
X150228Y194099D02*
X189157D01*
X180658Y160799D02*
X189028D01*
X180658Y159899D02*
X189028D01*
X180658Y158999D02*
X189028D01*
X180658Y158099D02*
X189028D01*
X151090Y193199D02*
X189000D01*
X169488Y136499D02*
X188703D01*
X180187Y144599D02*
X188634D01*
X179294Y143699D02*
X188634D01*
X178394Y142799D02*
X188634D01*
X177494Y141899D02*
X188634D01*
X171781Y140999D02*
X188634D01*
X170883Y140099D02*
X188634D01*
X170778Y139199D02*
X188634D01*
X170757Y138299D02*
X188634D01*
X170369Y137399D02*
X188634D01*
X180658Y161699D02*
X188561D01*
X180658Y157199D02*
X188560D01*
X176628Y167999D02*
X188361D01*
X180658Y150899D02*
X188361D01*
X183626Y145499D02*
X188151D01*
X160915Y173399D02*
X188150D01*
X180658Y151799D02*
X188083D01*
X177568Y167099D02*
X188083D01*
X180658Y162599D02*
X187927D01*
X180658Y156299D02*
X187927D01*
X176488Y168899D02*
X187921D01*
X160915Y172499D02*
X187921D01*
X160915Y171599D02*
X187921D01*
X160915Y170699D02*
X187921D01*
X160951Y169799D02*
X187921D01*
X178639Y166199D02*
X187921D01*
X179539Y165299D02*
X187921D01*
X180368Y164399D02*
X187921D01*
X180654Y163499D02*
X187921D01*
X180658Y155399D02*
X187921D01*
X180658Y154499D02*
X187921D01*
X180658Y153599D02*
X187921D01*
X180658Y152699D02*
X187921D01*
X184564Y149999D02*
X187707D01*
X164815Y192299D02*
X185932D01*
X160830Y183299D02*
X185928D01*
X177281Y285899D02*
X185810D01*
X165697Y191399D02*
X185780D01*
X166579Y190499D02*
X185780D01*
X184096Y185099D02*
X185780D01*
X160245Y184199D02*
X185780D01*
X176380Y286799D02*
X185619D01*
X175562Y287699D02*
X184713D01*
X175539Y288599D02*
X183813D01*
X177630Y302999D02*
X183097D01*
X150181Y197699D02*
X182970D01*
X175539Y289499D02*
X182914D01*
X175539Y290399D02*
X182500D01*
X175539Y293999D02*
X182492D01*
X175539Y293099D02*
X182492D01*
X175539Y292199D02*
X182492D01*
X175539Y291299D02*
X182492D01*
X177992Y294899D02*
X182279D01*
X180646Y145499D02*
X181728D01*
X178288Y302099D02*
X181267D01*
X159345Y185099D02*
X181259D01*
X167461Y189599D02*
X181100D01*
X178295Y295799D02*
X180984D01*
X150181Y203099D02*
X180485D01*
X178295Y301199D02*
X180459D01*
X150181Y198599D02*
X180301D01*
X178295Y296699D02*
X180298D01*
X178295Y300299D02*
X180000D01*
X178295Y297599D02*
X179914D01*
X178295Y299399D02*
X179776D01*
X178295Y298499D02*
X179748D01*
X150181Y202199D02*
X179582D01*
X150181Y199499D02*
X179512D01*
X150181Y201299D02*
X179234D01*
X150181Y200399D02*
X179213D01*
X161040Y160799D02*
X176823D01*
X161655Y159899D02*
X176823D01*
X169266Y158999D02*
X176823D01*
X170166Y158099D02*
X176823D01*
X170710Y157199D02*
X176823D01*
X170778Y156299D02*
X176823D01*
X170778Y155399D02*
X176823D01*
X170778Y154499D02*
X176823D01*
X170886Y153599D02*
X176823D01*
X171750Y152699D02*
X176823D01*
X171791Y151799D02*
X176823D01*
X171791Y150899D02*
X176823D01*
X171791Y149999D02*
X176823D01*
X171791Y149099D02*
X176823D01*
X171617Y148199D02*
X176823D01*
X167037Y147299D02*
X176823D01*
X167585Y146399D02*
X176571D01*
X171619Y145499D02*
X175671D01*
X101130Y283199D02*
X175670D01*
X101130Y284099D02*
X174770D01*
X167517Y116699D02*
X174687D01*
X101130Y284999D02*
X173870D01*
X165973Y117599D02*
X173784D01*
X101130Y285899D02*
X172970D01*
X155461Y118499D02*
X172884D01*
X101130Y286799D02*
X172507D01*
X165849Y293999D02*
X172492D01*
X164972Y293099D02*
X172492D01*
X163690Y292199D02*
X172492D01*
X160943Y291299D02*
X172492D01*
X133519Y290399D02*
X172492D01*
X132743Y289499D02*
X172492D01*
X131087Y288599D02*
X172492D01*
X101130Y287699D02*
X172492D01*
X156657Y126599D02*
X172034D01*
X155461Y119399D02*
X172034D01*
X155461Y120299D02*
X171713D01*
X155461Y122099D02*
X171705D01*
X155461Y121199D02*
X171705D01*
X156688Y122999D02*
X171314D01*
X157125Y125699D02*
X171244D01*
X157307Y123899D02*
X170966D01*
X157420Y124799D02*
X170945D01*
X166322Y302999D02*
X170402D01*
X166487Y294899D02*
X170040D01*
X166833Y302099D02*
X169744D01*
X167196Y301199D02*
X169736D01*
X167433Y300299D02*
X169736D01*
X167557Y299399D02*
X169736D01*
X167572Y298499D02*
X169736D01*
X167480Y297599D02*
X169736D01*
X167277Y296699D02*
X169736D01*
X166951Y295799D02*
X169736D01*
X162918Y161699D02*
X168578D01*
X162988Y168899D02*
X168508D01*
X163128Y167999D02*
X168368D01*
X163128Y167099D02*
X168368D01*
X163128Y166199D02*
X168368D01*
X163128Y165299D02*
X168368D01*
X163128Y164399D02*
X168368D01*
X163128Y163499D02*
X168368D01*
X163128Y162599D02*
X168368D01*
X154104Y155399D02*
X166943D01*
X163466Y154499D02*
X166943D01*
X164565Y153599D02*
X166835D01*
X158445Y185999D02*
X165622D01*
X145340Y186899D02*
X164738D01*
X155461Y117599D02*
X164736D01*
X144456Y187799D02*
X163856D01*
X113971Y149999D02*
X163545D01*
X134764Y150899D02*
X163221D01*
X155461Y116699D02*
X163192D01*
X155461Y113099D02*
X162974D01*
X144377Y188699D02*
X162974D01*
X155461Y115799D02*
X162644D01*
X155461Y112199D02*
X162616D01*
X155461Y113999D02*
X162555D01*
X155461Y107699D02*
X162516D01*
X155461Y114899D02*
X162456D01*
X155461Y111299D02*
X162453D01*
X155461Y110399D02*
X162453D01*
X155461Y109499D02*
X162453D01*
X155461Y108599D02*
X162453D01*
X135069Y219299D02*
X161722D01*
X150181Y205799D02*
X160681D01*
X153399Y156299D02*
X159866D01*
X134275Y218399D02*
X159432D01*
X135590Y222899D02*
X159204D01*
X101130Y227399D02*
X159059D01*
X133959Y291299D02*
X159057D01*
X150181Y206699D02*
X158990D01*
X153398Y157199D02*
X158930D01*
X135199Y223799D02*
X158315D01*
X132522Y217499D02*
X158261D01*
X101130Y226499D02*
X158259D01*
X153398Y158099D02*
X158030D01*
X134503Y224699D02*
X157971D01*
X150178Y207599D02*
X157969D01*
X133154Y225599D02*
X157955D01*
X137922Y139199D02*
X157698D01*
X101130Y216599D02*
X157464D01*
X153484Y149099D02*
X157323D01*
X153481Y144599D02*
X157303D01*
X153398Y158999D02*
X157276D01*
X137001Y140099D02*
X157265D01*
X149889Y208499D02*
X157257D01*
X138462Y181499D02*
X157081D01*
X134068Y180599D02*
X157081D01*
X134256Y179699D02*
X157081D01*
X134761Y178799D02*
X157081D01*
X134972Y177899D02*
X157081D01*
X134943Y176999D02*
X157081D01*
X134668Y176099D02*
X157081D01*
X148153Y175199D02*
X157081D01*
X151342Y174299D02*
X157081D01*
X152246Y173399D02*
X157081D01*
X153122Y172499D02*
X157081D01*
X153398Y171599D02*
X157081D01*
X153398Y170699D02*
X157081D01*
X153398Y159899D02*
X157081D01*
X153398Y160799D02*
X157075D01*
X153398Y169799D02*
X157045D01*
X101130Y215699D02*
X156895D01*
X134520Y143699D02*
X156855D01*
X101130Y305699D02*
X156820D01*
X149057Y209399D02*
X156748D01*
X138532Y182399D02*
X156622D01*
X134419Y140999D02*
X156596D01*
X101130Y214799D02*
X156496D01*
X134512Y142799D02*
X156435D01*
X148157Y210299D02*
X156396D01*
X134021Y141899D02*
X156360D01*
X134169Y292199D02*
X156310D01*
X132861Y213899D02*
X156236D01*
X147257Y211199D02*
X156178D01*
X134386Y212999D02*
X156100D01*
X135133Y212099D02*
X156081D01*
X101130Y304799D02*
X155343D01*
X153398Y161699D02*
X155078D01*
X140875Y293099D02*
X155028D01*
X153398Y168899D02*
X155008D01*
X153398Y167999D02*
X154868D01*
X153398Y167099D02*
X154868D01*
X153398Y166199D02*
X154868D01*
X153398Y165299D02*
X154868D01*
X153398Y164399D02*
X154868D01*
X153398Y163499D02*
X154868D01*
X153398Y162599D02*
X154868D01*
X101130Y303899D02*
X154375D01*
X142696Y293999D02*
X154151D01*
X134988Y151799D02*
X153862D01*
X101130Y302999D02*
X153678D01*
X143550Y294899D02*
X153513D01*
X141157Y302099D02*
X153167D01*
X144060Y295799D02*
X153049D01*
X142790Y301199D02*
X152804D01*
X134988Y152699D02*
X152759D01*
X144342Y296699D02*
X152723D01*
X143606Y300299D02*
X152567D01*
X144437Y297599D02*
X152520D01*
X144093Y299399D02*
X152443D01*
X144357Y298499D02*
X152428D01*
X134119Y121199D02*
X152413D01*
X134326Y120299D02*
X152413D01*
X134520Y119399D02*
X152413D01*
X134520Y118499D02*
X152413D01*
X134520Y117599D02*
X152413D01*
X134520Y116699D02*
X152413D01*
X134518Y115799D02*
X152413D01*
X133974Y114899D02*
X152413D01*
X101130Y113999D02*
X152413D01*
X101130Y113099D02*
X152413D01*
X101130Y112199D02*
X152413D01*
X101130Y111299D02*
X152413D01*
X101130Y110399D02*
X152413D01*
X101130Y109499D02*
X152413D01*
X101130Y108599D02*
X152413D01*
X134540Y122099D02*
X152413D01*
X101130Y107699D02*
X152359D01*
X134988Y153599D02*
X151859D01*
X127720Y106799D02*
X151494D01*
X147739Y130199D02*
X151232D01*
X144211Y126599D02*
X151217D01*
X144877Y122999D02*
X151186D01*
X134988Y154499D02*
X150959D01*
X145314Y125699D02*
X150749D01*
X149128Y131099D02*
X150690D01*
X125931Y129299D02*
X150671D01*
X125933Y127499D02*
X150622D01*
X145496Y123899D02*
X150567D01*
X147697Y155399D02*
X150543D01*
X147591Y170699D02*
X150539D01*
X140393Y169799D02*
X150539D01*
X139607Y168899D02*
X150539D01*
X138707Y167999D02*
X150539D01*
X135042Y167099D02*
X150539D01*
X134937Y166199D02*
X150539D01*
X134159Y165299D02*
X150539D01*
X134488Y164399D02*
X150539D01*
X145299Y163499D02*
X150539D01*
X146199Y162599D02*
X150539D01*
X146723Y161699D02*
X150539D01*
X146792Y160799D02*
X150539D01*
X148127Y159899D02*
X150539D01*
X148256Y158999D02*
X150539D01*
X148256Y158099D02*
X150539D01*
X148256Y157199D02*
X150539D01*
X148253Y156299D02*
X150539D01*
X145609Y124799D02*
X150454D01*
X125933Y128399D02*
X150446D01*
X148298Y171599D02*
X150001D01*
X144377Y189599D02*
X149306D01*
X138822Y138299D02*
X148936D01*
X144377Y190499D02*
X148361D01*
X139545Y137399D02*
X148036D01*
X147282Y144599D02*
X147994D01*
X147285Y149099D02*
X147990D01*
X144377Y191399D02*
X147461D01*
X139713Y136499D02*
X147188D01*
X139713Y135599D02*
X146872D01*
X139713Y134699D02*
X146865D01*
X144377Y192299D02*
X146633D01*
X144377Y193199D02*
X146350D01*
X132897Y205799D02*
X146347D01*
X101130Y204899D02*
X146347D01*
X101130Y203999D02*
X146347D01*
X101130Y203099D02*
X146347D01*
X132470Y202199D02*
X146347D01*
X134260Y201299D02*
X146347D01*
X135061Y200399D02*
X146347D01*
X141775Y199499D02*
X146347D01*
X142685Y198599D02*
X146347D01*
X143585Y197699D02*
X146347D01*
X144250Y196799D02*
X146347D01*
X144377Y195899D02*
X146347D01*
X144377Y194999D02*
X146347D01*
X144377Y194099D02*
X146347D01*
X134400Y206699D02*
X146296D01*
X135140Y207599D02*
X145434D01*
X138532Y183299D02*
X143517D01*
X101130Y239099D02*
X143317D01*
X141391Y170699D02*
X142861D01*
X141497Y155399D02*
X142755D01*
X138532Y184199D02*
X142617D01*
X134520Y144599D02*
X141794D01*
X114083Y149099D02*
X141791D01*
X138532Y185099D02*
X141717D01*
X101130Y262499D02*
X141554D01*
X114083Y148199D02*
X141508D01*
X134367Y147299D02*
X141508D01*
X134520Y146399D02*
X141508D01*
X134520Y145499D02*
X141508D01*
X101130Y239999D02*
X141380D01*
X101130Y246299D02*
X140977D01*
X101130Y256199D02*
X140905D01*
X138532Y185999D02*
X140868D01*
X101130Y261599D02*
X140653D01*
X101130Y240899D02*
X140557D01*
X138532Y186899D02*
X140550D01*
X134515Y194999D02*
X140542D01*
X133184Y194099D02*
X140542D01*
X101130Y193199D02*
X140542D01*
X101130Y192299D02*
X140542D01*
X101130Y191399D02*
X140542D01*
X101130Y190499D02*
X140542D01*
X101130Y189599D02*
X140542D01*
X138410Y188699D02*
X140542D01*
X138532Y187799D02*
X140542D01*
X101130Y255299D02*
X140362D01*
X101130Y245399D02*
X140361D01*
X101130Y257099D02*
X140288D01*
X101130Y247199D02*
X140181D01*
X101130Y260699D02*
X140143D01*
X101130Y241799D02*
X140090D01*
X134250Y126599D02*
X140041D01*
X101130Y244499D02*
X139984D01*
X135208Y195899D02*
X139962D01*
X101130Y257999D02*
X139947D01*
X101130Y259799D02*
X139880D01*
X101130Y242699D02*
X139858D01*
X101130Y243599D02*
X139825D01*
X101130Y258899D02*
X139818D01*
X101130Y254399D02*
X139817D01*
X101130Y253499D02*
X139815D01*
X101130Y252599D02*
X139815D01*
X101130Y251699D02*
X139815D01*
X101130Y250799D02*
X139815D01*
X101130Y249899D02*
X139815D01*
X101130Y248999D02*
X139815D01*
X101130Y248099D02*
X139815D01*
X137766Y122999D02*
X139370D01*
X134184Y293099D02*
X138652D01*
X125933Y130199D02*
X138642D01*
X101130Y302099D02*
X138371D01*
X134125Y274199D02*
X137558D01*
X101130Y266099D02*
X137315D01*
X125933Y131099D02*
X137253D01*
X134004Y293999D02*
X136832D01*
X101130Y301199D02*
X136737D01*
X134988Y155399D02*
X136555D01*
X134489Y160799D02*
X136471D01*
X133848Y273299D02*
X136377D01*
X125914Y131999D02*
X136358D01*
X101130Y266999D02*
X136249D01*
X135040Y170699D02*
X136158D01*
X134608Y125699D02*
X136143D01*
X133711Y159899D02*
X136125D01*
X134070Y175199D02*
X136099D01*
X134936Y171599D02*
X136004D01*
X134988Y156299D02*
X135999D01*
X132747Y174299D02*
X135996D01*
X101130Y173399D02*
X135996D01*
X101130Y172499D02*
X135996D01*
X101130Y158999D02*
X135996D01*
X101130Y158099D02*
X135996D01*
X134542Y157199D02*
X135996D01*
X133603Y294899D02*
X135977D01*
X101130Y300299D02*
X135922D01*
X125933Y132899D02*
X135914D01*
X125933Y135599D02*
X135878D01*
X125887Y134699D02*
X135878D01*
X125933Y133799D02*
X135878D01*
X133319Y272399D02*
X135707D01*
X101130Y267899D02*
X135630D01*
X132890Y295799D02*
X135468D01*
X101130Y299399D02*
X135435D01*
X132382Y271499D02*
X135311D01*
X101130Y268799D02*
X135269D01*
X134591Y136499D02*
X135192D01*
X131489Y296699D02*
X135186D01*
X101130Y298499D02*
X135171D01*
X101130Y270599D02*
X135120D01*
X101130Y269699D02*
X135106D01*
X101130Y297599D02*
X135091D01*
X101130Y202199D02*
X130522D01*
X101130Y217499D02*
X130471D01*
X101130Y174299D02*
X130245D01*
X101130Y213899D02*
X130131D01*
X101130Y205799D02*
X130095D01*
X101130Y225599D02*
X129838D01*
X101130Y194099D02*
X129809D01*
X101130Y114899D02*
X129806D01*
X123532Y141899D02*
X129758D01*
X123532Y121199D02*
X129660D01*
X125534Y126599D02*
X129529D01*
X123314Y120299D02*
X129453D01*
X114180Y147299D02*
X129412D01*
X123542Y140999D02*
X129361D01*
X101130Y159899D02*
X129281D01*
X123532Y142799D02*
X129268D01*
X101130Y115799D02*
X129262D01*
X123445Y146399D02*
X129260D01*
X123532Y145499D02*
X129260D01*
X123532Y144599D02*
X129260D01*
X123532Y143699D02*
X129260D01*
X123532Y125699D02*
X129260D01*
X123532Y124799D02*
X129260D01*
X123532Y123899D02*
X129260D01*
X123532Y122999D02*
X129260D01*
X123532Y122099D02*
X129260D01*
X114087Y119399D02*
X129260D01*
X114083Y118499D02*
X129260D01*
X114083Y117599D02*
X129260D01*
X113821Y116699D02*
X129260D01*
X126060Y136499D02*
X129234D01*
X101130Y180599D02*
X128924D01*
X101130Y175199D02*
X128922D01*
X101130Y165299D02*
X128833D01*
X101130Y288599D02*
X128756D01*
X101130Y179699D02*
X128736D01*
X101130Y201299D02*
X128732D01*
X101130Y218399D02*
X128717D01*
X101130Y212999D02*
X128606D01*
X101130Y206699D02*
X128592D01*
X101130Y164399D02*
X128504D01*
X101130Y160799D02*
X128503D01*
X101130Y224699D02*
X128489D01*
X101130Y194999D02*
X128477D01*
X101130Y157199D02*
X128450D01*
X101130Y296699D02*
X128354D01*
X101130Y176099D02*
X128324D01*
X101130Y178799D02*
X128231D01*
X101130Y150899D02*
X128229D01*
X101130Y163499D02*
X128122D01*
X101130Y161699D02*
X128122D01*
X101130Y171599D02*
X128056D01*
X101130Y166199D02*
X128055D01*
X101130Y176999D02*
X128049D01*
X101130Y177899D02*
X128020D01*
X101130Y170699D02*
X128004D01*
X101130Y169799D02*
X128004D01*
X101130Y168899D02*
X128004D01*
X101130Y167999D02*
X128004D01*
X101130Y167099D02*
X128004D01*
X101130Y162599D02*
X128004D01*
X101130Y156299D02*
X128004D01*
X101130Y155399D02*
X128004D01*
X101130Y154499D02*
X128004D01*
X101130Y153599D02*
X128004D01*
X101130Y152699D02*
X128004D01*
X101130Y151799D02*
X128004D01*
X101130Y200399D02*
X127931D01*
X101130Y219299D02*
X127923D01*
X101130Y212099D02*
X127860D01*
X101130Y207599D02*
X127852D01*
X101130Y223799D02*
X127793D01*
X101130Y195899D02*
X127786D01*
X101130Y278699D02*
X127769D01*
X101130Y199499D02*
X127476D01*
X101130Y220199D02*
X127471D01*
X101130Y271499D02*
X127460D01*
X101130Y211199D02*
X127437D01*
X101130Y208499D02*
X127433D01*
X101130Y222899D02*
X127402D01*
X101130Y196799D02*
X127398D01*
X101130Y198599D02*
X127254D01*
X101130Y221099D02*
X127253D01*
X101130Y210299D02*
X127241D01*
X101130Y209399D02*
X127240D01*
X101130Y221999D02*
X127230D01*
X101130Y197699D02*
X127229D01*
X101130Y289499D02*
X127100D01*
X101130Y295799D02*
X126952D01*
X101130Y277799D02*
X126684D01*
X101130Y272399D02*
X126523D01*
X101130Y290399D02*
X126324D01*
X101130Y294899D02*
X126240D01*
X101130Y276899D02*
X126086D01*
X101130Y273299D02*
X125994D01*
X101130Y291299D02*
X125883D01*
X101130Y293999D02*
X125838D01*
X101130Y275999D02*
X125760D01*
X101130Y274199D02*
X125717D01*
X101130Y292199D02*
X125673D01*
X101130Y293099D02*
X125659D01*
X101130Y275099D02*
X125643D01*
X101187Y101399D02*
X125594D01*
X101130Y102299D02*
X124788D01*
X101130Y188699D02*
X124582D01*
X101130Y230999D02*
X124576D01*
X101130Y238199D02*
X124535D01*
X101130Y181499D02*
X124530D01*
X101130Y237299D02*
X124461D01*
X101130Y236399D02*
X124461D01*
X101130Y235499D02*
X124461D01*
X101130Y234599D02*
X124461D01*
X101130Y233699D02*
X124461D01*
X101130Y232799D02*
X124461D01*
X101130Y231899D02*
X124461D01*
X101130Y187799D02*
X124461D01*
X101130Y186899D02*
X124461D01*
X101130Y185999D02*
X124461D01*
X101130Y185099D02*
X124461D01*
X101130Y184199D02*
X124461D01*
X101130Y183299D02*
X124461D01*
X101130Y182399D02*
X124461D01*
X101130Y106799D02*
X124248D01*
X101130Y103199D02*
X123751D01*
X101130Y105899D02*
X123548D01*
X101130Y104099D02*
X123353D01*
X101130Y104999D02*
X123293D01*
X101130Y116699D02*
X104604D01*
X101130Y133799D02*
X104555D01*
X101130Y149999D02*
X104455D01*
X101130Y132899D02*
X104427D01*
X101130Y127499D02*
X104397D01*
X101130Y140099D02*
X104353D01*
X101130Y139199D02*
X104348D01*
X101130Y149099D02*
X104342D01*
X101130Y148199D02*
X104342D01*
X101130Y147299D02*
X104342D01*
X101130Y146399D02*
X104342D01*
X101130Y145499D02*
X104342D01*
X101130Y144599D02*
X104342D01*
X101130Y143699D02*
X104342D01*
X101130Y142799D02*
X104342D01*
X101130Y141899D02*
X104342D01*
X101130Y140999D02*
X104342D01*
X101130Y138299D02*
X104342D01*
X101130Y137399D02*
X104342D01*
X101130Y136499D02*
X104342D01*
X101130Y135599D02*
X104342D01*
X101130Y134699D02*
X104342D01*
X101130Y131999D02*
X104342D01*
X101130Y131099D02*
X104342D01*
X101130Y130199D02*
X104342D01*
X101130Y129299D02*
X104342D01*
X101130Y128399D02*
X104342D01*
X101130Y126599D02*
X104342D01*
X101130Y125699D02*
X104342D01*
X101130Y124799D02*
X104342D01*
X101130Y123899D02*
X104342D01*
X101130Y122999D02*
X104342D01*
X101130Y122099D02*
X104342D01*
X101130Y121199D02*
X104342D01*
X101130Y120299D02*
X104342D01*
X101130Y119399D02*
X104342D01*
X101130Y118499D02*
X104342D01*
X101130Y117599D02*
X104342D01*
G54D42*
X343163Y214173D02*
X342033D01*
X339033Y218303D02*
Y217173D01*
X334904Y214173D02*
X336033D01*
X337453Y149606D02*
X338583D01*
X341732Y141587D02*
Y142717D01*
X346012Y149606D02*
X344882D01*
X341732Y157626D02*
Y156496D01*
X335383Y222567D02*
Y223697D01*
X338413Y225197D02*
X337283D01*
X335383Y227827D02*
Y226697D01*
X333101Y239903D02*
X333900Y239104D01*
X336466Y239903D02*
X335667Y239104D01*
X336466Y232538D02*
X335667Y233337D01*
X333101Y232538D02*
X333900Y233337D01*
X139026Y155244D02*
Y156374D01*
X135996Y157874D02*
X137126D01*
X144538Y149480D02*
Y148350D01*
X141508Y146850D02*
X142638D01*
X144538Y144220D02*
Y145350D01*
X104343Y122047D02*
X105472D01*
X109213Y116291D02*
Y117421D01*
X118268Y119835D02*
Y120965D01*
X123531Y123819D02*
X122402D01*
X116587Y128346D02*
X117717D01*
X125933D02*
X124803D01*
X118268Y147094D02*
Y145965D01*
X123531Y143110D02*
X122402D01*
X109213Y150638D02*
Y149508D01*
X104343Y144882D02*
X105472D01*
X129260Y144832D02*
X130390D01*
X134520D02*
X133390D01*
X131890Y147862D02*
Y146732D01*
X232551Y148081D02*
X231421D01*
X227291D02*
X228421D01*
X229921Y145051D02*
Y146181D01*
X216986Y130909D02*
Y132039D01*
X221116Y135039D02*
X219986D01*
X216986Y139169D02*
Y138039D01*
X212856Y135039D02*
X213986D01*
X134520Y117766D02*
X133390D01*
X129260D02*
X130390D01*
X131890Y114736D02*
Y115866D01*
X324283Y148081D02*
X323154D01*
X319024D02*
X320154D01*
X321654Y145051D02*
Y146181D01*
X308719Y130516D02*
Y131646D01*
X312848Y134646D02*
X311719D01*
X308719Y138776D02*
Y137646D01*
X304589Y134646D02*
X305719D01*
X326131Y125071D02*
Y123941D01*
Y119811D02*
Y120941D01*
X329161Y122441D02*
X328031D01*
X216091Y168110D02*
X214961D01*
X214075Y172094D02*
Y170965D01*
Y164126D02*
Y165256D01*
X247295Y150000D02*
X248425D01*
X251575Y141980D02*
Y143110D01*
X255854Y150000D02*
X254724D01*
X251575Y158020D02*
Y156890D01*
X265224Y209843D02*
X264094D01*
X262126Y216878D02*
Y215748D01*
X259028Y209843D02*
X260157D01*
X151064Y126852D02*
X151863Y127650D01*
X151064Y129841D02*
X151863Y129042D01*
X156810Y126852D02*
X156011Y127650D01*
X298130Y154772D02*
Y153642D01*
X296114Y150787D02*
X297244D01*
X298130Y146803D02*
Y147933D01*
X307823Y168110D02*
X306693D01*
X305807Y164126D02*
Y165256D01*
X206398Y154772D02*
Y153642D01*
X204382Y150787D02*
X205512D01*
X206398Y146803D02*
Y147933D01*
X328101Y263525D02*
X328900Y262726D01*
X331466Y263525D02*
X330667Y262726D01*
X331466Y256160D02*
X330667Y256959D01*
X328101Y256160D02*
X328900Y256959D01*
G54D77*
X160000Y298819D03*
X360236Y240000D03*
Y130000D03*
G74*
X0Y0D02*
M02*
