%
T1C.01575F095S3
X012598Y010472
X0165Y0125
X017362Y012441
X018Y0125
X0185Y0125
X019Y0125
X0195Y0125
X0225Y0125
X023Y0125
X0235Y0125
X0255Y012
X0255Y0125
X026Y012
X026Y0125
X0265Y012
X0265Y0125
X027Y012
X027Y0125
X034Y012
X034Y0125
X0345Y012
X0345Y0125
X035Y0125
X035Y012
X0365Y014
X0365Y0145
X0365Y015
X036Y014
X036Y0145
X036Y015
X035Y013
X035Y0135
X0345Y013
X0345Y0135
X034Y0135
X034Y013
X0335Y013
X0335Y0135
X027244Y014803
X026Y0135
X026Y013
X0255Y0135
X0255Y013
X0235Y013
X023Y013
X0225Y013
X0195Y013
X019Y013
X0185Y013
X0185Y014
X0185Y0135
X018268Y014803
X018Y0135
X018Y013
X018Y014
X015906Y013228
X015906Y014213
X02Y016
X02Y0155
X02Y0165
X0205Y016
X0215Y016
X022Y0155
X022Y016
X022Y0165
X0225Y016
X0225Y0165
X026378Y017087
X029Y0155
X029Y016
X029Y0165
X0295Y0155
X0295Y016
X0295Y0165
X031Y0155
X031Y016
X031Y0165
X031Y017
X0315Y016
X0315Y0165
X036Y0155
X036Y016
X036Y0165
X036Y017
X0365Y0155
X0365Y016
X0365Y0165
X0365Y017
X033307Y020354
X032Y0195
X032Y02
X0315Y02
X0315Y0195
X031Y02
X031Y0195
X0305Y02
X03Y02
X027244Y01874
X024016Y020354
X018268Y01874
X018189Y020079
X011Y019
X011Y0195
X011Y0185
X011Y02
X0105Y0195
X0105Y02
X0105Y019
X0105Y0185
X0105Y021
X0105Y0205
X011Y0205
X011Y021
X016063Y02252
X025Y020984
X025Y022913
X027205Y021693
X027205Y022362
X02815Y022913
X03Y0215
X03Y021
X03Y0205
X0305Y0205
X0305Y021
X0305Y0215
X031772Y022362
X032913Y020866
X03378Y024449
X030591Y023504
X02815Y023504
X025Y024724
X023Y0235
X023Y024
X023Y0245
X023Y025
X023Y023
X0225Y0235
X0225Y023
X0225Y024
X0225Y0245
X0225Y025
X022Y0245
X022Y025
X022Y0235
X022Y024
X022Y023
X0125Y0245
X0125Y025
X0125Y024
X012Y0245
X012Y025
X012Y024
X0115Y025
X0115Y024
X0115Y0245
X011Y023
X011Y025
X011Y0245
X011Y0235
X011Y024
X0105Y024
X0105Y0245
X0105Y025
X0105Y023
X0105Y0235
X0105Y0255
X0105Y026
X0105Y0265
X0105Y027
X011Y0255
X011Y026
X011Y027
X011Y0265
X0115Y0255
X0115Y026
X012Y0255
X012Y026
X0125Y0255
X0125Y026
X017Y0275
X018Y0275
X019Y0275
X022Y0255
X022Y026
X0225Y0255
X0225Y026
X023Y0255
X023Y026
X0245Y027
X0245Y0275
X025Y027
X025Y0275
X0255Y027
X0255Y0275
X026181Y026535
X02815Y025669
X029843Y026535
X030157Y025512
X033Y027
X033Y0275
X0335Y027
X0335Y0275
X0335Y028
X033Y028
X030039Y028701
X02563Y028543
X024803Y028937
X019Y028
X018Y028
X017Y028
X016Y028
X015Y028
T2C.01969F095S3
X016535Y010984
X016535Y011476
X035236Y018268
X035236Y01876
X035236Y019252
X035236Y019744
X035236Y020236
X035236Y022539
X035236Y022047
X035236Y020728
T3C.02362F197S55
X012795Y023465G85X013504Y023465
X012795Y018504G85X013504Y018504
T4C.0315F197S55
X01315Y015394
X01315Y017756
X01315Y01689
X01315Y01626
T5C.03543F197S55
X021Y011
X022Y011
X023Y011
X024Y011
X025Y011
X026Y011
X027Y011
X028Y011
X03Y011
X031Y011
X032Y011
X033Y011
X034Y011
X035Y011
X021311Y02099
X021311Y02199
X021311Y02299
X021311Y02399
X021311Y02499
X014409Y024331
X014409Y025118
X014409Y025906
X017402Y029882
X018402Y029882
X019402Y029882
X020402Y029882
X021311Y02799
X021311Y02599
X021311Y02699
X021402Y029882
X022402Y029882
X023402Y029882
X024402Y029882
X025402Y029882
X026402Y029882
X028Y029882
X029Y029882
X03Y029882
X031Y029882
X032Y029882
X033Y029882
X034Y029882
X035Y029882
T6C.03937F197S55
X01315Y019803
X01315Y022165
X01315Y020984
X035157Y025945
X035157Y026945
X035157Y027945
X023902Y028583
X022902Y028583
X012992Y029272
X012992Y0275
T7C.04724F139S55
X013976Y027008
X013976Y029764
T8C.07874F081S55
X016311Y02124
T9C.12598F035S794
X036024Y013
X036024Y024
X016Y029882
M30
