*
*
G04 PADS 9.5 Build Number: 522968 generated Gerber (RS-274-X) file*
G04 PC Version=2.1*
*
%IN "Arudino_VarioShield_UNO"*%
*
%MOIN*%
*
%FSLAX35Y35*%
*
*
*
*
G04 PC Standard Apertures*
*
*
G04 Thermal Relief Aperture macro.*
%AMTER*
1,1,$1,0,0*
1,0,$1-$2,0,0*
21,0,$3,$4,0,0,45*
21,0,$3,$4,0,0,135*
%
*
*
G04 Annular Aperture macro.*
%AMANN*
1,1,$1,0,0*
1,0,$2,0,0*
%
*
*
G04 Odd Aperture macro.*
%AMODD*
1,1,$1,0,0*
1,0,$1-0.005,0,0*
%
*
*
G04 PC Custom Aperture Macros*
*
*
*
*
*
*
G04 PC Aperture Table*
*
%ADD010C,0.001*%
%ADD051C,0.07299*%
%ADD052C,0.12811*%
%ADD053R,0.07299X0.07299*%
%ADD063R,0.046X0.046*%
%ADD065R,0.04543X0.04543*%
%ADD066C,0.04543*%
%ADD067R,0.05724X0.05724*%
%ADD068C,0.05724*%
%ADD069R,0.04X0.048*%
%ADD070R,0.048X0.04*%
%ADD071C,0.08087*%
%ADD075R,0.046X0.06*%
%ADD076R,0.12811X0.04937*%
%ADD078C,0.13598*%
*
*
*
*
G04 PC Circuitry*
G04 Layer Name Arudino_VarioShield_UNO - circuitry*
%LPD*%
*
*
G04 PC Custom Flashes*
G04 Layer Name Arudino_VarioShield_UNO - flashes*
%LPD*%
*
*
G04 PC Circuitry*
G04 Layer Name Arudino_VarioShield_UNO - circuitry*
%LPD*%
*
G54D10*
G54D51*
G01X213110Y209902D03*
Y219902D03*
Y229902D03*
Y239902D03*
Y249902D03*
Y259902D03*
Y269902D03*
Y279902D03*
X220000Y110000D03*
X230000D03*
X240000D03*
X250000D03*
X260000D03*
X270000D03*
X280000D03*
X184016Y298819D03*
X194016D03*
X204016D03*
X214016D03*
X224016D03*
X234016D03*
X244016D03*
X254016D03*
X264016D03*
X290000D03*
X300000D03*
X310000D03*
X320000D03*
X330000D03*
X340000D03*
X350000D03*
X229016Y285827D03*
X310000Y110000D03*
X320000D03*
X330000D03*
X340000D03*
X350000D03*
X144094Y243307D03*
Y259055D03*
X129921Y275000D03*
Y292717D03*
X131496Y221654D03*
Y209843D03*
Y198031D03*
X351575Y269449D03*
Y279449D03*
G54D52*
X163110Y212402D03*
G54D53*
X210000Y110000D03*
X174016Y298819D03*
X280000D03*
X239016Y285827D03*
X300000Y110000D03*
X144094Y251181D03*
X351575Y259449D03*
G54D63*
X286801Y247207D03*
X294301D03*
X268691D03*
X276191D03*
G54D65*
X165354Y109843D03*
X352362Y220472D03*
Y182677D03*
G54D66*
X165354Y114764D03*
X352362Y225394D03*
Y187598D03*
Y192520D03*
Y197441D03*
Y202362D03*
Y207283D03*
G54D67*
X131496Y168898D03*
Y153937D03*
G54D68*
Y177559D03*
Y162598D03*
G54D69*
X313780Y275640D03*
Y281840D03*
X305512Y275640D03*
Y281840D03*
G54D70*
X199163Y259902D03*
X192963D03*
X159006Y270079D03*
X152806D03*
X337845Y222047D03*
X344045D03*
X199163Y249902D03*
X192963D03*
X159006Y259055D03*
X152806D03*
X159006Y243307D03*
X152806D03*
X199163Y239902D03*
X192963D03*
X293651Y256693D03*
X287451D03*
X269341D03*
X275541D03*
X293651Y229134D03*
X287451D03*
X269341D03*
X275541D03*
G54D71*
X139764Y270079D03*
Y297638D03*
G54D75*
X290551Y239207D03*
X272441D03*
G54D76*
X131496Y234646D03*
Y185039D03*
G54D78*
X160000Y298819D03*
X360236Y240000D03*
Y130000D03*
X0Y0D02*
M02*
