*
*
G04 PADS 9.5 Build Number: 522968 generated Gerber (RS-274-X) file*
G04 PC Version=2.1*
*
%IN "Arudino_VarioShield_UNO"*%
*
%MOIN*%
*
%FSLAX35Y35*%
*
*
*
*
G04 PC Standard Apertures*
*
*
G04 Thermal Relief Aperture macro.*
%AMTER*
1,1,$1,0,0*
1,0,$1-$2,0,0*
21,0,$3,$4,0,0,45*
21,0,$3,$4,0,0,135*
%
*
*
G04 Annular Aperture macro.*
%AMANN*
1,1,$1,0,0*
1,0,$2,0,0*
%
*
*
G04 Odd Aperture macro.*
%AMODD*
1,1,$1,0,0*
1,0,$1-0.005,0,0*
%
*
*
G04 PC Custom Aperture Macros*
*
*
*
*
*
*
G04 PC Aperture Table*
*
%ADD010C,0.001*%
%ADD041C,0.01*%
%ADD047C,0.0063*%
%ADD048C,0.00709*%
*
*
*
*
G04 PC Circuitry*
G04 Layer Name Arudino_VarioShield_UNO - circuitry*
%LPD*%
*
*
G04 PC Custom Flashes*
G04 Layer Name Arudino_VarioShield_UNO - flashes*
%LPD*%
*
*
G04 PC Circuitry*
G04 Layer Name Arudino_VarioShield_UNO - circuitry*
%LPD*%
*
G54D10*
G54D41*
G01X287551Y239307D02*
X285051D01*
Y244307*
X293551Y239307D02*
X296051D01*
Y244307*
X290051Y248307D02*
X291051D01*
X269441Y239307D02*
X266941D01*
Y244307*
X275441Y239307D02*
X277941D01*
Y244307*
X271941Y248307D02*
X272941D01*
X197263Y263402D02*
X203063D01*
Y256402*
X197263*
X194863Y263402D02*
X189063D01*
Y256402*
X194863*
X157106Y273579D02*
X162906D01*
Y266579*
X157106*
X154706Y273579D02*
X148906D01*
Y266579*
X154706*
X339745Y218547D02*
X333945D01*
Y225547*
X339745*
X342145Y218547D02*
X347945D01*
Y225547*
X342145*
X197263Y253402D02*
X203063D01*
Y246402*
X197263*
X194863Y253402D02*
X189063D01*
Y246402*
X194863*
X157106Y262555D02*
X162906D01*
Y255555*
X157106*
X154706Y262555D02*
X148906D01*
Y255555*
X154706*
X157106Y246807D02*
X162906D01*
Y239807*
X157106*
X154706Y246807D02*
X148906D01*
Y239807*
X154706*
X197263Y243402D02*
X203063D01*
Y236402*
X197263*
X194863Y243402D02*
X189063D01*
Y236402*
X194863*
X291751Y260193D02*
X297551D01*
Y253193*
X291751*
X289351Y260193D02*
X283551D01*
Y253193*
X289351*
X271241D02*
X265441D01*
Y260193*
X271241*
X273641Y253193D02*
X279441D01*
Y260193*
X273641*
X291751Y232634D02*
X297551D01*
Y225634*
X291751*
X289351Y232634D02*
X283551D01*
Y225634*
X289351*
X271241D02*
X265441D01*
Y232634*
X271241*
X273641Y225634D02*
X279441D01*
Y232634*
X273641*
X317280Y277540D02*
Y271740D01*
X310280*
Y277540*
X317280Y279940D02*
Y285740D01*
X310280*
Y279940*
X309012Y277540D02*
Y271740D01*
X302012*
Y277540*
X309012Y279940D02*
Y285740D01*
X302012*
Y279940*
G54D47*
X296535Y237544D02*
Y235699D01*
X296432Y235330*
X296224Y235084*
X295913Y234961*
X295705*
X295394Y235084*
X295186Y235330*
X295082Y235699*
Y237544*
X292799D02*
X293837D01*
X293941Y236437*
X293837Y236560*
X293525Y236683*
X293214*
X292903Y236560*
X292695Y236314*
X292591Y235945*
X292695Y235699*
X292799Y235330*
X293006Y235084*
X293318Y234961*
X293629*
X293941Y235084*
X294044Y235207*
X294148Y235453*
X278031Y237544D02*
Y235699D01*
X277928Y235330*
X277720Y235084*
X277409Y234961*
X277201*
X276890Y235084*
X276682Y235330*
X276578Y235699*
Y237544*
X274399Y237175D02*
X274503Y237421D01*
X274814Y237544*
X275021*
X275333Y237421*
X275540Y237052*
X275644Y236437*
Y235822*
X275540Y235330*
X275333Y235084*
X275021Y234961*
X274918*
X274606Y235084*
X274399Y235330*
X274295Y235699*
Y235822*
X274399Y236191*
X274606Y236437*
X274918Y236560*
X275021*
X275333Y236437*
X275540Y236191*
X275644Y235822*
X185906Y261166D02*
Y258583D01*
Y261166D02*
X184971D01*
X184660Y261043*
X184556Y260920*
X184452Y260674*
Y260428*
X184556Y260182*
X184660Y260059*
X184971Y259936*
X185906*
X185179D02*
X184452Y258583D01*
X183518Y260674D02*
X183311Y260797D01*
X182999Y261166*
Y258583*
X155197Y265103D02*
Y262520D01*
Y265103D02*
X154263D01*
X153951Y264980*
X153848Y264857*
X153744Y264611*
Y264365*
X153848Y264119*
X153951Y263996*
X154263Y263873*
X155197*
X154470D02*
X153744Y262520D01*
X152810Y264611D02*
X152602Y264734D01*
X152291Y265103*
Y262520*
X151356Y264611D02*
X151149Y264734D01*
X150838Y265103*
Y262520*
X331575Y223371D02*
Y220787D01*
Y223371D02*
X330641D01*
X330329Y223248*
X330225Y223125*
X330122Y222879*
Y222633*
X330225Y222387*
X330329Y222264*
X330641Y222141*
X331575*
X330848D02*
X330122Y220787D01*
X329188Y222879D02*
X328980Y223002D01*
X328669Y223371*
Y220787*
X327631Y222756D02*
Y222879D01*
X327527Y223125*
X327423Y223248*
X327215Y223371*
X326800*
X326593Y223248*
X326489Y223125*
X326385Y222879*
Y222633*
X326489Y222387*
X326696Y222018*
X327734Y220787*
X326281*
X185906Y251718D02*
Y249134D01*
Y251718D02*
X184971D01*
X184660Y251594*
X184556Y251471*
X184452Y251225*
Y250979*
X184556Y250733*
X184660Y250610*
X184971Y250487*
X185906*
X185179D02*
X184452Y249134D01*
X183414Y251102D02*
Y251225D01*
X183311Y251471*
X183207Y251594*
X182999Y251718*
X182584*
X182377Y251594*
X182273Y251471*
X182169Y251225*
Y250979*
X182273Y250733*
X182480Y250364*
X183518Y249134*
X182065*
X155591Y254080D02*
Y251496D01*
Y254080D02*
X154656D01*
X154345Y253957*
X154241Y253834*
X154137Y253588*
Y253342*
X154241Y253095*
X154345Y252972*
X154656Y252849*
X155591*
X154864D02*
X154137Y251496D01*
X153099Y253465D02*
Y253588D01*
X153099D02*
X152996Y253834D01*
X152892Y253957*
X152684Y254080*
X152269*
X152062Y253957*
X151958Y253834*
X151854Y253588*
Y253342*
X151958Y253095*
X152165Y252726*
X153203Y251496*
X151750*
X149467Y254080D02*
X150505D01*
X150608Y252972*
X150505Y253095*
X150193Y253219*
X149882*
X149571Y253095*
X149363Y252849*
X149259Y252480*
X149363Y252234*
X149467Y251865*
X149674Y251619*
X149986Y251496*
X150297*
X150608Y251619*
X150712Y251742*
X150816Y251988*
X154803Y237938D02*
Y235354D01*
Y237938D02*
X153869D01*
X153558Y237815*
X153454Y237692*
X153350Y237446*
Y237200*
X153454Y236954*
X153558Y236831*
X153869Y236708*
X154803*
X154077D02*
X153350Y235354D01*
X152312Y237323D02*
Y237446D01*
X152208Y237692*
X152105Y237815*
X151897Y237938*
X151482*
X151274Y237815*
X151170Y237692*
X151067Y237446*
Y237200*
X151170Y236954*
X151378Y236585*
X152416Y235354*
X150963*
X148783Y237569D02*
X148887Y237815D01*
X149198Y237938*
X149406*
X149717Y237815*
X149925Y237446*
X150029Y236831*
Y236216*
X149925Y235723*
X149717Y235477*
X149406Y235354*
X149302*
X148991Y235477*
X148783Y235723*
X148679Y236093*
Y236216*
X148783Y236585*
X148991Y236831*
X149302Y236954*
X149406*
X149717Y236831*
X149925Y236585*
X150029Y236216*
X186299Y241481D02*
Y238898D01*
Y241481D02*
X185365D01*
X185054Y241358*
X184950Y241235*
X184846Y240989*
Y240743*
X184950Y240497*
X185054Y240374*
X185365Y240251*
X186299*
X185573D02*
X184846Y238898D01*
X183704Y241481D02*
X182563D01*
X183185Y240497*
X182874*
X182666Y240374*
X182563Y240251*
X182459Y239882*
Y239636*
X182563Y239267*
X182770Y239021*
X183082Y238898*
X183393*
X183704Y239021*
X183808Y239144*
X183912Y239390*
X302835Y260379D02*
Y257795D01*
Y260379D02*
X301901D01*
X301901D02*
X301589Y260256D01*
X301485Y260133*
X301382Y259887*
Y259641*
X301485Y259395*
X301589Y259272*
X301901Y259149*
X301901D02*
X302835D01*
X302108D02*
X301382Y257795D01*
X299409Y260379D02*
X300447Y258656D01*
X298890*
X299409Y260379D02*
Y257795D01*
X262677Y258410D02*
Y255827D01*
Y258410D02*
X261743D01*
X261432Y258287*
X261328Y258164*
X261224Y257918*
Y257672*
X261328Y257426*
X261432Y257303*
X261743Y257180*
X262677*
X261951D02*
X261224Y255827D01*
X258941Y258410D02*
X259979D01*
X260082Y257303*
X259979Y257426*
X259667Y257549*
X259356*
X259044Y257426*
X258837Y257180*
X258733Y256811*
X258837Y256565*
X258941Y256196*
X259148Y255950*
X259460Y255827*
X259771*
X260082Y255950*
X260186Y256073*
X260290Y256319*
X303228Y230458D02*
Y227874D01*
Y230458D02*
X302294D01*
X301983Y230335*
X301879Y230212*
X301775Y229966*
Y229719*
X301879Y229473*
X301983Y229350*
X302294Y229227*
X303228*
X302502D02*
X301775Y227874D01*
X299388Y230458D02*
X300426Y227874D01*
X300841Y230458D02*
X299388D01*
X262283D02*
Y227874D01*
Y230458D02*
X261349D01*
X261038Y230335*
X260934Y230212*
X260830Y229966*
Y229719*
X260934Y229473*
X261038Y229350*
X261349Y229227*
X262283*
X261557D02*
X260830Y227874D01*
X258547Y229596D02*
X258651Y229227D01*
X258858Y228981*
X259170Y228858*
X259273*
X259585Y228981*
X259792Y229227*
X259896Y229596*
Y229719*
X259792Y230089*
X259585Y230335*
X259273Y230458*
X259170*
X258858Y230335*
X258651Y230089*
X258547Y229596*
Y228981*
X258651Y228366*
X258858Y227997*
X259170Y227874*
X259377*
X259689Y227997*
X259792Y228243*
X316535Y269926D02*
Y266929D01*
Y269926D02*
X315601D01*
X315290Y269783*
X315186Y269641*
X315082Y269355*
Y269070*
X315186Y268784*
X315290Y268642*
X315601Y268499*
X316535*
X315809D02*
X315082Y266929D01*
X314148Y269355D02*
X313941Y269498D01*
X313629Y269926*
Y266929*
X312072Y269926D02*
X312384Y269783D01*
X312591Y269355*
X312695Y268642*
Y268214*
X312591Y267500*
X312384Y267072*
X312072Y266929*
X311865*
X311553Y267072*
X311346Y267500*
X311242Y268214*
Y268642*
X311346Y269355*
X311553Y269783*
X311865Y269926*
X312072*
X308268D02*
Y266929D01*
Y269926D02*
X307334D01*
X307022Y269783*
X306918Y269641*
X306815Y269355*
Y269070*
X306918Y268784*
X307022Y268642*
X307334Y268499*
X308268*
X307541D02*
X306815Y266929D01*
X305777Y269213D02*
Y269355D01*
X305673Y269641*
X305569Y269783*
X305361Y269926*
X304946*
X304739Y269783*
X304635Y269641*
X304531Y269355*
Y269070*
X304635Y268784*
X304843Y268356*
X305880Y266929*
X304427*
X302040Y269926D02*
X303078Y266929D01*
X303493Y269926D02*
X302040D01*
X180000Y255000D02*
X182520D01*
X185669D02*
X188189D01*
X191339D02*
X193858D01*
X197008D02*
X199528D01*
X202677D02*
X205000D01*
Y235000D02*
Y237520D01*
Y240827D02*
Y243346D01*
Y246654D02*
Y249173D01*
Y252480D02*
Y255000D01*
X180000Y235000D02*
X182520D01*
X185669D02*
X188189D01*
X191339D02*
X193858D01*
X197008D02*
X199528D01*
X202677D02*
X205000D01*
X180000D02*
Y237520D01*
Y240827D02*
Y243346D01*
Y246654D02*
Y249173D01*
Y252480D02*
Y255000D01*
G54D48*
X205000Y233100D02*
Y230000D01*
Y233100D02*
X203497Y230000D01*
Y233100D02*
Y230000D01*
X200920Y232362D02*
X201027Y232657D01*
X201242Y232953*
X201457Y233100*
X201886*
X202101Y232953*
X202316Y232657*
X202423Y232362*
X202530Y231919*
Y231181*
X202423Y230738*
X202316Y230443*
X202101Y230148*
X201886Y230000*
X201457*
X201242Y230148*
X201027Y230443*
X200920Y230738*
X0Y0D02*
M02*
