*
*
G04 PADS 9.5 Build Number: 522968 generated Gerber (RS-274-X) file*
G04 PC Version=2.1*
*
%IN "Arudino_VarioShield_UNO"*%
*
%MOIN*%
*
%FSLAX35Y35*%
*
*
*
*
G04 PC Standard Apertures*
*
*
G04 Thermal Relief Aperture macro.*
%AMTER*
1,1,$1,0,0*
1,0,$1-$2,0,0*
21,0,$3,$4,0,0,45*
21,0,$3,$4,0,0,135*
%
*
*
G04 Annular Aperture macro.*
%AMANN*
1,1,$1,0,0*
1,0,$2,0,0*
%
*
*
G04 Odd Aperture macro.*
%AMODD*
1,1,$1,0,0*
1,0,$1-0.005,0,0*
%
*
*
G04 PC Custom Aperture Macros*
*
*
*
*
*
*
G04 PC Aperture Table*
*
%ADD010C,0.001*%
%ADD036C,0.00787*%
%ADD041C,0.01*%
%ADD045C,0.005*%
%ADD046C,0.00472*%
%ADD047C,0.0063*%
%ADD048C,0.00709*%
%ADD049C,0.00551*%
*
*
*
*
G04 PC Circuitry*
G04 Layer Name Arudino_VarioShield_UNO - circuitry*
%LPD*%
*
*
G04 PC Custom Flashes*
G04 Layer Name Arudino_VarioShield_UNO - flashes*
%LPD*%
*
*
G04 PC Circuitry*
G04 Layer Name Arudino_VarioShield_UNO - circuitry*
%LPD*%
*
G54D10*
G54D36*
G01X315748Y207087D02*
Y277953D01*
X229921*
Y207087*
X315748*
X235433Y222835D02*
Y262598D01*
X245669*
Y222835*
X235433*
X255906Y219685D02*
Y265354D01*
X300787*
Y219685*
X255906*
X119685Y118701D02*
Y148228D01*
X102559*
Y118701*
X119685*
X205118Y154823D02*
Y158871D01*
X205758*
Y160027*
X205118*
Y164075*
X215354*
Y154823*
X205118*
X296850D02*
Y158871D01*
X297490*
Y160027*
X296850*
Y164075*
X307087*
Y154823*
X296850*
X264173Y160236D02*
G75*
G03X264173I-12598J0D01*
G01X264567Y147244D02*
X238583D01*
Y168110*
X243701Y173228*
X259449*
X264567Y168110*
Y147244*
X354331Y159843D02*
G03X354331I-12599J0D01*
G01X354724Y146850D02*
X328740D01*
Y167717*
X333858Y172835*
X349606*
X354724Y167717*
Y146850*
G54D41*
X322047Y219134D02*
Y209173D01*
X328533Y219173D02*
X320483D01*
Y209173*
X328533*
X336033Y219173D02*
X344083D01*
Y209173*
X336033*
X218110Y287402D02*
X151181D01*
Y202953*
X218110*
Y287402*
X205000Y115000D02*
X285000D01*
Y105000*
X205000*
Y115000*
X169016Y303819D02*
X269016D01*
Y293819*
X169016*
Y303819*
X275000D02*
X355000D01*
Y293819*
X275000*
Y303819*
X244016Y280827D02*
X224016D01*
Y290827*
X244016*
Y280827*
X160961Y143850D02*
Y141350D01*
X165961*
X160961Y149850D02*
Y152350D01*
X165961*
X169961Y146350D02*
Y147350D01*
X155512Y170315D02*
Y160354D01*
X161998Y170354D02*
X153948D01*
X153944Y170351D02*
G03X153953Y160350I4659J-4997D01*
G01X153948Y160354D02*
X161998D01*
X169498Y170354D02*
X177548D01*
X177549Y160355D02*
G03Y170354I-3768J4999D01*
G01X177548Y160354D02*
X169498D01*
X240157Y182441D02*
Y192402D01*
X233671Y182402D02*
X241721D01*
X241725Y182405D02*
G03X241717Y192406I-4659J4997D01*
G01X241721Y192402D02*
X233671D01*
X226171Y182402D02*
X218121D01*
Y192401D02*
G03Y182402I3767J-4999D01*
G01Y192402D02*
X226171D01*
X200000Y140000D02*
Y130039D01*
X206486Y140039D02*
X198436D01*
Y130039*
X206486*
X213986Y140039D02*
X222036D01*
Y130039*
X213986*
X331890Y182441D02*
Y192402D01*
X325404Y182402D02*
X333454D01*
X333458Y182405D02*
G03X333449Y192406I-4659J4997D01*
G01X333454Y192402D02*
X325404D01*
X317904Y182402D02*
X309854D01*
X309853Y192401D02*
G03Y182402I3767J-4999D01*
G01X309854Y192402D02*
X317904D01*
X295000Y115000D02*
X355000D01*
Y105000*
X295000*
Y115000*
X291732Y139606D02*
Y129646D01*
X298219Y139646D02*
X290169D01*
Y129646*
X298219*
X305719Y139646D02*
X313769D01*
Y129646*
X305719*
X132126Y259055D02*
X111924D01*
G03Y243307I0J-7874*
G01X132126*
Y259055*
X161220Y120669D02*
Y103937D01*
X182874*
Y120669*
X161220*
X182402Y118228D02*
X170591D01*
Y106220*
X182717*
X119882Y166457D02*
Y180039D01*
X106148*
X106147D02*
G03Y166457I2785J-6791D01*
G01X106148D02*
X119882D01*
X120079Y168425D02*
X129134D01*
X120079Y178228D02*
X128937D01*
X119882Y151496D02*
Y165079D01*
X106148*
X106147Y165078D02*
G03Y151497I2785J-6791D01*
G01X106148Y151496D02*
X119882D01*
X120079Y153465D02*
X129134D01*
X120079Y163268D02*
X128937D01*
X344071Y274428D02*
Y280228D01*
X337071*
Y274428*
X344071Y272028D02*
Y266228D01*
X337071*
Y272028*
X143326Y169728D02*
X149126D01*
Y176728*
X143326*
X140926Y169728D02*
X135126D01*
Y176728*
X140926*
Y161374D02*
X135126D01*
Y154374*
X140926*
X143326Y161374D02*
X149126D01*
Y154374*
X143326*
X128390Y119666D02*
Y113866D01*
X135390*
Y119666*
X128390Y122066D02*
Y127866D01*
X135390*
Y122066*
Y142932D02*
Y148732D01*
X128390*
Y142932*
X135390Y140532D02*
Y134732D01*
X128390*
Y140532*
X194051Y152381D02*
Y158181D01*
X187051*
Y152381*
X194051Y149981D02*
Y144181D01*
X187051*
Y149981*
X226421Y166517D02*
Y160717D01*
X233421*
Y166517*
X226421Y168917D02*
Y174717D01*
X233421*
Y168917*
X226421Y149981D02*
Y144181D01*
X233421*
Y149981*
X226421Y152381D02*
Y158181D01*
X233421*
Y152381*
X285783D02*
Y158181D01*
X278783*
Y152381*
X285783Y149981D02*
Y144181D01*
X278783*
Y149981*
X318154Y166517D02*
Y160717D01*
X325154*
Y166517*
X318154Y168917D02*
Y174717D01*
X325154*
Y168917*
X318154Y149981D02*
Y144181D01*
X325154*
Y149981*
X318154Y152381D02*
Y158181D01*
X325154*
Y152381*
X305099Y125941D02*
X299299D01*
Y118941*
X305099*
X307499Y125941D02*
X313299D01*
Y118941*
X307499*
X324231D02*
X330031D01*
Y125941*
X324231*
X321831Y118941D02*
X316031D01*
Y125941*
X321831*
X331083Y228697D02*
X325283D01*
Y221697*
X331083*
X333483Y228697D02*
X339283D01*
Y221697*
X333483*
X148838Y143350D02*
X154638D01*
Y150350*
X148838*
X146438Y143350D02*
X140638D01*
Y150350*
X146438*
X187051Y166517D02*
Y160717D01*
X194051*
Y166517*
X187051Y168917D02*
Y174717D01*
X194051*
Y168917*
X278783Y166517D02*
Y160717D01*
X285783*
Y166517*
X278783Y168917D02*
Y174717D01*
X285783*
Y168917*
X145669Y269685D02*
X119646D01*
Y298031*
X145669*
X136417Y269685D02*
Y298031D01*
X119528Y278937D02*
X100079D01*
Y288780*
X119646*
X120472Y235433D02*
Y184252D01*
X142520*
Y235433*
X120472*
Y225394D02*
X99213D01*
Y213189*
X120472*
X348228Y231299D02*
Y214567D01*
X369882*
Y231299*
X348228*
X369409Y228858D02*
X357598D01*
Y216850*
X369724*
X348228Y213189D02*
Y176772D01*
X369882*
Y213189*
X348228*
X369409Y210748D02*
X357598D01*
Y179764*
X369724*
X346575Y254449D02*
Y284449D01*
X356575*
Y254449*
X346575*
X281693Y179528D02*
X297835D01*
Y195276*
X281693*
Y179528*
X189961D02*
X206102D01*
Y195276*
X189961*
Y179528*
X327122Y274428D02*
Y280228D01*
X320122*
Y274428*
X327122Y272028D02*
Y266228D01*
X320122*
Y272028*
G54D45*
X322283Y239370D02*
X342283D01*
Y256693*
X322283*
Y249031*
Y247031D02*
G03Y249031I0J1000D01*
G01Y247031D02*
Y239370D01*
G54D46*
X151575Y122638D02*
X144488D01*
Y134055*
X151575*
Y122638*
X346063Y209825D02*
X346211Y209878D01*
X346358Y209986*
X346432Y210093*
Y210308*
X346358Y210415*
X346211Y210523*
X346063Y210576*
X345842Y210630*
X345472*
X345251Y210576*
X345103Y210523*
X344956Y210415*
X344882Y210308*
Y210093*
X344956Y209986*
X345103Y209878*
X345251Y209825*
X345472*
Y210093D02*
Y209825D01*
X346432Y209341D02*
X344882D01*
X346432D02*
Y208858D01*
X346358Y208697*
X346284Y208644*
X346137Y208590*
X345915*
X345768Y208644*
X345694Y208697*
X345620Y208858*
Y209341*
X346211Y207355D02*
X346358Y207462D01*
X346432Y207623*
Y207838*
X346358Y207999*
X346211Y208107*
X346063*
X345915Y208053*
X345842Y207999*
X345768Y207892*
X345620Y207570*
X345546Y207462*
X345472Y207409*
X345325Y207355*
X345103*
X344956Y207462*
X344882Y207623*
Y207838*
X344956Y207999*
X345103Y208107*
X345915Y205583D02*
X345842Y205637D01*
X345768Y205583*
X345842Y205530*
X345915Y205583*
X345030D02*
X344956Y205637D01*
X344882Y205583*
X344956Y205530*
X345030Y205583*
X346432Y203812D02*
X344882Y203382D01*
X346432Y202953D02*
X344882Y203382D01*
X346063Y201664D02*
X346211Y201718D01*
X346358Y201825*
X346432Y201933*
Y202147*
X346358Y202255*
X346211Y202362*
X346063Y202416*
X345842Y202470*
X345472*
X345251Y202416*
X345103Y202362*
X344956Y202255*
X344882Y202147*
Y201933*
X344956Y201825*
X345103Y201718*
X345251Y201664*
X346063Y200376D02*
X346211Y200429D01*
X346358Y200537*
X346432Y200644*
Y200859*
X346358Y200966*
X346211Y201074*
X346063Y201127*
X345842Y201181*
X345472*
X345251Y201127*
X345103Y201074*
X344956Y200966*
X344882Y200859*
Y200644*
X344956Y200537*
X345103Y200429*
X345251Y200376*
X346432Y198658D02*
X344882D01*
X346432D02*
Y198175D01*
X346358Y198014*
X346284Y197960*
X346137Y197906*
X345989*
X345842Y197960*
X345768Y198014*
X345694Y198175*
Y198658*
Y198282D02*
X344882Y197906D01*
X346432Y197423D02*
X344882Y196671D01*
X346432D02*
X344882Y197423D01*
X346432Y194953D02*
X344882D01*
X346432D02*
X344882Y194202D01*
X346432D02*
X344882D01*
X346063Y192913D02*
X346211Y192967D01*
X346358Y193074*
X346432Y193182*
Y193397*
X346358Y193504*
X346211Y193611*
X346063Y193665*
X345842Y193719*
X345472*
X345251Y193665*
X345103Y193611*
X344956Y193504*
X344882Y193397*
Y193182*
X344956Y193074*
X345103Y192967*
X345251Y192913*
X345915Y192430D02*
X344882Y191840D01*
X345915D02*
X344882Y192430D01*
X346432Y191249D02*
Y190659D01*
X345842Y190981*
Y190820*
X345768Y190712*
X345694Y190659*
X345472Y190605*
X345325*
X345103Y190659*
X344956Y190766*
X344882Y190927*
Y191088*
X344956Y191249*
X345030Y191303*
X345177Y191356*
X346063Y188082D02*
X346211Y188135D01*
X346358Y188243*
X346432Y188350*
Y188565*
X346358Y188672*
X346211Y188780*
X346063Y188833*
X345842Y188887*
X345472*
X345251Y188833*
X345103Y188780*
X344956Y188672*
X344882Y188565*
Y188350*
X344956Y188243*
X345103Y188135*
X345251Y188082*
X345472*
Y188350D02*
Y188082D01*
X346432Y187598D02*
X344882D01*
X346432D02*
X344882Y186847D01*
X346432D02*
X344882D01*
X346432Y186364D02*
X344882D01*
X346432D02*
Y185988D01*
X346358Y185827*
X346211Y185719*
X346063Y185666*
X345842Y185612*
X345472*
X345251Y185666*
X345103Y185719*
X344956Y185827*
X344882Y185988*
Y186364*
G54D47*
X323132Y205827D02*
X323028Y206073D01*
X322820Y206319*
X322613Y206442*
X322198*
X321990Y206319*
X321782Y206073*
X321679Y205827*
X321575Y205458*
Y204843*
X321679Y204473*
X321782Y204227*
X321990Y203981*
X322198Y203858*
X322613*
X322820Y203981*
X323028Y204227*
X323132Y204473*
X324066Y205950D02*
X324273Y206073D01*
X324585Y206442*
Y203858*
X220787Y203292D02*
Y201447D01*
X220891Y201078*
X221099Y200832*
X221410Y200709*
X221618*
X221929Y200832*
X222137Y201078*
X222241Y201447*
Y203292*
X223175Y202800D02*
X223382Y202923D01*
X223694Y203292*
Y200709*
X200172Y111166D02*
Y109198D01*
X200068Y108829*
X199964Y108706*
X199757Y108583*
X199549*
X199341Y108706*
X199238Y108829*
X199134Y109198*
Y109444*
X202351Y110797D02*
X202248Y111043D01*
X201936Y111166*
X201729*
X201417Y111043*
X201210Y110674*
X201106Y110059*
Y109444*
X201210Y108952*
X201417Y108706*
X201729Y108583*
X201832*
X201832D02*
X202144Y108706D01*
X202351Y108952*
X202455Y109321*
Y109444*
X202351Y109813*
X202144Y110059*
X201832Y110182*
X201832D02*
X201729D01*
X201417Y110059*
X201210Y109813*
X201106Y109444*
X311732Y205655D02*
Y203071D01*
Y205655D02*
X312563Y203071D01*
X313393Y205655D02*
X312563Y203071D01*
X313393Y205655D02*
Y203071D01*
X314327Y205162D02*
X314535Y205285D01*
X314846Y205655*
Y203071*
X170644Y291875D02*
Y289906D01*
X170540Y289537*
X170437Y289414*
X170229Y289291*
X170021*
X169814Y289414*
X169710Y289537*
X169606Y289906*
Y290153*
X171578Y291383D02*
X171786Y291506D01*
X172097Y291875*
Y289291*
X275369Y291875D02*
Y289906D01*
X275265Y289537*
X275161Y289414*
X274953Y289291*
X274746*
X274538Y289414*
X274435Y289537*
X274435D02*
X274331Y289906D01*
Y290153*
X276407Y291260D02*
Y291383D01*
X276510Y291629*
X276614Y291752*
X276822Y291875*
X277237*
X277445Y291752*
X277548Y291629*
X277652Y291383*
Y291137*
X277548Y290891*
X277341Y290522*
X276303Y289291*
X277756*
X318031Y242662D02*
Y240817D01*
X318135Y240448*
X318343Y240202*
X318654Y240079*
X318862*
X319173Y240202*
X319381Y240448*
X319485Y240817*
Y242662*
X320523Y242047D02*
Y242170D01*
X320626Y242416*
X320730Y242539*
X320938Y242662*
X321353*
X321560Y242539*
X321664Y242416*
X321768Y242170*
Y241924*
X321664Y241678*
X321457Y241309*
X320419Y240079*
X321872*
X224581Y278489D02*
Y276521D01*
X224477Y276152*
X224374Y276029*
X224166Y275906*
X223958*
X223751Y276029*
X223647Y276152*
X223543Y276521*
Y276767*
X225723Y278489D02*
X226865D01*
X226242Y277505*
X226553*
X226761Y277382*
X226865Y277259*
X226969Y276890*
Y276644*
X226865Y276275*
X226657Y276029*
X226346Y275906*
X226034*
X225723Y276029*
X225619Y276152*
X225515Y276398*
X123006Y119828D02*
Y117859D01*
X122903Y117490*
X122799Y117367*
X122591Y117244*
X122384*
X122176Y117367*
X122072Y117490*
X121969Y117859*
Y118105*
X125290Y119828D02*
X124252D01*
X124148Y118720*
X124252Y118844*
X124563Y118967*
X124875*
X125186Y118844*
X125394Y118597*
X125497Y118228*
X125394Y117982*
X125290Y117613*
X125082Y117367*
X124771Y117244*
X124460*
X124148Y117367*
X124044Y117490*
X123941Y117736*
X215669Y146993D02*
Y145148D01*
X215773Y144779*
X215981Y144532*
X216292Y144409*
X216500*
X216811Y144532*
X217019Y144779*
X217122Y145148*
Y146993*
X218264D02*
X219406D01*
X218783Y146009*
X219094*
X219302Y145886*
X219406Y145763*
X219510Y145394*
Y145148*
X219406Y144779*
X219198Y144532*
X218887Y144409*
X218576*
X218264Y144532*
X218160Y144656*
X218057Y144902*
X146378Y120615D02*
Y118770D01*
X146482Y118401*
X146689Y118155*
X147001Y118031*
X147208*
X147520Y118155*
X147727Y118401*
X147831Y118770*
Y120615*
X150218D02*
X149180Y118031D01*
X148765Y120615D02*
X150218D01*
X161732Y138725D02*
Y136880D01*
X161836Y136511*
X162044Y136265*
X162355Y136142*
X162563*
X162874Y136265*
X163082Y136511*
X163185Y136880*
Y138725*
X164639D02*
X164327Y138602D01*
X164223Y138356*
Y138110*
X164327Y137864*
X164535Y137741*
X164950Y137618*
X165261Y137495*
X165469Y137249*
X165573Y137003*
Y136634*
X165469Y136388*
X165365Y136265*
X165054Y136142*
X164639*
X164327Y136265*
X164223Y136388*
X164120Y136634*
Y137003*
X164223Y137249*
X164431Y137495*
X164742Y137618*
X165157Y137741*
X165365Y137864*
X165469Y138110*
Y138356*
X165365Y138602*
X165054Y138725*
X164639*
X154582Y172362D02*
X157165D01*
X154582D02*
Y173089D01*
X154705Y173400*
X154951Y173608*
X155197Y173712*
X155566Y173815*
X156181*
X156550Y173712*
X156796Y173608*
X157042Y173400*
X157165Y173089*
Y172362*
X155197Y174853D02*
X155074D01*
X154828Y174957*
X154705Y175061*
X154582Y175268*
Y175684*
X154705Y175891*
X154828Y175995*
X155074Y176099*
X155320*
X155566Y175995*
X155935Y175787*
X157165Y174749*
Y176203*
X220787Y180064D02*
Y177480D01*
Y180064D02*
X221514D01*
X221825Y179941*
X222033Y179695*
X222137Y179449*
X222241Y179080*
Y178465*
X222137Y178095*
X222033Y177849*
X221825Y177603*
X221514Y177480*
X220787*
X224524Y180064D02*
X223486D01*
X223382Y178957*
X223486Y179080*
X223797Y179203*
X224109*
X224420Y179080*
X224628Y178834*
X224732Y178465*
X224628Y178219*
X224524Y177849*
X224316Y177603*
X224005Y177480*
X223694*
X223382Y177603*
X223278Y177726*
X223175Y177972*
X201478Y127480D02*
X201374Y127726D01*
X201167Y127972*
X200959Y128095*
X200544*
X200336Y127972*
X200129Y127726*
X200025Y127480*
X199921Y127111*
Y126496*
X200025Y126127*
X200129Y125881*
X200336Y125635*
X200544Y125512*
X200959*
X201167Y125635*
X201374Y125881*
X201478Y126127*
X203658Y127726D02*
X203554Y127972D01*
X203243Y128095*
X203035*
X202724Y127972*
X202516Y127603*
X202412Y126988*
Y126373*
X202516Y125881*
X202724Y125635*
X203035Y125512*
X203139*
X203450Y125635*
X203658Y125881*
X203762Y126250*
Y126373*
X203658Y126742*
X203450Y126988*
X203139Y127111*
X203035*
X202724Y126988*
X202516Y126742*
X202412Y126373*
X305433Y145812D02*
Y143967D01*
X305537Y143597*
X305744Y143351*
X306056Y143228*
X306263*
X306575Y143351*
X306782Y143597*
X306886Y143967*
Y145812*
X308858D02*
X307820Y144090D01*
X309377*
X308858Y145812D02*
Y143228D01*
X309764Y180851D02*
Y178268D01*
Y180851D02*
X310490D01*
X310802Y180728*
X311009Y180482*
X311113Y180236*
X311217Y179867*
Y179252*
X311113Y178883*
X311009Y178637*
X310802Y178391*
X310490Y178268*
X309764*
X313397Y180482D02*
X313293Y180728D01*
X312981Y180851*
X312774*
X312462Y180728*
X312255Y180359*
X312151Y179744*
Y179129*
X312255Y178637*
X312462Y178391*
X312774Y178268*
X312878*
X313189Y178391*
X313397Y178637*
X313500Y179006*
Y179129*
X313397Y179498*
X313189Y179744*
X312878Y179867*
X312774*
X312462Y179744*
X312255Y179498*
X312151Y179129*
X290329Y110773D02*
Y108804D01*
X290225Y108435*
X290122Y108312*
X289914Y108189*
X289707*
X289499Y108312*
X289395Y108435*
X289291Y108804*
Y109050*
X292717Y110773D02*
X291679Y108189D01*
X291263Y110773D02*
X292717D01*
X286911Y134567D02*
X286807Y134813D01*
X286600Y135059*
X286392Y135182*
X285977*
X285770Y135059*
X285562Y134813*
X285458Y134567*
X285354Y134198*
Y133583*
X285458Y133214*
X285562Y132968*
X285770Y132721*
X285977Y132598*
X286392*
X286600Y132721*
X286807Y132968*
X286911Y133214*
X289195Y134321D02*
X289091Y133952D01*
X288883Y133706*
X288572Y133583*
X288468*
X288157Y133706*
X287949Y133952*
X287845Y134321*
Y134444*
X287949Y134813*
X288157Y135059*
X288468Y135182*
X288572*
X288883Y135059*
X289091Y134813*
X289195Y134321*
Y133706*
X289091Y133091*
X288883Y132721*
X288572Y132598*
X288364*
X288053Y132721*
X287949Y132968*
X129055Y241481D02*
Y238898D01*
Y241481D02*
X129782D01*
X130093Y241358*
X130301Y241112*
X130404Y240866*
X130508Y240497*
Y239882*
X130404Y239513*
X130301Y239267*
X130093Y239021*
X129782Y238898*
X129055*
X132895Y241481D02*
X131858Y238898D01*
X131442Y241481D02*
X132895D01*
X186392Y109198D02*
Y107229D01*
X186288Y106860*
X186185Y106737*
X185977Y106614*
X185770*
X185562Y106737*
X185458Y106860*
X185354Y107229*
Y107475*
X188364Y109198D02*
X187326Y107475D01*
X188883*
X188364Y109198D02*
Y106614D01*
X121969Y174552D02*
Y171969D01*
Y174552D02*
X122695D01*
X123006Y174429*
X123214Y174183*
X123318Y173937*
X123422Y173568*
Y172953*
X123318Y172584*
X123214Y172338*
X123006Y172092*
X122695Y171969*
X121969*
X124563Y174552D02*
X125705D01*
X125082Y173568*
X125394*
X125601Y173445*
X125705Y173322*
X125809Y172953*
Y172707*
X125705Y172338*
X125497Y172092*
X125186Y171969*
X124875*
X124563Y172092*
X124460Y172215*
X124356Y172461*
X122362Y159985D02*
Y157402D01*
Y159985D02*
X123089D01*
X123400Y159862*
X123608Y159616*
X123712Y159370*
X123815Y159001*
Y158386*
X123712Y158017*
X123608Y157771*
X123400Y157525*
X123089Y157402*
X122362*
X125787Y159985D02*
X124749Y158263D01*
X126306*
X125787Y159985D02*
Y157402D01*
X337717Y285576D02*
Y282992D01*
Y285576D02*
X338651D01*
X338962Y285453*
X339066Y285330*
X339170Y285084*
Y284838*
X339066Y284592*
X338962Y284469*
X338651Y284345*
X337717*
X338443D02*
X339170Y282992D01*
X340104Y285084D02*
X340311Y285207D01*
X340623Y285576*
Y282992*
X342595Y285576D02*
X341557Y283853D01*
X343114*
X342595Y285576D02*
Y282992D01*
X135748Y168647D02*
Y166063D01*
Y168647D02*
X136682D01*
X136994Y168524*
X137097Y168401*
X137201Y168155*
Y167908*
X137097Y167662*
X136994Y167539*
X136682Y167416*
X135748*
X136475D02*
X137201Y166063D01*
X138135Y168155D02*
X138343Y168278D01*
X138654Y168647*
Y166063*
X140938Y168647D02*
X139900D01*
X139796Y167539*
X139900Y167662*
X140211Y167785*
X140523*
X140834Y167662*
X141042Y167416*
X141145Y167047*
X141042Y166801*
X140938Y166432*
X140730Y166186*
X140419Y166063*
X140107*
X139796Y166186*
X139692Y166309*
X139588Y166555*
X144016Y165891D02*
Y163307D01*
Y165891D02*
X144950D01*
X145261Y165768*
X145365Y165645*
X145469Y165399*
Y165153*
X145365Y164906*
X145261Y164783*
X144950Y164660*
X144016*
X144742D02*
X145469Y163307D01*
X146403Y165399D02*
X146611Y165522D01*
X146922Y165891*
Y163307*
X149102Y165522D02*
X148998Y165768D01*
X148686Y165891*
X148479*
X148168Y165768*
X148168D02*
X147960Y165399D01*
X147856Y164783*
Y164168*
X147960Y163676*
X148168Y163430*
X148168D02*
X148479Y163307D01*
X148583*
X148894Y163430*
X149102Y163676*
X149205Y164045*
Y164168*
X149102Y164537*
X148894Y164783*
X148583Y164906*
X148479*
X148168Y164783*
X148168D02*
X147960Y164537D01*
X147856Y164168*
X129055Y111954D02*
Y109370D01*
Y111954D02*
X129989D01*
X130301Y111831*
X130404Y111708*
X130508Y111462*
Y111216*
X130404Y110969*
X130301Y110846*
X129989Y110723*
X129055*
X129782D02*
X130508Y109370D01*
X131442Y111462D02*
X131650Y111585D01*
X131961Y111954*
Y109370*
X134349Y111954D02*
X133311Y109370D01*
X132895Y111954D02*
X134349D01*
X129449Y134001D02*
Y131417D01*
Y134001D02*
X130383D01*
X130694Y133878*
X130798Y133755*
X130902Y133509*
Y133263*
X130798Y133017*
X130694Y132894*
X130383Y132771*
X129449*
X130175D02*
X130902Y131417D01*
X131836Y133509D02*
X132044Y133632D01*
X132355Y134001*
Y131417*
X133808Y134001D02*
X133497Y133878D01*
X133393Y133632*
Y133386*
X133497Y133140*
X133704Y133017*
X134120Y132894*
X134431Y132771*
X134639Y132525*
X134742Y132279*
Y131909*
X134639Y131663*
X134535Y131540*
X134223Y131417*
X133808*
X133497Y131540*
X133393Y131663*
X133289Y131909*
Y132279*
X133393Y132525*
X133601Y132771*
X133912Y132894*
X134327Y133017*
X134535Y133140*
X134639Y133386*
Y133632*
X134535Y133878*
X134223Y134001*
X133808*
X188110Y142269D02*
Y139685D01*
Y142269D02*
X189044D01*
X189356Y142146*
X189460Y142023*
X189563Y141777*
Y141531*
X189460Y141284*
X189356Y141161*
X189044Y141038*
X188110*
X188837D02*
X189563Y139685D01*
X190497Y141777D02*
X190705Y141900D01*
X191016Y142269*
Y139685*
X193300Y141407D02*
X193196Y141038D01*
X192989Y140792*
X192677Y140669*
X192573*
X192262Y140792*
X192054Y141038*
X191951Y141407*
Y141531*
X192054Y141900*
X192262Y142146*
X192573Y142269*
X192677*
X192989Y142146*
X193196Y141900*
X193300Y141407*
Y140792*
X193196Y140177*
X192989Y139808*
X192677Y139685*
X192470*
X192158Y139808*
X192054Y140054*
X227480Y179277D02*
Y176693D01*
Y179277D02*
X228414D01*
X228726Y179154*
X228830Y179031*
X228933Y178784*
Y178538*
X228830Y178292*
X228726Y178169*
X228414Y178046*
X227480*
X228207D02*
X228933Y176693D01*
X229971Y178661D02*
Y178784D01*
X230075Y179031*
X230179Y179154*
X230387Y179277*
X230802*
X231009Y179154*
X231113Y179031*
X231217Y178784*
Y178538*
X231113Y178292*
X230906Y177923*
X229868Y176693*
X231321*
X232878Y179277D02*
X232566Y179154D01*
X232359Y178784*
X232255Y178169*
Y177800*
X232359Y177185*
X232566Y176816*
X232878Y176693*
X233085*
X233397Y176816*
X233604Y177185*
X233708Y177800*
Y178169*
X233604Y178784*
X233397Y179154*
X233085Y179277*
X232878*
X227480Y142269D02*
Y139685D01*
Y142269D02*
X228414D01*
X228726Y142146*
X228830Y142023*
X228933Y141777*
Y141531*
X228830Y141284*
X228726Y141161*
X228414Y141038*
X227480*
X228207D02*
X228933Y139685D01*
X229971Y141654D02*
Y141777D01*
X230075Y142023*
X230179Y142146*
X230387Y142269*
X230802*
X231009Y142146*
X231113Y142023*
X231217Y141777*
Y141531*
X231113Y141284*
X230906Y140915*
X229868Y139685*
X231321*
X232255Y141777D02*
X232462Y141900D01*
X232774Y142269*
Y139685*
X279449Y142269D02*
Y139685D01*
Y142269D02*
X280383D01*
X280694Y142146*
X280798Y142023*
X280902Y141777*
Y141531*
X280798Y141284*
X280694Y141161*
X280383Y141038*
X279449*
X280175D02*
X280902Y139685D01*
X281940Y141654D02*
Y141777D01*
X282044Y142023*
X282147Y142146*
X282355Y142269*
X282770*
X282978Y142146*
X283082Y142023*
X283185Y141777*
Y141531*
X283082Y141284*
X282874Y140915*
X281836Y139685*
X283289*
X284327Y141654D02*
Y141777D01*
X284431Y142023*
X284535Y142146*
X284742Y142269*
X285157*
X285365Y142146*
X285469Y142023*
X285573Y141777*
Y141531*
X285469Y141284*
X285261Y140915*
X284223Y139685*
X285676*
X318819Y179277D02*
Y176693D01*
Y179277D02*
X319753D01*
X320064Y179154*
X320168Y179031*
X320272Y178784*
Y178538*
X320168Y178292*
X320064Y178169*
X319753Y178046*
X318819*
X319545D02*
X320272Y176693D01*
X321310Y178661D02*
Y178784D01*
X321414Y179031*
X321518Y179154*
X321725Y179277*
X322140*
X322348Y179154*
X322452Y179031*
X322555Y178784*
Y178538*
X322452Y178292*
X322244Y177923*
X321206Y176693*
X322659*
X323801Y179277D02*
X324943D01*
X324320Y178292*
X324631*
X324839Y178169*
X324943Y178046*
X325047Y177677*
Y177431*
X324943Y177062*
X324735Y176816*
X324424Y176693*
X324112*
X323801Y176816*
X323697Y176939*
X323593Y177185*
X319213Y142662D02*
Y140079D01*
Y142662D02*
X320147D01*
X320458Y142539*
X320562Y142416*
X320666Y142170*
Y141924*
X320562Y141678*
X320458Y141555*
X320147Y141432*
X319213*
X319939D02*
X320666Y140079D01*
X321704Y142047D02*
Y142170D01*
X321807Y142416*
X321911Y142539*
X322119Y142662*
X322534*
X322742Y142539*
X322845Y142416*
X322949Y142170*
Y141924*
X322845Y141678*
X322638Y141309*
X321600Y140079*
X323053*
X325025Y142662D02*
X323987Y140940D01*
X325544*
X325025Y142662D02*
Y140079D01*
X293622Y124158D02*
Y121575D01*
Y124158D02*
X294556D01*
X294868Y124035*
X294971Y123912*
X295075Y123666*
Y123420*
X294971Y123174*
X294868Y123051*
X294556Y122928*
X293622*
X294349D02*
X295075Y121575D01*
X297255Y123789D02*
X297151Y124035D01*
X296840Y124158*
X296632*
X296321Y124035*
X296113Y123666*
X296009Y123051*
Y122436*
X296113Y121944*
X296321Y121698*
X296632Y121575*
X296736*
X297047Y121698*
X297255Y121944*
X297359Y122313*
Y122436*
X297255Y122805*
X297047Y123051*
X296736Y123174*
X296632*
X296321Y123051*
X296113Y122805*
X296009Y122436*
X332598Y123765D02*
Y121181D01*
Y123765D02*
X333533D01*
X333844Y123642*
X333948Y123519*
X334052Y123273*
Y123027*
X333948Y122781*
X333844Y122657*
X333533Y122534*
X332598*
X333325D02*
X334052Y121181D01*
X335505Y123765D02*
X335193Y123642D01*
X335089Y123396*
Y123150*
X335193Y122904*
X335401Y122781*
X335816Y122657*
X336127Y122534*
X336335Y122288*
X336439Y122042*
Y121673*
X336335Y121427*
X336231Y121304*
X335920Y121181*
X335505*
X335193Y121304*
X335089Y121427*
X334986Y121673*
Y122042*
X335089Y122288*
X335297Y122534*
X335608Y122657*
X336024Y122781*
X336231Y122904*
X336335Y123150*
Y123396*
X336231Y123642*
X335920Y123765*
X335505*
X321163Y225906D02*
X321059Y226152D01*
X320852Y226398*
X320644Y226521*
X320229*
X320021Y226398*
X319814Y226152*
X319710Y225906*
X319606Y225536*
Y224921*
X319710Y224552*
X319814Y224306*
X320021Y224060*
X320229Y223937*
X320644*
X320852Y224060*
X321059Y224306*
X321163Y224552*
X322201Y225906D02*
Y226029D01*
X322305Y226275*
X322409Y226398*
X322616Y226521*
X323031*
X323239Y226398*
X323343Y226275*
X323447Y226029*
Y225782*
X323343Y225536*
X323135Y225167*
X322097Y223937*
X323550*
X143604Y140866D02*
X143500Y141112D01*
X143293Y141358*
X143085Y141481*
X142670*
X142462Y141358*
X142255Y141112*
X142151Y140866*
X142047Y140497*
Y139882*
X142151Y139513*
X142255Y139267*
X142462Y139021*
X142670Y138898*
X143085*
X143293Y139021*
X143500Y139267*
X143604Y139513*
X144746Y141481D02*
X145888D01*
X145265Y140497*
X145576*
X145784Y140374*
X145888Y140251*
X145991Y139882*
Y139636*
X145888Y139267*
X145680Y139021*
X145369Y138898*
X145057*
X144746Y139021*
X144642Y139144*
X144538Y139390*
X199510Y176693D02*
X199406Y176939D01*
X199198Y177185*
X198991Y177308*
X198576*
X198368Y177185*
X198160Y176939*
X198057Y176693*
X197953Y176324*
Y175709*
X198057Y175340*
X198160Y175094*
X198368Y174847*
X198576Y174724*
X198991*
X199198Y174847*
X199406Y175094*
X199510Y175340*
X201793Y177308D02*
X200755D01*
X200651Y176201*
X200755Y176324*
X201067Y176447*
X201378*
X201689Y176324*
X201897Y176078*
X202001Y175709*
X201897Y175463*
X201793Y175094*
X201586Y174847*
X201274Y174724*
X200963*
X200651Y174847*
X200548Y174970*
X200444Y175217*
X291242Y177087D02*
X291138Y177333D01*
X290931Y177579*
X290723Y177702*
X290308*
X290100Y177579*
X289893Y177333*
X289789Y177087*
X289685Y176718*
Y176102*
X289789Y175733*
X289893Y175487*
X290100Y175241*
X290308Y175118*
X290723*
X290931Y175241*
X291138Y175487*
X291242Y175733*
X292695Y177702D02*
X292384Y177579D01*
X292280Y177333*
Y177087*
X292384Y176841*
X292591Y176718*
X293006Y176594*
X293318Y176471*
X293525Y176225*
X293629Y175979*
Y175610*
X293525Y175364*
X293422Y175241*
X293110Y175118*
X292695*
X292384Y175241*
X292280Y175364*
X292176Y175610*
Y175979*
X292280Y176225*
X292487Y176471*
X292799Y176594*
X293214Y176718*
X293422Y176841*
X293525Y177087*
Y177333*
X293422Y177579*
X293110Y177702*
X292695*
X129327Y267490D02*
X129120Y267736D01*
X128808Y267859*
X128393*
X128082Y267736*
X127874Y267490*
Y267244*
X127978Y266998*
X128082Y266875*
X128289Y266752*
X128912Y266506*
X129120Y266383*
X129223Y266260*
X129327Y266014*
Y265645*
X129120Y265399*
X128808Y265276*
X128393*
X128082Y265399*
X127874Y265645*
X130261Y267859D02*
X130780Y265276D01*
X131299Y267859D02*
X130780Y265276D01*
X131299Y267859D02*
X131818Y265276D01*
X132337Y267859D02*
X131818Y265276D01*
X133271Y267367D02*
X133479Y267490D01*
X133790Y267859*
Y265276*
X140744Y182451D02*
X140537Y182697D01*
X140225Y182820*
X139810*
X139499Y182697*
X139291Y182451*
Y182205*
X139395Y181959*
X139499Y181836*
X139707Y181713*
X140329Y181467*
X140537Y181344*
X140641Y181220*
X140744Y180974*
Y180605*
X140537Y180359*
X140225Y180236*
X139810*
X139499Y180359*
X139291Y180605*
X141679Y182328D02*
X141886Y182451D01*
X142198Y182820*
Y180236*
X242423Y145197D02*
X242319Y145443D01*
X242112Y145689*
X241904Y145812*
X241489*
X241281Y145689*
X241074Y145443*
X240970Y145197*
X240866Y144828*
Y144213*
X240970Y143844*
X241074Y143597*
X241281Y143351*
X241489Y143228*
X241904*
X242112Y143351*
X242319Y143597*
X242423Y143844*
X244395Y145812D02*
X243357Y144090D01*
X244914*
X244395Y145812D02*
Y143228D01*
X332974Y144409D02*
X332870Y144656D01*
X332663Y144902*
X332455Y145025*
X332040*
X331833Y144902*
X331833D02*
X331625Y144656D01*
X331521Y144409*
X331417Y144040*
Y143425*
X331521Y143056*
X331625Y142810*
X331833Y142564*
X331833D02*
X332040Y142441D01*
X332455*
X332663Y142564*
X332870Y142810*
X332974Y143056*
X335361Y145025D02*
X334324Y142441D01*
X333908Y145025D02*
X335361D01*
X344660Y230064D02*
Y228095D01*
X344556Y227726*
X344452Y227603*
X344245Y227480*
X344037*
X343830Y227603*
X343726Y227726*
X343622Y228095*
Y228342*
X346113Y230064D02*
X345802Y229941D01*
X345698Y229695*
Y229449*
X345802Y229203*
X346009Y229080*
X346424Y228957*
X346736Y228834*
X346943Y228588*
X347047Y228342*
Y227972*
X346943Y227726*
X346840Y227603*
X346528Y227480*
X346113*
X345802Y227603*
X345698Y227726*
X345594Y227972*
Y228342*
X345698Y228588*
X345906Y228834*
X346217Y228957*
X346632Y229080*
X346840Y229203*
X346943Y229449*
Y229695*
X346840Y229941*
X346528Y230064*
X346113*
X354188Y175438D02*
Y173155D01*
X354084Y172726*
X353980Y172584*
X353772Y172441*
X353565*
X353357Y172584*
X353253Y172726*
X353150Y173155*
Y173440*
X356471Y174439D02*
X356367Y174011D01*
X356160Y173725*
X355848Y173583*
X355744*
X355433Y173725*
X355225Y174011*
X355122Y174439*
Y174582*
X355225Y175010*
X355433Y175295*
X355744Y175438*
X355848*
X356160Y175295*
X356367Y175010*
X356471Y174439*
Y173725*
X356367Y173012*
X356160Y172584*
X355848Y172441*
X355641*
X355329Y172584*
X355225Y172869*
X358912Y252603D02*
Y250320D01*
X358808Y249892*
X358704Y249749*
X358497Y249606*
X358289*
X358082Y249749*
X357978Y249892*
X357874Y250320*
Y250605*
X359846Y252032D02*
X360054Y252175D01*
X360365Y252603*
Y249606*
X361922Y252603D02*
X361611Y252461D01*
X361403Y252032*
X361299Y251319*
Y250891*
X361403Y250177*
X361611Y249749*
X361922Y249606*
X362130*
X362441Y249749*
X362649Y250177*
X362752Y250891*
Y251319*
X362649Y252032*
X362441Y252461*
X362130Y252603*
X361922*
X276693Y182426D02*
Y179843D01*
X277938*
X278873Y181934D02*
X279080Y182057D01*
X279392Y182426*
Y179843*
X184567Y182426D02*
Y179843D01*
X185812*
X186850Y181811D02*
Y181934D01*
X186954Y182180*
X187058Y182303*
X187266Y182426*
X187681*
X187888Y182303*
X187992Y182180*
X188096Y181934*
Y181688*
X187992Y181442*
X187785Y181073*
X186747Y179843*
X188200*
X321260Y285281D02*
Y282283D01*
Y285281D02*
X322194D01*
X322505Y285138*
X322609Y284995*
X322713Y284710*
Y284424*
X322609Y284139*
X322505Y283996*
X322194Y283853*
X321260*
X321986D02*
X322713Y282283D01*
X323647Y284710D02*
X323855Y284852D01*
X324166Y285281*
Y282283*
X325308Y285281D02*
X326450D01*
X325827Y284139*
X326138*
X326346Y283996*
X326450Y283853*
X326553Y283425*
Y283140*
X326450Y282712*
X326242Y282426*
X325931Y282283*
X325619*
X325308Y282426*
X325204Y282569*
X325100Y282854*
G54D48*
X350376Y252677D02*
X350272Y252963D01*
X350064Y253248*
X349857Y253391*
X349442*
X349234Y253248*
X349026Y252963*
X348923Y252677*
X348819Y252249*
Y251535*
X348923Y251107*
X349026Y250822*
X349234Y250536*
X349442Y250394*
X349857*
X350064Y250536*
X350272Y250822*
X350376Y251107*
Y251535*
X349857D02*
X350376D01*
X351310Y253391D02*
Y250394D01*
Y253391D02*
X352244D01*
X352555Y253248*
X352659Y253105*
X352763Y252820*
Y252392*
X352659Y252106*
X352555Y251964*
X352244Y251821*
X351310*
X355150Y252963D02*
X354943Y253248D01*
X354631Y253391*
X354216*
X353905Y253248*
X353697Y252963*
Y252677*
X353801Y252392*
X353905Y252249*
X354112Y252106*
X354735Y251821*
X354943Y251678*
X355047Y251535*
X355150Y251250*
Y250822*
X354943Y250536*
X354631Y250394*
X354216*
X353905Y250536*
X353697Y250822*
X349606Y289218D02*
Y286220D01*
Y289218D02*
X350540D01*
X350852Y289075*
X350956Y288932*
X351059Y288647*
Y288361*
X350956Y288076*
X350852Y287933*
X350540Y287790*
X349606D02*
X350540D01*
X350852Y287648*
X350956Y287505*
X351059Y287219*
Y286791*
X350956Y286506*
X350852Y286363*
X350540Y286220*
X349606*
X352720Y289218D02*
Y286220D01*
X351994Y289218D02*
X353447D01*
X184252Y120320D02*
Y117323D01*
X185497*
X186432Y120320D02*
X186535Y120177D01*
X186639Y120320*
X186535Y120463*
X186432Y120320*
X186535Y119321D02*
Y117323D01*
X187573Y120320D02*
Y117323D01*
Y120320D02*
X188508D01*
X188819Y120177*
X188923Y120034*
X189026Y119749*
Y119321*
X188923Y119035*
X188819Y118893*
X188508Y118750*
X187573*
X190480Y119321D02*
X190272Y119178D01*
X190064Y118893*
X189961Y118465*
Y118179*
X190064Y117751*
X190272Y117466*
X190480Y117323*
X190791*
X190999Y117466*
X191206Y117751*
X191310Y118179*
Y118465*
X191206Y118893*
X190999Y119178*
X190791Y119321*
X190480*
X194631Y120320D02*
Y117323D01*
Y120320D02*
X195565D01*
X195565D02*
X195877Y120177D01*
X195981Y120034*
X196084Y119749*
Y119464*
X195981Y119178*
X195877Y119035*
X195565Y118893*
X194631D02*
X195565D01*
X195565D02*
X195877Y118750D01*
X195981Y118607*
X196084Y118322*
Y117894*
X195981Y117608*
X195877Y117466*
X195565Y117323*
X195565D02*
X194631D01*
X198264Y119321D02*
Y117323D01*
Y118893D02*
X198057Y119178D01*
X197849Y119321*
X197538*
X197330Y119178*
X197122Y118893*
X197019Y118465*
Y118179*
X197122Y117751*
X197330Y117466*
X197538Y117323*
X197849*
X198057Y117466*
X198264Y117751*
X199510Y120320D02*
Y117894D01*
X199613Y117466*
X199821Y117323*
X200029*
X199198Y119321D02*
X199925D01*
X201274Y120320D02*
Y117894D01*
X201378Y117466*
X201586Y117323*
X201793*
X200963Y119321D02*
X201689D01*
X202727Y118465D02*
X203973D01*
Y118750*
X203869Y119035*
X203765Y119178*
X203558Y119321*
X203246*
X203039Y119178*
X202831Y118893*
X202727Y118465*
Y118179*
X202831Y117751*
X203039Y117466*
X203246Y117323*
X203558*
X203765Y117466*
X203973Y117751*
X204907Y119321D02*
Y117323D01*
Y118465D02*
X205011Y118893D01*
X205218Y119178*
X205426Y119321*
X205737*
X206775D02*
X207398Y117323D01*
X208021Y119321D02*
X207398Y117323D01*
X207190Y116752*
X206983Y116467*
X206775Y116324*
X206671*
X116777Y209449D02*
X113780D01*
X116777D02*
Y208515D01*
X116634Y208203*
X116491Y208099*
X116491D02*
X116206Y207996D01*
X115778*
X115492Y208099*
X115492D02*
X115349Y208203D01*
X115207Y208515*
Y209449*
X116777Y207062D02*
X113780Y206543D01*
X116777Y206024D02*
X113780Y206543D01*
X116777Y206024D02*
X113780Y205505D01*
X116777Y204986D02*
X113780Y205505D01*
X116777Y204052D02*
X113780D01*
X116777D02*
Y203117D01*
X116634Y202806*
X116491Y202702*
X116206Y202598*
X115920*
X115635Y202702*
X115492Y202806*
X115349Y203117*
Y204052*
Y203325D02*
X113780Y202598D01*
X116777Y198654D02*
X116634Y198862D01*
X116348Y199069*
X116063Y199173*
X115635Y199277*
X114921*
X114493Y199173*
X114208Y199069*
X113922Y198862*
X113780Y198654*
Y198239*
X113922Y198031*
X114208Y197824*
X114493Y197720*
X114921Y197616*
X115635*
X116063Y197720*
X116348Y197824*
X116634Y198031*
X116777Y198239*
Y198654*
Y196682D02*
X113780D01*
X116777D02*
X113780Y195229D01*
X116777D02*
X113780D01*
X173132Y212849D02*
X172921Y213140D01*
X172604Y213285*
X172181*
X171865Y213140*
X171654Y212849*
Y212559*
X171759Y212269*
X171865Y212124*
X172076Y211978*
X172709Y211688*
X172921Y211543*
X173026Y211398*
X173132Y211107*
Y210672*
X172921Y210381*
X172604Y210236*
X172181*
X171865Y210381*
X171654Y210672*
X174082Y211398D02*
X175349D01*
Y211688*
X175243Y211978*
X175138Y212124*
X174927Y212269*
X174610*
X174399Y212124*
X174188Y211833*
X174082Y211398*
Y211107*
X174188Y210672*
X174399Y210381*
X174610Y210236*
X174927*
X175138Y210381*
X175349Y210672*
X176299Y212269D02*
Y210236D01*
Y211688D02*
X176616Y212124D01*
X176827Y212269*
X177144*
X177355Y212124*
X177461Y211688*
Y210236*
X179572Y211833D02*
X179467Y212124D01*
X179150Y212269*
X178833*
X178516Y212124*
X178411Y211833*
X178516Y211543*
X178728Y211398*
X179256Y211252*
X179467Y211107*
X179572Y210817*
Y210672*
X179467Y210381*
X179150Y210236*
X178833*
X178516Y210381*
X178411Y210672*
X181050Y212269D02*
X180839Y212124D01*
X180628Y211833*
X180523Y211398*
Y211107*
X180628Y210672*
X180839Y210381*
X181050Y210236*
X181367*
X181578Y210381*
X181790Y210672*
X181895Y211107*
Y211398*
X181790Y211833*
X181578Y212124*
X181367Y212269*
X181050*
X182845D02*
Y210236D01*
Y211398D02*
X182951Y211833D01*
X183162Y212124*
X183373Y212269*
X183690*
X185802Y211833D02*
X185696Y212124D01*
X185379Y212269*
X185063*
X184746Y212124*
X184640Y211833*
X184746Y211543*
X184957Y211398*
X185485Y211252*
X185696Y211107*
X185802Y210817*
Y210672*
X185696Y210381*
X185379Y210236*
X185063*
X184746Y210381*
X184640Y210672*
X239077Y224803D02*
X242126D01*
X239077D02*
Y225753D01*
X239222Y226070*
X239368Y226176*
X239658Y226281*
X239948*
X240239Y226176*
X240384Y226070*
X240529Y225753*
Y224803D02*
Y225753D01*
X240674Y226070*
X240819Y226176*
X241110Y226281*
X241545*
X241836Y226176*
X241981Y226070*
X242126Y225753*
Y224803*
X239077Y227232D02*
X242126D01*
X240094Y228182D02*
X241545D01*
X241981Y228287*
X242126Y228499*
Y228815*
X241981Y229026*
X241545Y229343*
X240094D02*
X242126D01*
X240965Y230293D02*
Y231560D01*
X240674*
X240384Y231455*
X240239Y231349*
X240094Y231138*
Y230821*
X240239Y230610*
X240529Y230399*
X240965Y230293*
X241255*
X241690Y230399*
X241981Y230610*
X242126Y230821*
Y231138*
X241981Y231349*
X241690Y231560*
X239077Y232827D02*
X241545D01*
X241981Y232933*
X242126Y233144*
Y233355*
X240094Y232511D02*
Y233250D01*
Y234834D02*
X240239Y234622D01*
X240529Y234411*
X240965Y234306*
X241255*
X241690Y234411*
X241981Y234622*
X242126Y234834*
Y235150*
X241981Y235361*
X241690Y235573*
X241255Y235678*
X240965*
X240529Y235573*
X240239Y235361*
X240094Y235150*
Y234834*
Y237156D02*
X240239Y236945D01*
X240529Y236734*
X240965Y236628*
X241255*
X241690Y236734*
X241981Y236945*
X242126Y237156*
Y237473*
X241981Y237684*
X241690Y237895*
X241255Y238001*
X240965*
X240529Y237895*
X240239Y237684*
X240094Y237473*
Y237156*
X239077Y239268D02*
X241545D01*
X241981Y239374*
X242126Y239585*
Y239796*
X240094Y238951D02*
Y239690D01*
X239077Y240746D02*
X242126D01*
X240674D02*
X240239Y241063D01*
X240094Y241274*
Y241591*
X240239Y241802*
X240674Y241908*
X242126*
X239077Y245286D02*
X242126D01*
X239077D02*
Y246659D01*
X240529Y245286D02*
Y246131D01*
X239077Y247609D02*
X242126D01*
X239077D02*
Y248559D01*
X239222Y248876*
X239368Y248982*
X239658Y249087*
X239948*
X240239Y248982*
X240384Y248876*
X240529Y248559*
Y247609D02*
Y248559D01*
X240674Y248876*
X240819Y248982*
X241110Y249087*
X241545*
X241836Y248982*
X241981Y248876*
X242126Y248559*
Y247609*
X239658Y250038D02*
X239513Y250249D01*
X239077Y250565*
X239077D02*
X242126D01*
X239077Y252888D02*
Y251832D01*
X239077D02*
X240384Y251727D01*
X240239Y251832*
X240239D02*
X240094Y252149D01*
Y252466*
X240239Y252783*
X240529Y252994*
X240965Y253099*
X240965D02*
X241255Y252994D01*
X241690Y252888*
X241981Y252677*
X242126Y252360*
Y252044*
X241981Y251727*
X241836Y251621*
X241545Y251516*
X239077Y255422D02*
Y254366D01*
X239077D02*
X240384Y254261D01*
X240239Y254366*
X240239D02*
X240094Y254683D01*
Y255000*
X240239Y255317*
X240529Y255528*
X240965Y255634*
X240965D02*
X241255Y255528D01*
X241690Y255422*
X241981Y255211*
X242126Y254894*
Y254578*
X241981Y254261*
X241836Y254155*
X241545Y254050*
X239077Y256584D02*
X242126D01*
X239077D02*
Y257534D01*
X239222Y257851*
X239368Y257956*
X239658Y258062*
X239948*
X240239Y257956*
X240384Y257851*
X240529Y257534*
Y256584D02*
Y257534D01*
X240674Y257851*
X240819Y257956*
X241110Y258062*
X241545*
X241836Y257956*
X241981Y257851*
X242126Y257534*
Y256584*
X239803Y260596D02*
X239513Y260490D01*
X239222Y260279*
X239077Y260068*
Y259646*
X239222Y259435*
X239222D02*
X239513Y259223D01*
X239803Y259118*
X240239Y259012*
X240965*
X241400Y259118*
X241690Y259223*
X241981Y259435*
X241981D02*
X242126Y259646D01*
Y260068*
X241981Y260279*
X241690Y260490*
X241400Y260596*
X101969Y115595D02*
Y113455D01*
X102072Y113027*
X102280Y112741*
X102591Y112598*
X102799*
X103110Y112741*
X103318Y113027*
X103422Y113455*
Y115595*
X105809Y115167D02*
X105601Y115453D01*
X105290Y115595*
X104875*
X104563Y115453*
X104356Y115167*
Y114882*
X104460Y114596*
X104563Y114454*
X104771Y114311*
X105394Y114026*
X105601Y113883*
X105705Y113740*
X105809Y113455*
Y113027*
X105601Y112741*
X105290Y112598*
X104875*
X104563Y112741*
X104356Y113027*
X106743Y115595D02*
Y112598D01*
Y115595D02*
X107677D01*
X107989Y115453*
X108092Y115310*
X108196Y115025*
Y114739*
X108092Y114454*
X107989Y114311*
X107677Y114168*
X106743D02*
X107677D01*
X107989Y114026*
X108092Y113883*
X108196Y113597*
Y113169*
X108092Y112884*
X107989Y112741*
X107677Y112598*
X106743*
X113074Y114882D02*
X112971Y115167D01*
X112763Y115453*
X112555Y115595*
X112140*
X111933Y115453*
X111725Y115167*
X111621Y114882*
X111518Y114454*
Y113740*
X111621Y113312*
X111725Y113027*
X111933Y112741*
X112140Y112598*
X112555*
X112763Y112741*
X112971Y113027*
X113074Y113312*
X114009Y115595D02*
Y112598D01*
Y114026D02*
X114320Y114454D01*
X114528Y114596*
X114839*
X115047Y114454*
X115150Y114026*
Y112598*
X117330Y114596D02*
Y112598D01*
Y114168D02*
X117122Y114454D01*
X116915Y114596*
X116603*
X116396Y114454*
X116188Y114168*
X116084Y113740*
Y113455*
X116188Y113027*
X116396Y112741*
X116603Y112598*
X116915*
X117122Y112741*
X117330Y113027*
X118264Y114596D02*
Y112598D01*
Y113740D02*
X118368Y114168D01*
X118576Y114454*
X118783Y114596*
X119094*
X121274D02*
Y112313D01*
X121170Y111885*
X121067Y111742*
X120859Y111599*
X120548*
X120340Y111742*
X121274Y114168D02*
X121067Y114454D01*
X120859Y114596*
X120548*
X120340Y114454*
X120132Y114168*
X120029Y113740*
Y113455*
X120132Y113027*
X120340Y112741*
X120548Y112598*
X120859*
X121067Y112741*
X121274Y113027*
X122208Y113740D02*
X123454D01*
Y114026*
X123350Y114311*
X123246Y114454*
X123039Y114596*
X122727*
X122520Y114454*
X122312Y114168*
X122208Y113740*
Y113455*
X122312Y113027*
X122520Y112741*
X122727Y112598*
X123039*
X123246Y112741*
X123454Y113027*
G54D49*
X171654Y207837D02*
Y205512D01*
Y207837D02*
X172378D01*
X172620Y207726*
X172700Y207616*
X172781Y207394*
Y207062*
X172700Y206841*
X172620Y206730*
X172378Y206619*
X171654*
X173506Y207062D02*
Y205512D01*
Y206398D02*
X173586Y206730D01*
X173747Y206951*
X173908Y207062*
X174150*
X175761Y206730D02*
X175680Y206951D01*
X175438Y207062*
X175197*
X174955Y206951*
X174875Y206730*
X174955Y206508*
X175116Y206398*
X175519Y206287*
X175680Y206176*
X175761Y205955*
Y205844*
X175680Y205623*
X175438Y205512*
X175197*
X174955Y205623*
X174875Y205844*
X177935Y208280D02*
X176485Y204737D01*
X179304Y207837D02*
X178660Y205512D01*
X179304Y207837D02*
X179948Y205512D01*
X178901Y206287D02*
X179707D01*
X181639Y206730D02*
X181478Y206951D01*
X181317Y207062*
X181076*
X180914Y206951*
X180753Y206730*
X180673Y206398*
Y206176*
X180753Y205844*
X180914Y205623*
X181076Y205512*
X181317*
X181478Y205623*
X181639Y205844*
X183330Y206730D02*
X183169Y206951D01*
X183008Y207062*
X182767*
X182606Y206951*
X182445Y206730*
X182364Y206398*
Y206176*
X182445Y205844*
X182606Y205623*
X182767Y205512*
X183008*
X183169Y205623*
X183330Y205844*
X184055Y206398D02*
X185021D01*
Y206619*
X184941Y206841*
X184860Y206951*
X184699Y207062*
X184458*
X184297Y206951*
X184136Y206730*
X184055Y206398*
Y206176*
X184136Y205844*
X184297Y205623*
X184458Y205512*
X184699*
X184860Y205623*
X185021Y205844*
X185746Y207837D02*
Y205512D01*
X187921Y208280D02*
X186471Y204737D01*
X189853Y207283D02*
X189773Y207505D01*
X189612Y207726*
X189451Y207837*
X189128*
X188967Y207726*
X188806Y207505*
X188726Y207283*
X188645Y206951*
Y206398*
X188726Y206065*
X188806Y205844*
X188967Y205623*
X189128Y205512*
X189451*
X189612Y205623*
X189773Y205844*
X189853Y206065*
Y206398*
X189451D02*
X189853D01*
X190659Y207062D02*
X191142Y205512D01*
X191625Y207062D02*
X191142Y205512D01*
X190981Y205069*
X190820Y204847*
X190659Y204737*
X190578*
X192350Y207062D02*
Y205512D01*
Y206398D02*
X192430Y206730D01*
X192591Y206951*
X192752Y207062*
X192994*
X194121D02*
X193960Y206951D01*
X193799Y206730*
X193719Y206398*
Y206176*
X193799Y205844*
X193960Y205623*
X194121Y205512*
X194363*
X194524Y205623*
X194685Y205844*
X194766Y206176*
Y206398*
X194685Y206730*
X194524Y206951*
X194363Y207062*
X194121*
X196940Y208280D02*
X195490Y204737D01*
X197665Y207837D02*
Y205512D01*
Y207837D02*
X198309Y205512D01*
X198953Y207837D02*
X198309Y205512D01*
X198953Y207837D02*
Y205512D01*
X200644Y207062D02*
Y205512D01*
Y206730D02*
X200483Y206951D01*
X200322Y207062*
X200081*
X199919Y206951*
X199758Y206730*
X199678Y206398*
Y206176*
X199758Y205844*
X199919Y205623*
X200081Y205512*
X200322*
X200483Y205623*
X200644Y205844*
X202335Y207062D02*
Y205290D01*
X202255Y204958*
X202174Y204847*
X202013Y204737*
X201772*
X201611Y204847*
X202335Y206730D02*
X202174Y206951D01*
X202013Y207062*
X201772*
X201611Y206951*
X201450Y206730*
X201369Y206398*
Y206176*
X201450Y205844*
X201611Y205623*
X201772Y205512*
X202013*
X202174Y205623*
X202335Y205844*
G74*
X0Y0D02*
M02*
